#N canvas 0 22 844 668 10;
#X obj 27 150 GEMglBegin;
#X obj 84 129 gems.gl.def GL_LINES;
#X obj 35 369 GEMglEnd;
#X obj 187 178 GEMglVertex3f 0 0 0;
#X obj 180 294 GEMglVertex3f 0 0 0;
#X obj 314 22 inlet;
#X obj 21 23 inlet;
#X obj 42 421 outlet;
#X obj 433 166 inlet;
#X obj 261 145 unpack \$1 \$2 \$3;
#X obj 220 267 unpack \$4 \$5 \$6;
#X connect 0 0 3 0;
#X connect 1 0 0 1;
#X connect 2 0 7 0;
#X connect 3 0 4 0;
#X connect 4 0 2 0;
#X connect 5 0 9 0;
#X connect 6 0 0 0;
#X connect 8 0 10 0;
#X connect 9 0 3 1;
#X connect 9 1 3 2;
#X connect 9 2 3 3;
#X connect 10 0 4 1;
#X connect 10 1 4 2;
#X connect 10 2 4 3;
