#N canvas 1 110 450 300 10;
#X obj 191 34 inlet;
#X obj 212 104 t l b;
#X msg 214 139 0;
#X obj 65 139 drip;
#X text 105 136 requires zexy;
#X obj 96 192 f 0;
#X obj 208 192 + 1;
#X obj 67 161 t a b;
#X obj 137 268 outlet index;
#X obj 57 268 outlet value;
#X obj 203 66 list;
#X connect 0 0 10 0;
#X connect 1 0 3 0;
#X connect 1 1 2 0;
#X connect 2 0 5 1;
#X connect 3 0 7 0;
#X connect 5 0 6 0;
#X connect 5 0 8 0;
#X connect 6 0 5 1;
#X connect 7 0 9 0;
#X connect 7 1 5 0;
#X connect 10 0 1 0;
