#N canvas 667 225 780 503 10;
#X obj 55 44 inlet;
#X obj 106 169 list prepend;
#X msg 176 150 list send;
#X obj 170 130 loadbang;
#X obj 102 435 netsend;
#X obj 331 56 inlet connect;
#X obj 316 179 select 1 0;
#X msg 340 206 disconnect;
#X obj 294 330 pack s f;
#X obj 480 61 inlet host;
#X msg 293 356 connect \$1 \$2;
#X obj 294 298 symbol \$1;
#X obj 365 297 float \$2;
#X obj 312 256 t b b b;
#X msg 451 300 disconnect;
#X obj 293 390 t a;
#X obj 92 486 outlet status;
#X obj 618 351 spigot;
#X obj 340 136 f 0;
#X obj 353 79 loadbang;
#X msg 355 105 1;
#X obj 512 98 inlet port;
#X obj 348 453 select 0;
#X obj 127 220 list trim;
#X obj 77 100 spigot;
#X obj 211 42 delay 500;
#X obj 209 13 select 1 0;
#X msg 215 69 1;
#X msg 252 70 0;
#X obj 615 379 delay 2000;
#X obj 343 483 print net.send_STATUS;
#X obj 292 415 print net.send_CALL;
#X connect 0 0 24 0;
#X connect 1 0 23 0;
#X connect 2 0 1 1;
#X connect 3 0 2 0;
#X connect 4 0 16 0;
#X connect 4 0 22 0;
#X connect 4 0 26 0;
#X connect 5 0 18 0;
#X connect 6 0 13 0;
#X connect 6 1 7 0;
#X connect 7 0 15 0;
#X connect 8 0 10 0;
#X connect 9 0 11 1;
#X connect 10 0 15 0;
#X connect 11 0 8 0;
#X connect 12 0 8 1;
#X connect 13 0 11 0;
#X connect 13 1 12 0;
#X connect 13 2 14 0;
#X connect 14 0 15 0;
#X connect 15 0 4 0;
#X connect 15 0 31 0;
#X connect 17 0 29 0;
#X connect 18 0 6 0;
#X connect 18 0 17 1;
#X connect 19 0 20 0;
#X connect 20 0 18 0;
#X connect 21 0 12 1;
#X connect 22 0 17 0;
#X connect 22 0 30 0;
#X connect 23 0 4 0;
#X connect 24 0 1 0;
#X connect 25 0 27 0;
#X connect 26 0 25 0;
#X connect 26 1 28 0;
#X connect 27 0 24 1;
#X connect 28 0 24 1;
#X connect 29 0 20 0;
