#N canvas 66 82 848 801 10;
#X obj 124 299 gemwin;
#X msg 144 269 0 \, destroy;
#X obj 261 239 pix_video;
#X obj 219 334 pix_texture;
#X msg 96 224 dimen 320 240 \, create \, 1;
#X obj 110 133 tgl 50 0 empty empty GEM_Window 17 7 0 10 -258113 -1
-1 0 1;
#X obj 109 185 select 1 0;
#X obj 144 15 loadbang;
#X msg 333 201 device 0;
#N canvas 154 153 570 420 serin 0;
#X obj 205 60 cnv 20 20 20 empty \$0-open-canvas 0 4 10 0 16 -233017
-1 0;
#X obj 60 61 hradio 18 1 1 8 empty empty empty 0 -6 0 8 -258113 -1
-1 0;
#X obj 60 13 inlet;
#X msg 200 202 label \$1;
#X obj 200 180 makefilename %d;
#X obj 59 108 int;
#X obj 59 337 outlet;
#X msg 201 306 set \$1 \$2;
#X obj 59 266 trigger bang anything;
#X obj 201 286 list;
#X obj 200 225 send \$0-open-canvas;
#X msg 60 210 device \$1;
#X connect 1 0 5 0;
#X connect 2 0 1 0;
#X connect 3 0 10 0;
#X connect 4 0 3 0;
#X connect 5 0 4 0;
#X connect 5 0 11 0;
#X connect 7 0 6 0;
#X connect 8 0 6 0;
#X connect 8 1 9 0;
#X connect 9 0 7 0;
#X connect 11 0 8 0;
#X coords 0 -1 1 1 165 20 1 60 60;
#X restore 217 162 pd serin;
#X obj 463 24 loadbang;
#X obj 531 198 loadbang;
#X obj 143 37 delay 1000;
#X obj 119 602 pix_data;
#X obj 261 262 pix_invert;
#X obj 219 358 rectangle 5.33333 4;
#X obj 31 292 metro 250;
#X obj 176 109 tgl 15 0 empty empty read_pixels 17 7 0 10 -258113 -1
-1 0 1;
#X obj 178 77 loadbang;
#X obj 97 440 until;
#X obj 205 383 pix_info -----------------;
#X obj 97 464 f 0;
#X obj 97 397 t f b;
#X msg 123 419 0;
#X obj 125 466 + 1;
#X obj 241 484 until;
#X obj 241 508 f 0;
#X obj 241 440 t f b;
#X floatatom 217 624 5 0 0 0 - - -;
#X msg 220 602 0;
#X obj 218 580 loadbang;
#X text 257 623 threshold;
#X obj 224 677 select 1;
#X obj 73 665 f;
#X obj 348 242 tgl 15 0 empty empty enable_invert 17 7 0 10 -258113
-1 -1 0 1;
#X obj 392 201 loadbang;
#X obj 478 257 tgl 15 0 empty empty enable 17 7 0 10 -258113 -1 -1
0 1;
#X obj 478 236 loadbang;
#X obj 101 491 t b f b;
#X obj 169 569 t b f f;
#X obj 597 675 pack f f;
#X obj 596 722 print tabwrite;
#X obj 597 631 spigot;
#X obj 631 609 tgl 15 0 empty empty print 17 7 0 10 -258113 -1 -1 0
1;
#X obj 148 701 f;
#X obj 83 631 t b b;
#X obj 597 652 t f;
#X msg 597 697 \$2 \$1;
#N canvas 67 83 450 300 grey 0;
#X obj 216 114 inlet;
#X obj 214 177 +;
#X obj 211 226 +;
#X obj 213 261 outlet;
#X obj 218 139 unpack f f f;
#X connect 0 0 4 0;
#X connect 1 0 2 0;
#X connect 2 0 3 0;
#X connect 4 0 1 0;
#X connect 4 1 1 1;
#X connect 4 2 2 1;
#X restore 141 631 pd grey;
#X msg 303 300 \$1 \$1 \$1;
#X msg 499 267 1 1 1;
#X msg 553 262 0 0 0;
#X obj 213 286 pix_duotone;
#X obj 271 127 hsl 100 15 0 1 0 0 empty empty threshold -2 -8 0 10
-258113 -1 -1 0 1;
#X obj 269 52 loadbang;
#X text 225 143 Video camera;
#X obj 26 324 t b b;
#X obj 269 510 - 1;
#X obj 261 203 gemhead 50;
#X msg 23 248 dimen 640 480 \, create \, 1;
#X obj 194 136 hradio 15 1 0 3 empty empty window_size 0 -8 0 10 -258113
-1 -1 0;
#X obj 48 122 t f b;
#X msg 392 220 0;
#X obj 188 653 > 0;
#X text 221 696 If > thresh stop looping on Y and write to table at
X position;
#X obj 57 93 f;
#X msg 146 62 1;
#X msg 91 65 set 1;
#X msg 486 97 0;
#X obj 29 168 sel 0 1 2;
#X msg -49 206 dimen 1024 768 \, create \, 1;
#X msg 463 46 dimen 640 480;
#X text 512 98 device /dev/video0;
#X msg 269 77 0.45;
#X obj 97 374 f 640;
#X obj 241 415 f 480;
#X obj 306 481 f 480;
#X obj 117 555 / 640;
#X obj 182 597 / 480;
#X obj 408 478 vanilla.change;
#X obj -24 470 vanilla.change;
#X text 469 359 FIXME: should we be able to resize this table?;
#X obj 464 381 table \$1-array 640;
#X obj 421 505 s \$1-height;
#X obj 421 526 r \$1-height;
#X obj -25 497 s \$1-width;
#X obj -24 518 r \$1-width;
#X obj 83 737 tabwrite \$1-array;
#X obj -1 361 s \$1-refresh;
#X obj -1 387 r \$1-refresh;
#X connect 1 0 0 0;
#X connect 2 0 14 0;
#X connect 3 0 15 0;
#X connect 4 0 0 0;
#X connect 5 0 6 0;
#X connect 6 0 65 0;
#X connect 6 1 1 0;
#X connect 7 0 12 0;
#X connect 8 0 2 0;
#X connect 9 0 8 0;
#X connect 10 0 71 0;
#X connect 10 0 68 0;
#X connect 11 0 50 0;
#X connect 11 0 51 0;
#X connect 12 0 66 0;
#X connect 12 0 67 0;
#X connect 13 1 48 0;
#X connect 14 0 52 0;
#X connect 16 0 56 0;
#X connect 17 0 16 0;
#X connect 18 0 17 0;
#X connect 19 0 21 0;
#X connect 20 1 74 1;
#X connect 20 2 75 1;
#X connect 21 0 24 0;
#X connect 21 0 38 0;
#X connect 22 0 19 0;
#X connect 22 1 23 0;
#X connect 23 0 21 1;
#X connect 24 0 21 1;
#X connect 25 0 26 0;
#X connect 26 0 39 0;
#X connect 26 0 57 0;
#X connect 27 0 25 0;
#X connect 27 1 76 0;
#X connect 28 0 63 1;
#X connect 29 0 28 0;
#X connect 30 0 29 0;
#X connect 32 0 25 1;
#X connect 33 0 42 0;
#X connect 33 0 87 0;
#X connect 34 0 14 0;
#X connect 35 0 62 0;
#X connect 36 0 52 0;
#X connect 37 0 36 0;
#X connect 38 0 45 0;
#X connect 38 1 44 1;
#X connect 38 1 77 0;
#X connect 38 2 75 0;
#X connect 39 0 13 0;
#X connect 39 1 78 0;
#X connect 40 0 47 0;
#X connect 42 0 46 0;
#X connect 43 0 42 1;
#X connect 44 0 40 1;
#X connect 44 0 87 1;
#X connect 45 0 33 0;
#X connect 45 1 44 0;
#X connect 46 0 40 0;
#X connect 47 0 41 0;
#X connect 48 0 63 0;
#X connect 49 0 52 1;
#X connect 50 0 52 2;
#X connect 51 0 52 3;
#X connect 52 0 13 1;
#X connect 52 0 3 0;
#X connect 52 0 20 0;
#X connect 53 0 49 0;
#X connect 54 0 73 0;
#X connect 56 0 88 0;
#X connect 56 1 74 0;
#X connect 57 0 26 1;
#X connect 58 0 2 0;
#X connect 59 0 0 0;
#X connect 60 0 65 0;
#X connect 61 0 69 0;
#X connect 61 1 1 0;
#X connect 62 0 34 0;
#X connect 63 0 32 0;
#X connect 65 0 61 0;
#X connect 66 0 60 0;
#X connect 67 0 5 0;
#X connect 68 0 9 0;
#X connect 69 0 4 0;
#X connect 69 1 59 0;
#X connect 69 2 70 0;
#X connect 70 0 0 0;
#X connect 71 0 2 0;
#X connect 73 0 53 0;
#X connect 74 0 22 0;
#X connect 74 0 77 1;
#X connect 74 0 80 0;
#X connect 75 0 27 0;
#X connect 75 0 76 1;
#X connect 75 0 78 1;
#X connect 75 0 79 0;
#X connect 76 0 26 1;
#X connect 77 0 13 2;
#X connect 78 0 13 3;
#X connect 78 0 33 1;
#X connect 79 0 83 0;
#X connect 80 0 85 0;
#X coords 0 -1 1 1 300 100 1 100 100;
