#N canvas 950 234 837 801 10;
#X obj 124 299 gemwin;
#X obj 265 263 pix_video;
#X obj 219 334 pix_texture;
#X obj 98 104 loadbang;
#X msg 337 225 device 1;
#N canvas 154 153 570 420 serin 0;
#X obj 205 60 cnv 20 20 20 empty \$0-open-canvas 1 4 10 0 16 -233017
-1 0;
#X obj 60 61 hradio 18 1 1 8 empty empty empty 0 -6 0 8 -258113 -1
-1 1;
#X obj 60 13 inlet;
#X msg 200 202 label \$1;
#X obj 200 180 makefilename %d;
#X obj 59 108 int;
#X obj 59 337 outlet;
#X msg 201 306 set \$1 \$2;
#X obj 59 266 trigger bang anything;
#X obj 201 286 list;
#X obj 200 225 send \$0-open-canvas;
#X msg 60 210 device \$1;
#X connect 1 0 5 0;
#X connect 2 0 1 0;
#X connect 3 0 10 0;
#X connect 4 0 3 0;
#X connect 5 0 4 0;
#X connect 5 0 11 0;
#X connect 7 0 6 0;
#X connect 8 0 6 0;
#X connect 8 1 9 0;
#X connect 9 0 7 0;
#X connect 11 0 8 0;
#X coords 0 -1 1 1 165 20 1 60 60;
#X restore 217 162 pd serin;
#X obj 463 24 loadbang;
#X obj 531 198 loadbang;
#X obj 97 126 delay 1000;
#X obj 119 602 pix_data;
#X obj 265 286 pix_invert;
#X obj 219 358 rectangle 5.33333 4;
#X obj 176 109 tgl 15 0 empty empty read_pixels 17 7 0 10 -258113 -1
-1 1 1;
#X obj 178 77 loadbang;
#X obj 97 440 until;
#X obj 205 383 pix_info -----------------;
#X obj 97 464 f 0;
#X obj 97 397 t f b;
#X msg 123 419 0;
#X obj 125 466 + 1;
#X obj 241 484 until;
#X obj 241 508 f 0;
#X obj 241 440 t f b;
#X floatatom 217 624 5 0 0 0 - - -;
#X msg 220 602 0;
#X obj 218 580 loadbang;
#X text 257 623 threshold;
#X obj 224 677 select 1;
#X obj 73 665 f;
#X obj 352 266 tgl 15 0 empty empty enable_invert 17 7 0 10 -258113
-1 -1 0 1;
#X obj 396 225 loadbang;
#X obj 478 257 tgl 15 0 empty empty enable 17 7 0 10 -258113 -1 -1
1 1;
#X obj 478 236 loadbang;
#X obj 101 491 t b f b;
#X obj 169 569 t b f f;
#X obj 597 675 pack f f;
#X obj 596 722 print tabwrite;
#X obj 597 631 spigot;
#X obj 631 609 tgl 15 0 empty empty print 17 7 0 10 -258113 -1 -1 0
1;
#X obj 148 701 f;
#X obj 83 631 t b b;
#X obj 597 652 t f;
#X msg 597 697 \$2 \$1;
#N canvas 67 83 450 300 grey 0;
#X obj 216 114 inlet;
#X obj 214 177 +;
#X obj 211 226 +;
#X obj 213 261 outlet;
#X obj 218 139 unpack f f f;
#X connect 0 0 4 0;
#X connect 1 0 2 0;
#X connect 2 0 3 0;
#X connect 4 0 1 0;
#X connect 4 1 1 1;
#X connect 4 2 2 1;
#X restore 141 631 pd grey;
#X msg 307 324 \$1 \$1 \$1;
#X msg 499 267 1 1 1;
#X msg 553 262 0 0 0;
#X obj 217 310 pix_duotone;
#X obj 271 127 hsl 100 15 0 1 0 0 empty empty threshold -2 -8 0 10
-258113 -1 -1 4455 1;
#X obj 269 52 loadbang;
#X text 225 143 Video camera;
#X obj 26 324 t b b;
#X obj 269 510 - 1;
#X obj 236 200 gemhead 50;
#X msg 396 244 0;
#X obj 188 653 > 0;
#X text 221 696 If > thresh stop looping on Y and write to table at
X position;
#X msg 100 151 1;
#X msg 486 97 0;
#X msg 463 46 dimen 640 480;
#X text 512 98 device /dev/video0;
#X msg 269 77 0.45;
#X obj 97 374 f 640;
#X obj 241 415 f 480;
#X obj 306 481 f 480;
#X obj 117 555 / 640;
#X obj 408 478 vanilla.change;
#X obj -55 479 vanilla.change;
#X text 469 359 FIXME: should we be able to resize this table?;
#X obj 464 381 table \$1-array 640;
#X obj 421 505 s \$1-height;
#X obj 421 526 r \$1-height;
#X obj -56 506 s \$1-width;
#X obj -55 527 r \$1-width;
#X obj 83 737 tabwrite \$1-array;
#X obj -1 361 s \$1-refresh;
#X obj -1 387 r \$1-refresh;
#X obj -65 118 gemkeyboard;
#X obj -66 141 select 9;
#X text -7 143 Escape;
#X obj 173 134 tgl 15 0 empty empty fullscreen 17 7 0 10 -258113 -1
-1 0 1;
#X obj -59 -7 sel 0 1;
#X msg -56 24 0 \, destroy \, dimen 1280 1024 \, offset 0 0 \, border
0 \, cursor 0 \, create \, 1;
#X msg -8 2 0 \, destroy \, dimen 640 480 \, fullscreen 0 \, border
1 \, cursor 1 \, create \, 1;
#X obj 24 292 spigot;
#X obj 231 227 t b a;
#X obj 0 899 r \$1-refresh;
#X obj 145 237 f 5;
#X msg 145 269 frame \$1;
#X obj 1 979 net.send localhost 31337;
#X obj 1 1001 tgl 15 0 empty empty empty 17 7 0 10 -1 -258113 -1 1
1;
#X obj 52 954 tgl 15 0 empty empty empty 17 7 0 10 -258113 -1 -1 0
1;
#X obj 187 599 / 480;
#N canvas 1 116 484 669 DRAW_LINE 0;
#X obj 219 389 f 0;
#X obj 257 394 + 1;
#X text 211 300 table length;
#X obj 152 201 t a b;
#X msg 252 367 0;
#X obj 139 325 t a b;
#X obj 85 539 translateXYZ;
#X obj 278 56 inlet;
#X obj 152 166 spigot;
#X obj 148 98 gemhead 100;
#X obj 136 288 separator;
#X text 328 52 enabled;
#X obj 84 562 color 0.5 0.5 0.5;
#X obj 136 255 repeat 640;
#X obj 210 218 r \$0-width;
#X obj 214 432 tabread \$1-array;
#X obj 123 467 vanilla.scale.linear 0 640 -5.33333 5.33333;
#X obj 378 408 r \$0-height;
#X obj 385 239 r \$0-width;
#X obj 164 499 vanilla.scale.linear 0 480 -4 4;
#X obj 84 588 rectangle 0.1 0.1;
#X connect 0 0 1 0;
#X connect 0 0 15 0;
#X connect 0 0 16 0;
#X connect 1 0 0 1;
#X connect 3 0 13 0;
#X connect 3 1 4 0;
#X connect 4 0 0 1;
#X connect 5 0 6 0;
#X connect 5 1 0 0;
#X connect 6 0 12 0;
#X connect 7 0 8 1;
#X connect 8 0 3 0;
#X connect 9 0 8 0;
#X connect 10 0 5 0;
#X connect 12 0 20 0;
#X connect 13 0 10 0;
#X connect 14 0 13 1;
#X connect 15 0 19 0;
#X connect 16 0 6 1;
#X connect 17 0 19 2;
#X connect 18 0 16 2;
#X connect 19 0 6 2;
#X restore 515 864 pd DRAW_LINE;
#X obj 515 838 tgl 15 0 empty empty empty 17 7 0 10 -258113 -1 -1 1
1;
#X obj 511 814 loadbang;
#X obj 285 769 net.send localhost 31336;
#X obj 292 735 pack f f;
#X text 442 768 to tabwrite;
#X obj 175 850 t b f;
#X obj 173 820 r \$1-height;
#X obj 103 819 r \$1-width;
#X msg 103 923 size \$1 \$2;
#X msg 0 923 refresh;
#X obj 103 899 pack 640 480;
#X obj 286 795 tgl 15 0 empty empty empty 17 7 0 10 -1 -258113 -1 1
1;
#X obj 362 743 tgl 15 0 empty empty empty 17 7 0 10 -258113 -1 -1 0
1;
#X connect 1 0 10 0;
#X connect 2 0 11 0;
#X connect 3 0 8 0;
#X connect 3 0 87 0;
#X connect 4 0 1 0;
#X connect 5 0 4 0;
#X connect 6 0 59 0;
#X connect 6 0 58 0;
#X connect 7 0 45 0;
#X connect 7 0 46 0;
#X connect 8 0 57 0;
#X connect 9 1 43 0;
#X connect 10 0 47 0;
#X connect 12 0 84 1;
#X connect 13 0 12 0;
#X connect 14 0 16 0;
#X connect 15 1 62 1;
#X connect 15 2 63 1;
#X connect 16 0 19 0;
#X connect 16 0 33 0;
#X connect 17 0 14 0;
#X connect 17 1 18 0;
#X connect 18 0 16 1;
#X connect 19 0 16 1;
#X connect 20 0 21 0;
#X connect 21 0 34 0;
#X connect 21 0 52 0;
#X connect 22 0 20 0;
#X connect 22 1 64 0;
#X connect 23 0 55 1;
#X connect 24 0 23 0;
#X connect 25 0 24 0;
#X connect 27 0 20 1;
#X connect 28 0 37 0;
#X connect 28 0 74 0;
#X connect 28 0 97 0;
#X connect 29 0 10 0;
#X connect 30 0 54 0;
#X connect 31 0 47 0;
#X connect 32 0 31 0;
#X connect 33 0 40 0;
#X connect 33 1 39 1;
#X connect 33 1 65 0;
#X connect 33 2 63 0;
#X connect 34 0 9 0;
#X connect 34 1 92 0;
#X connect 34 1 28 1;
#X connect 35 0 42 0;
#X connect 37 0 41 0;
#X connect 38 0 37 1;
#X connect 39 0 35 1;
#X connect 39 0 74 1;
#X connect 39 0 97 1;
#X connect 40 0 28 0;
#X connect 40 1 39 0;
#X connect 41 0 35 0;
#X connect 42 0 36 0;
#X connect 43 0 55 0;
#X connect 44 0 47 1;
#X connect 45 0 47 2;
#X connect 46 0 47 3;
#X connect 47 0 9 1;
#X connect 47 0 2 0;
#X connect 47 0 15 0;
#X connect 48 0 44 0;
#X connect 49 0 61 0;
#X connect 51 0 75 0;
#X connect 51 1 62 0;
#X connect 52 0 21 1;
#X connect 53 0 85 0;
#X connect 54 0 29 0;
#X connect 55 0 27 0;
#X connect 57 0 80 0;
#X connect 58 0 5 0;
#X connect 59 0 1 0;
#X connect 61 0 48 0;
#X connect 62 0 17 0;
#X connect 62 0 65 1;
#X connect 62 0 67 0;
#X connect 63 0 22 0;
#X connect 63 0 64 1;
#X connect 63 0 66 0;
#X connect 63 0 92 1;
#X connect 64 0 21 1;
#X connect 65 0 9 2;
#X connect 66 0 70 0;
#X connect 67 0 72 0;
#X connect 77 0 78 0;
#X connect 78 0 80 0;
#X connect 80 0 81 0;
#X connect 81 0 83 0;
#X connect 81 1 82 0;
#X connect 82 0 0 0;
#X connect 83 0 0 0;
#X connect 84 0 51 0;
#X connect 85 0 84 0;
#X connect 85 1 1 0;
#X connect 86 0 103 0;
#X connect 87 0 88 0;
#X connect 88 0 0 0;
#X connect 89 0 90 0;
#X connect 91 0 89 1;
#X connect 92 0 9 3;
#X connect 94 0 93 0;
#X connect 95 0 94 0;
#X connect 96 0 105 0;
#X connect 97 0 96 0;
#X connect 99 0 104 0;
#X connect 99 1 104 1;
#X connect 100 0 99 0;
#X connect 101 0 104 0;
#X connect 102 0 89 0;
#X connect 103 0 89 0;
#X connect 104 0 102 0;
#X connect 106 0 96 1;
#X coords 0 -1 1 1 300 100 1 100 100;
