#N canvas 436 261 1085 779 10;
#X obj 66 54 gemkeyboard;
#X obj 502 58 key;
#X obj 859 397 outlet;
#X obj 504 152 select 48 49 50 51 52 53 54 55 56 57;
#X msg 504 177 _0;
#X obj 504 214 t a;
#X msg 536 179 _1;
#X msg 567 179 _2;
#X msg 598 181 _3;
#X msg 629 180 _4;
#X msg 661 182 _5;
#X msg 692 182 _6;
#X msg 723 184 _7;
#X msg 758 186 _8;
#X msg 790 189 _9;
#X msg 60 138 _0;
#X obj 60 175 t a;
#X msg 92 140 _1;
#X msg 123 140 _2;
#X msg 154 142 _3;
#X msg 185 141 _4;
#X msg 217 143 _5;
#X msg 248 143 _6;
#X msg 279 145 _7;
#X msg 314 147 _8;
#X msg 346 150 _9;
#X obj 60 114 select 19 10 11 12 13 14 15 16 17 18;
#X obj 61 200 s \$0-out;
#X obj 855 310 r \$0-out;
#X symbolatom 1001 370 10 0 0 0 - - -;
#X obj 1001 348 symbol;
#X obj 504 238 s \$0-out;
#X msg 64 258 _0;
#X obj 64 295 t a;
#X msg 96 260 _1;
#X msg 127 260 _2;
#X msg 158 262 _3;
#X msg 189 261 _4;
#X msg 221 263 _5;
#X msg 252 263 _6;
#X msg 283 265 _7;
#X msg 318 267 _8;
#X msg 350 270 _9;
#X obj 64 234 select 19 10 11 12 13 14 15 16 17 18;
#X obj 65 320 s \$0-out;
#X obj 25 579 t a;
#X obj 26 604 s \$0-out;
#X obj 23 711 t a;
#X obj 24 736 s \$0-out;
#X obj 32 447 t a;
#X obj 33 472 s \$0-out;
#X obj 35 366 select 38 56 54 40 26 41 42 43 31 44;
#X obj 28 498 select 45 46 58 57 32 33 24 27 39 28;
#X obj 26 630 select 30 55 25 53 29 52;
#X msg 32 410 a;
#X msg 64 412 b;
#X msg 95 412 c;
#X msg 126 414 d;
#X msg 157 413 e;
#X msg 189 415 f;
#X msg 220 415 g;
#X msg 251 417 h;
#X msg 286 419 i;
#X msg 318 422 j;
#X msg 25 542 k;
#X msg 57 544 l;
#X msg 88 544 m;
#X msg 119 546 n;
#X msg 150 545 o;
#X msg 182 547 p;
#X msg 213 547 q;
#X msg 244 549 r;
#X msg 280 551 s;
#X msg 311 554 t;
#X msg 23 674 u;
#X msg 55 676 v;
#X msg 86 676 w;
#X msg 117 678 x;
#X msg 148 677 y;
#X msg 180 679 z;
#X obj 490 483 t a;
#X obj 491 508 s \$0-out;
#X obj 488 615 t a;
#X obj 497 351 t a;
#X obj 498 376 s \$0-out;
#X msg 497 314 a;
#X msg 529 316 b;
#X msg 560 316 c;
#X msg 591 318 d;
#X msg 622 317 e;
#X msg 654 319 f;
#X msg 685 319 g;
#X msg 716 321 h;
#X msg 751 323 i;
#X msg 783 326 j;
#X msg 490 446 k;
#X msg 522 448 l;
#X msg 553 448 m;
#X msg 584 450 n;
#X msg 615 449 o;
#X msg 647 451 p;
#X msg 678 451 q;
#X msg 709 453 r;
#X msg 745 455 s;
#X msg 776 458 t;
#X msg 488 578 u;
#X msg 520 580 v;
#X msg 551 580 w;
#X msg 582 582 x;
#X msg 613 581 y;
#X msg 645 583 z;
#X obj 500 270 select 97 98 99 100 101 102 103 104 105 106;
#X obj 493 402 select 107 108 109 110 111 112 113 114 115 116;
#X obj 491 534 select 117 118 119 120 121 122;
#X obj 489 642 s \$0-out;
#X obj 723 630 t a;
#X obj 724 657 s \$0-out;
#X obj 723 585 select 27;
#X msg 723 606 Escape;
#X obj 255 685 t a;
#X obj 256 712 s \$0-out;
#X msg 255 661 Escape;
#X obj 255 640 select 9;
#X obj 951 319 spigot;
#X obj 969 276 tgl 15 0 empty empty empty 17 7 0 10 -258113 -1 -1 0
1;
#X obj 512 107 spigot;
#X obj 530 64 tgl 15 0 empty empty empty 17 7 0 10 -258113 -1 -1 1
1;
#X obj 91 89 spigot;
#X obj 694 94 loadbang;
#X msg 695 120 1;
#X obj 627 39 inlet;
#X obj 852 359 symbol;
#X connect 0 0 127 0;
#X connect 1 0 125 0;
#X connect 3 0 4 0;
#X connect 3 1 6 0;
#X connect 3 2 7 0;
#X connect 3 3 8 0;
#X connect 3 4 9 0;
#X connect 3 5 10 0;
#X connect 3 6 11 0;
#X connect 3 7 12 0;
#X connect 3 8 13 0;
#X connect 3 9 14 0;
#X connect 3 10 111 0;
#X connect 4 0 5 0;
#X connect 5 0 31 0;
#X connect 6 0 5 0;
#X connect 7 0 5 0;
#X connect 8 0 5 0;
#X connect 9 0 5 0;
#X connect 10 0 5 0;
#X connect 11 0 5 0;
#X connect 12 0 5 0;
#X connect 13 0 5 0;
#X connect 14 0 5 0;
#X connect 15 0 16 0;
#X connect 16 0 27 0;
#X connect 17 0 16 0;
#X connect 18 0 16 0;
#X connect 19 0 16 0;
#X connect 20 0 16 0;
#X connect 21 0 16 0;
#X connect 22 0 16 0;
#X connect 23 0 16 0;
#X connect 24 0 16 0;
#X connect 25 0 16 0;
#X connect 26 0 15 0;
#X connect 26 1 17 0;
#X connect 26 2 18 0;
#X connect 26 3 19 0;
#X connect 26 4 20 0;
#X connect 26 5 21 0;
#X connect 26 6 22 0;
#X connect 26 7 23 0;
#X connect 26 8 24 0;
#X connect 26 9 25 0;
#X connect 26 10 43 0;
#X connect 28 0 123 0;
#X connect 28 0 131 0;
#X connect 30 0 29 0;
#X connect 32 0 33 0;
#X connect 33 0 44 0;
#X connect 34 0 33 0;
#X connect 35 0 33 0;
#X connect 36 0 33 0;
#X connect 37 0 33 0;
#X connect 38 0 33 0;
#X connect 39 0 33 0;
#X connect 40 0 33 0;
#X connect 41 0 33 0;
#X connect 42 0 33 0;
#X connect 43 0 32 0;
#X connect 43 1 34 0;
#X connect 43 2 35 0;
#X connect 43 3 36 0;
#X connect 43 4 37 0;
#X connect 43 5 38 0;
#X connect 43 6 39 0;
#X connect 43 7 40 0;
#X connect 43 8 41 0;
#X connect 43 9 42 0;
#X connect 43 10 51 0;
#X connect 45 0 46 0;
#X connect 47 0 48 0;
#X connect 49 0 50 0;
#X connect 51 0 54 0;
#X connect 51 1 55 0;
#X connect 51 2 56 0;
#X connect 51 3 57 0;
#X connect 51 4 58 0;
#X connect 51 5 59 0;
#X connect 51 6 60 0;
#X connect 51 7 61 0;
#X connect 51 8 62 0;
#X connect 51 9 63 0;
#X connect 51 10 52 0;
#X connect 52 0 64 0;
#X connect 52 1 65 0;
#X connect 52 2 66 0;
#X connect 52 3 67 0;
#X connect 52 4 68 0;
#X connect 52 5 69 0;
#X connect 52 6 70 0;
#X connect 52 7 71 0;
#X connect 52 8 72 0;
#X connect 52 9 73 0;
#X connect 52 10 53 0;
#X connect 53 0 74 0;
#X connect 53 1 75 0;
#X connect 53 2 76 0;
#X connect 53 3 77 0;
#X connect 53 4 78 0;
#X connect 53 5 79 0;
#X connect 53 6 122 0;
#X connect 54 0 49 0;
#X connect 55 0 49 0;
#X connect 56 0 49 0;
#X connect 57 0 49 0;
#X connect 58 0 49 0;
#X connect 59 0 49 0;
#X connect 60 0 49 0;
#X connect 61 0 49 0;
#X connect 62 0 49 0;
#X connect 63 0 49 0;
#X connect 64 0 45 0;
#X connect 65 0 45 0;
#X connect 66 0 45 0;
#X connect 67 0 45 0;
#X connect 68 0 45 0;
#X connect 69 0 45 0;
#X connect 70 0 45 0;
#X connect 71 0 45 0;
#X connect 72 0 45 0;
#X connect 73 0 45 0;
#X connect 74 0 47 0;
#X connect 75 0 47 0;
#X connect 76 0 47 0;
#X connect 77 0 47 0;
#X connect 78 0 47 0;
#X connect 79 0 47 0;
#X connect 80 0 81 0;
#X connect 82 0 114 0;
#X connect 83 0 84 0;
#X connect 85 0 83 0;
#X connect 86 0 83 0;
#X connect 87 0 83 0;
#X connect 88 0 83 0;
#X connect 89 0 83 0;
#X connect 90 0 83 0;
#X connect 91 0 83 0;
#X connect 92 0 83 0;
#X connect 93 0 83 0;
#X connect 94 0 83 0;
#X connect 95 0 80 0;
#X connect 96 0 80 0;
#X connect 97 0 80 0;
#X connect 98 0 80 0;
#X connect 99 0 80 0;
#X connect 100 0 80 0;
#X connect 101 0 80 0;
#X connect 102 0 80 0;
#X connect 103 0 80 0;
#X connect 104 0 80 0;
#X connect 105 0 82 0;
#X connect 106 0 82 0;
#X connect 107 0 82 0;
#X connect 108 0 82 0;
#X connect 109 0 82 0;
#X connect 110 0 82 0;
#X connect 111 0 85 0;
#X connect 111 1 86 0;
#X connect 111 2 87 0;
#X connect 111 3 88 0;
#X connect 111 4 89 0;
#X connect 111 5 90 0;
#X connect 111 6 91 0;
#X connect 111 7 92 0;
#X connect 111 8 93 0;
#X connect 111 9 94 0;
#X connect 111 10 112 0;
#X connect 112 0 95 0;
#X connect 112 1 96 0;
#X connect 112 2 97 0;
#X connect 112 3 98 0;
#X connect 112 4 99 0;
#X connect 112 5 100 0;
#X connect 112 6 101 0;
#X connect 112 7 102 0;
#X connect 112 8 103 0;
#X connect 112 9 104 0;
#X connect 112 10 113 0;
#X connect 113 0 105 0;
#X connect 113 1 106 0;
#X connect 113 2 107 0;
#X connect 113 3 108 0;
#X connect 113 4 109 0;
#X connect 113 5 110 0;
#X connect 113 6 117 0;
#X connect 115 0 116 0;
#X connect 117 0 118 0;
#X connect 118 0 115 0;
#X connect 119 0 120 0;
#X connect 121 0 119 0;
#X connect 122 0 121 0;
#X connect 123 0 30 0;
#X connect 124 0 123 1;
#X connect 125 0 3 0;
#X connect 126 0 125 1;
#X connect 126 0 127 1;
#X connect 127 0 26 0;
#X connect 128 0 129 0;
#X connect 129 0 126 0;
#X connect 130 0 126 0;
#X connect 131 0 2 0;
