#N canvas 770 365 858 639 10;
#X obj 278 239 vanilla.write.wav~;
#X msg 77 449 \; pd dsp \$1;
#X obj 105 225 tgl 50 0 empty empty compute_audio 17 7 0 10 -258113
-1 -1 1 1;
#X obj 240 167 loadbang;
#X obj 134 102 dbtorms;
#X obj 133 79 + 100;
#X obj 212 233 vsl 15 50 -100 0 0 0 empty empty Master_volume 0 -9
0 10 -258113 -1 -1 4900 1;
#X obj 367 83 loadbang;
#X obj 61 138 *~ 0;
#X text 140 292 volume (dB);
#X obj 184 141 *~ 0;
#X obj 13 341 dac~;
#X obj 212 293 nbx 5 14 -1e+37 1e+37 0 0 empty empty empty 0 -8 0 10
-262144 -1 -1 0 256;
#X text 280 221 save to file;
#X obj 236 36 catch~ \$1-right;
#X obj 54 40 catch~ \$1-left;
#X msg 368 112 0;
#X obj 633 243 list split 2;
#X obj 721 290 list.drip;
#X obj 609 276 unpack f f;
#X obj 464 195 t b a;
#X floatatom 622 302 5 0 0 0 - - -;
#X floatatom 657 307 5 0 0 0 - - -;
#X obj 499 256 spigot;
#X obj 535 234 tgl 15 0 empty empty print 17 7 0 10 -258113 -1 -1 0
1;
#X obj 505 277 print TO;
#X obj 416 260 spigot;
#X obj 452 238 tgl 15 0 empty empty print 17 7 0 10 -258113 -1 -1 0
1;
#X obj 415 280 t b;
#X obj 410 303 print TO;
#X obj 473 42 netreceive 31337;
#X obj 726 354 table \$1-array 640;
#X obj 431 365 f 640;
#X obj 575 406 f 480;
#X obj 742 469 vanilla.change;
#X obj 279 470 vanilla.change;
#X obj 755 496 s \$1-height;
#X obj 755 517 r \$1-height;
#X obj 278 497 s \$1-width;
#X obj 279 518 r \$1-width;
#X obj 334 446 value \$0-width;
#X obj 770 442 value \$0-height;
#X obj 518 343 loadbang;
#X obj 498 557 print enabled;
#X obj 631 39 netreceive 31338;
#X floatatom 339 293 5 0 0 0 Toy - -;
#X obj 726 326 tabwrite \$1-array;
#X obj 604 210 spigot;
#X obj 640 188 tgl 15 0 empty empty empty 17 7 0 10 -258113 -1 -1 1
1;
#X obj 643 157 loadbang;
#X obj 521 520 r \$1-enabled;
#X obj 631 100 s \$1-enabled;
#X obj 737 99 print AUDIO-toy;
#X connect 2 0 1 0;
#X connect 3 0 2 0;
#X connect 4 0 8 1;
#X connect 5 0 4 0;
#X connect 6 0 5 0;
#X connect 6 0 12 0;
#X connect 7 0 16 0;
#X connect 8 0 0 0;
#X connect 8 0 11 0;
#X connect 10 0 0 1;
#X connect 10 0 11 1;
#X connect 14 0 10 0;
#X connect 15 0 8 0;
#X connect 16 0 6 0;
#X connect 17 0 19 0;
#X connect 17 1 18 0;
#X connect 18 0 46 0;
#X connect 18 1 46 1;
#X connect 19 0 21 0;
#X connect 19 0 32 0;
#X connect 19 1 22 0;
#X connect 19 1 33 0;
#X connect 20 0 26 0;
#X connect 20 1 23 0;
#X connect 20 1 47 0;
#X connect 23 0 25 0;
#X connect 24 0 23 1;
#X connect 26 0 28 0;
#X connect 27 0 26 1;
#X connect 28 0 29 0;
#X connect 30 0 20 0;
#X connect 32 0 35 0;
#X connect 32 0 40 0;
#X connect 33 0 34 0;
#X connect 33 0 41 0;
#X connect 34 0 36 0;
#X connect 35 0 38 0;
#X connect 42 0 32 0;
#X connect 42 0 33 0;
#X connect 44 0 51 0;
#X connect 44 0 52 0;
#X connect 47 0 17 0;
#X connect 48 0 47 1;
#X connect 49 0 48 0;
#X connect 50 0 43 0;
#X connect 50 0 45 0;
#X coords 0 -1 1 1 300 110 1 100 200;
