#N canvas 183 367 858 403 10;
#X obj 278 239 vanilla.write.wav~;
#X msg 107 325 \; pd dsp \$1;
#X obj 105 225 tgl 50 0 empty empty compute_audio 17 7 0 10 -258113
-1 -1 1 1;
#X obj 240 167 loadbang;
#X obj 134 102 dbtorms;
#X obj 133 79 + 100;
#X obj 212 233 vsl 15 50 -100 0 0 0 empty empty Master_volume 0 -9
0 10 -258113 -1 -1 4900 1;
#X obj 232 99 loadbang;
#X obj 61 138 *~ 0;
#X text 140 292 volume (dB);
#X obj 184 141 *~ 0;
#X obj 13 341 dac~;
#X obj 212 293 nbx 5 14 -1e+37 1e+37 0 0 empty empty empty 0 -8 0 10
-262144 -1 -1 0 256;
#X text 280 221 save to file;
#X obj 184 45 catch~ \$1-right;
#X obj 54 40 catch~ \$1-left;
#X msg 233 128 0;
#X obj 436 43 netreceive 31337;
#X obj 726 354 table \$1-array 640;
#X obj 511 239 f 640;
#X obj 620 243 f 480;
#X obj 621 293 vanilla.change;
#X obj 510 287 vanilla.change;
#X obj 621 315 s \$1-height;
#X obj 621 336 r \$1-height;
#X obj 509 314 s \$1-width;
#X obj 510 335 r \$1-width;
#X obj 515 263 value \$0-width;
#X obj 621 269 value \$0-height;
#X obj 596 197 loadbang;
#X obj 390 295 print enabled;
#X obj 631 39 netreceive 31338;
#X floatatom 339 293 5 0 0 0 Toy - -;
#X obj 726 326 tabwrite \$1-array;
#X obj 413 258 r \$1-enabled;
#X obj 628 132 s \$1-enabled;
#X obj 716 86 print AUDIO-toy;
#X obj 641 82 loadbang;
#X msg 641 108 1;
#X obj 728 234 netreceive 31336;
#X obj 726 261 unpack f f;
#X obj 519 195 unpack f f;
#X obj 436 194 s \$1-refresh;
#X obj 437 169 t b;
#X obj 437 74 route refresh size;
#X connect 2 0 1 0;
#X connect 3 0 2 0;
#X connect 4 0 8 1;
#X connect 4 0 10 1;
#X connect 5 0 4 0;
#X connect 6 0 5 0;
#X connect 6 0 12 0;
#X connect 7 0 16 0;
#X connect 8 0 0 0;
#X connect 8 0 11 0;
#X connect 10 0 0 1;
#X connect 10 0 11 1;
#X connect 14 0 10 0;
#X connect 15 0 8 0;
#X connect 16 0 6 0;
#X connect 17 0 44 0;
#X connect 19 0 22 0;
#X connect 19 0 27 0;
#X connect 20 0 21 0;
#X connect 20 0 28 0;
#X connect 21 0 23 0;
#X connect 22 0 25 0;
#X connect 29 0 19 0;
#X connect 29 0 20 0;
#X connect 31 0 35 0;
#X connect 31 0 36 0;
#X connect 34 0 30 0;
#X connect 34 0 32 0;
#X connect 37 0 38 0;
#X connect 38 0 35 0;
#X connect 39 0 40 0;
#X connect 40 0 33 0;
#X connect 40 1 33 1;
#X connect 41 0 19 0;
#X connect 41 1 20 0;
#X connect 43 0 42 0;
#X connect 44 0 43 0;
#X connect 44 1 41 0;
#X coords 0 -1 1 1 300 110 1 100 200;
