#N canvas 66 107 1438 416 10;
#X obj 149 126 osc~;
#X obj 149 101 * 2;
#X obj 149 180 *~;
#X obj 166 154 line~;
#X msg 186 127 \$1 5;
#X obj 227 128 osc~;
#X obj 227 182 *~;
#X obj 244 156 line~;
#X msg 264 129 \$1 5;
#X obj 71 126 osc~;
#X obj 71 180 *~;
#X obj 88 154 line~;
#X msg 108 127 \$1 5;
#X obj 381 128 osc~;
#X obj 381 182 *~;
#X obj 398 156 line~;
#X msg 418 129 \$1 5;
#X obj 459 130 osc~;
#X obj 459 184 *~;
#X obj 476 158 line~;
#X msg 496 131 \$1 5;
#X obj 303 128 osc~;
#X obj 303 182 *~;
#X obj 320 156 line~;
#X msg 340 129 \$1 5;
#X obj 612 133 osc~;
#X obj 612 187 *~;
#X obj 629 161 line~;
#X msg 649 134 \$1 5;
#X obj 690 135 osc~;
#X obj 690 189 *~;
#X obj 707 163 line~;
#X msg 727 136 \$1 5;
#X obj 534 133 osc~;
#X obj 534 187 *~;
#X obj 551 161 line~;
#X msg 571 134 \$1 5;
#X obj 844 135 osc~;
#X obj 844 189 *~;
#X obj 861 163 line~;
#X msg 881 136 \$1 5;
#X obj 922 137 osc~;
#X obj 922 191 *~;
#X obj 939 165 line~;
#X msg 959 138 \$1 5;
#X obj 766 135 osc~;
#X obj 766 189 *~;
#X obj 783 163 line~;
#X msg 803 136 \$1 5;
#X obj 76 -14 inlet;
#X obj 71 101 * 1;
#X obj 65 341 outlet~;
#X obj 227 103 * 3;
#X obj 303 103 * 4;
#X obj 381 103 * 5;
#X obj 459 105 * 6;
#X obj 534 108 * 7;
#X obj 612 108 * 8;
#X obj 690 110 * 9;
#X obj 766 110 * 10;
#X obj 844 110 * 11;
#X obj 922 112 * 12;
#X obj 661 10 inlet;
#X obj 999 137 osc~;
#X obj 999 191 *~;
#X obj 1016 165 line~;
#X msg 1036 138 \$1 5;
#X obj 1077 139 osc~;
#X obj 1077 193 *~;
#X obj 1094 167 line~;
#X msg 1114 140 \$1 5;
#X obj 1231 139 osc~;
#X obj 1231 193 *~;
#X obj 1248 167 line~;
#X msg 1268 140 \$1 5;
#X obj 1309 141 osc~;
#X obj 1309 195 *~;
#X obj 1326 169 line~;
#X msg 1346 142 \$1 5;
#X obj 1153 139 osc~;
#X obj 1153 193 *~;
#X obj 1170 167 line~;
#X msg 1190 140 \$1 5;
#X obj 661 34 unpack 0 0 0 0 0 0 0 0 0 0 0 0 0 0 0 0 0;
#X obj 76 30 t f f f f f f f f f f f f f f f f f;
#X obj 1058 3 inlet;
#X obj 1058 27 route 0 1 2 3 4 5 6 7 8 9 10 11 12 13 14 15 16;
#X obj 999 112 * 13;
#X obj 1077 114 * 14;
#X obj 1153 114 * 15;
#X obj 1232 114 * 16;
#X obj 1309 116 * 17;
#X obj 68 245 +~;
#X obj 69 310 *~ 0.125;
#X connect 0 0 2 0;
#X connect 1 0 0 0;
#X connect 2 0 92 0;
#X connect 3 0 2 1;
#X connect 4 0 3 0;
#X connect 5 0 6 0;
#X connect 6 0 92 0;
#X connect 7 0 6 1;
#X connect 8 0 7 0;
#X connect 9 0 10 0;
#X connect 10 0 92 0;
#X connect 11 0 10 1;
#X connect 12 0 11 0;
#X connect 13 0 14 0;
#X connect 14 0 92 0;
#X connect 15 0 14 1;
#X connect 16 0 15 0;
#X connect 17 0 18 0;
#X connect 18 0 92 0;
#X connect 19 0 18 1;
#X connect 20 0 19 0;
#X connect 21 0 22 0;
#X connect 22 0 92 0;
#X connect 23 0 22 1;
#X connect 24 0 23 0;
#X connect 25 0 26 0;
#X connect 26 0 92 0;
#X connect 27 0 26 1;
#X connect 28 0 27 0;
#X connect 29 0 30 0;
#X connect 30 0 92 0;
#X connect 31 0 30 1;
#X connect 32 0 31 0;
#X connect 33 0 34 0;
#X connect 34 0 92 0;
#X connect 35 0 34 1;
#X connect 36 0 35 0;
#X connect 37 0 38 0;
#X connect 38 0 92 0;
#X connect 39 0 38 1;
#X connect 40 0 39 0;
#X connect 41 0 42 0;
#X connect 42 0 92 0;
#X connect 43 0 42 1;
#X connect 44 0 43 0;
#X connect 45 0 46 0;
#X connect 46 0 92 0;
#X connect 47 0 46 1;
#X connect 48 0 47 0;
#X connect 49 0 84 0;
#X connect 50 0 9 0;
#X connect 52 0 5 0;
#X connect 53 0 21 0;
#X connect 54 0 13 0;
#X connect 55 0 17 0;
#X connect 56 0 33 0;
#X connect 57 0 25 0;
#X connect 58 0 29 0;
#X connect 59 0 45 0;
#X connect 60 0 37 0;
#X connect 61 0 41 0;
#X connect 62 0 83 0;
#X connect 63 0 64 0;
#X connect 64 0 92 0;
#X connect 65 0 64 1;
#X connect 66 0 65 0;
#X connect 67 0 68 0;
#X connect 68 0 92 0;
#X connect 69 0 68 1;
#X connect 70 0 69 0;
#X connect 71 0 72 0;
#X connect 72 0 92 0;
#X connect 73 0 72 1;
#X connect 74 0 73 0;
#X connect 75 0 76 0;
#X connect 76 0 92 0;
#X connect 77 0 76 1;
#X connect 78 0 77 0;
#X connect 79 0 80 0;
#X connect 80 0 92 0;
#X connect 81 0 80 1;
#X connect 82 0 81 0;
#X connect 83 0 12 0;
#X connect 83 1 4 0;
#X connect 83 2 8 0;
#X connect 83 3 24 0;
#X connect 83 4 16 0;
#X connect 83 5 20 0;
#X connect 83 6 36 0;
#X connect 83 7 28 0;
#X connect 83 8 32 0;
#X connect 83 9 48 0;
#X connect 83 10 40 0;
#X connect 83 11 44 0;
#X connect 83 12 87 1;
#X connect 83 13 88 1;
#X connect 83 14 89 1;
#X connect 83 15 90 1;
#X connect 83 16 91 1;
#X connect 84 0 50 0;
#X connect 84 1 1 0;
#X connect 84 2 52 0;
#X connect 84 3 53 0;
#X connect 84 4 54 0;
#X connect 84 5 55 0;
#X connect 84 6 56 0;
#X connect 84 7 57 0;
#X connect 84 8 58 0;
#X connect 84 9 59 0;
#X connect 84 10 60 0;
#X connect 84 11 61 0;
#X connect 84 12 87 0;
#X connect 84 13 88 0;
#X connect 84 14 89 0;
#X connect 84 15 90 0;
#X connect 84 16 91 0;
#X connect 85 0 86 0;
#X connect 86 0 12 0;
#X connect 86 1 4 0;
#X connect 86 2 8 0;
#X connect 86 3 24 0;
#X connect 86 4 16 0;
#X connect 86 5 20 0;
#X connect 86 6 36 0;
#X connect 86 7 28 0;
#X connect 86 8 32 0;
#X connect 86 9 48 0;
#X connect 86 10 40 0;
#X connect 86 11 44 0;
#X connect 86 12 66 0;
#X connect 86 13 70 0;
#X connect 86 14 82 0;
#X connect 86 15 74 0;
#X connect 86 16 78 0;
#X connect 87 0 63 0;
#X connect 88 0 67 0;
#X connect 89 0 79 0;
#X connect 90 0 71 0;
#X connect 91 0 75 0;
#X connect 92 0 93 0;
#X connect 93 0 51 0;
