#N canvas 628 154 669 355 10;
#X obj 38 265 *~ 0.2;
#X obj 39 314 dac~;
#X obj 109 257 vsl 15 50 0 1 0 0 empty empty empty 0 -9 0 10 -258113
-1 -1 1200 1;
#X obj 38 179 synth.additive~;
#N canvas 0 0 450 300 (subpatch) 0;
#X array \$0-harmonics 17 float 0;
#X coords 0 1 16 0 200 140 1 0 0;
#X restore 435 176 graph;
#X obj 234 160 f 0;
#X obj 270 160 + 1;
#X obj 234 136 until;
#X obj 270 186 % 17;
#X obj 345 173 select 0;
#X obj 185 296 pack f f;
#X obj 192 187 t f f;
#X msg 185 318 \$2 \$1;
#X obj 185 266 tabread \$0-harmonics;
#X obj 38 110 loadbang;
#X obj 38 156 mtof;
#X msg 38 133 48;
#X text 36 22 Description: Additive synthesis with 17 osc~;
#X obj 282 88 tgl 15 0 empty empty empty 17 7 0 10 -258113 -1 -1 1
1;
#X obj 234 65 loadbang;
#X obj 234 111 metro 50;
#X connect 0 0 1 0;
#X connect 0 0 1 1;
#X connect 2 0 0 1;
#X connect 3 0 0 0;
#X connect 5 0 6 0;
#X connect 5 0 11 0;
#X connect 6 0 8 0;
#X connect 7 0 5 0;
#X connect 8 0 9 0;
#X connect 8 0 5 1;
#X connect 9 0 7 1;
#X connect 10 0 12 0;
#X connect 11 0 13 0;
#X connect 11 1 10 1;
#X connect 12 0 3 2;
#X connect 13 0 10 0;
#X connect 14 0 16 0;
#X connect 15 0 3 0;
#X connect 16 0 15 0;
#X connect 18 0 20 0;
#X connect 19 0 18 0;
#X connect 20 0 7 0;
