#N canvas 97 255 846 615 10;
#X obj 111 138 tgl 15 0 empty empty enabled 17 7 0 10 -258113 -1 -1
0 1;
#X obj 559 86 spigot;
#X obj 562 218 vanilla.table.transfer;
#X obj 565 127 t b b b;
#X obj 41 222 switch~;
#X text 110 112 wave shaping;
#X msg 92 62 1;
#X msg 124 63 0;
#X obj 312 470 dbtorms;
#X obj 311 447 + 100;
#X obj 309 104 vsl 15 50 -100 0 0 0 empty empty empty 0 -9 0 10 -258113
-1 -1 4312 1;
#X obj 219 499 *~ 0;
#X obj 337 142 nbx 5 14 -1e+37 1e+37 0 0 empty empty empty 0 -8 0 10
-262144 -1 -1 -12 256;
#X obj 318 48 loadbang;
#X text 334 122 gain (dB);
#X obj 571 344 table \$0-amplitude 320;
#X obj 692 156 symbol \$0-amplitude;
#X floatatom 272 139 5 0 0 0 frequency_(Hz) - -;
#X obj 90 38 select 2;
#X obj 394 267 metro;
#X obj 394 296 f 0;
#X obj 431 279 + 1;
#X text 474 299 table length;
#X obj 430 300 % 320;
#X obj 262 375 line~;
#X obj 416 220 /;
#X obj 418 172 * 320;
#X msg 418 195 1000 \$1;
#X floatatom 422 246 5 0 0 0 - - -;
#X obj 389 340 tabread \$0-amplitude;
#X obj 185 345 noise~;
#X obj 212 429 *~;
#X obj 185 371 lop~ 2093;
#X obj 186 394 hip~ 20;
#X obj 240 403 clip~ 0 1;
#X msg 263 353 \$1 5;
#X msg 319 69 -12;
#X msg 248 47 0.5;
#X obj 337 565 throw~ \$1-right;
#X obj 227 562 throw~ \$1-left;
#X obj 90 15 r \$1-enabled;
#X obj 567 50 r \$1-refresh;
#X obj 637 120 r \$1-width;
#X obj 586 158 symbol \$1-array;
#X obj 690 181 pack s 320 0 1;
#X obj 740 102 r \$1-height;
#X obj 584 183 pack s 640 0 480;
#X connect 0 0 1 1;
#X connect 0 0 4 0;
#X connect 0 0 19 0;
#X connect 1 0 3 0;
#X connect 3 0 2 0;
#X connect 3 1 43 0;
#X connect 3 2 16 0;
#X connect 6 0 0 0;
#X connect 7 0 0 0;
#X connect 8 0 11 1;
#X connect 9 0 8 0;
#X connect 10 0 9 0;
#X connect 10 0 12 0;
#X connect 11 0 38 0;
#X connect 11 0 39 0;
#X connect 13 0 36 0;
#X connect 13 0 37 0;
#X connect 16 0 44 0;
#X connect 17 0 26 0;
#X connect 18 0 6 0;
#X connect 18 1 7 0;
#X connect 19 0 20 0;
#X connect 20 0 21 0;
#X connect 20 0 29 0;
#X connect 21 0 23 0;
#X connect 23 0 20 1;
#X connect 24 0 34 0;
#X connect 25 0 28 0;
#X connect 25 0 19 1;
#X connect 26 0 27 0;
#X connect 27 0 25 0;
#X connect 29 0 35 0;
#X connect 30 0 32 0;
#X connect 31 0 11 0;
#X connect 32 0 33 0;
#X connect 33 0 31 0;
#X connect 34 0 31 1;
#X connect 35 0 24 0;
#X connect 36 0 10 0;
#X connect 37 0 17 0;
#X connect 40 0 18 0;
#X connect 41 0 1 0;
#X connect 42 0 46 1;
#X connect 43 0 46 0;
#X connect 44 0 2 2;
#X connect 45 0 46 3;
#X connect 46 0 2 1;
#X coords 0 -1 1 1 300 60 1 100 100;
