#N canvas 62 109 791 538 10;
#X obj 224 52 loadbang;
#X obj 111 138 tgl 15 0 empty empty enabled 17 7 0 10 -258113 -1 -1
0 1;
#X obj 487 334 spigot;
#X obj 490 466 vanilla.table.transfer;
#X obj 493 375 t b b b;
#X obj 116 191 switch~;
#X floatatom 192 142 5 0 0 0 - - -;
#X msg 92 62 1;
#X msg 124 63 0;
#X obj 343 371 dbtorms;
#X obj 342 348 + 100;
#X obj 289 104 vsl 15 50 -100 0 0 0 empty empty empty 0 -9 0 10 -258113
-1 -1 4606 1;
#X obj 197 410 *~ 0;
#X obj 317 142 nbx 5 14 -1e+37 1e+37 0 0 empty empty empty 0 -8 0 10
-262144 -1 -1 -6 256;
#X obj 298 48 loadbang;
#X text 314 122 gain (dB);
#X msg 226 80 36;
#X text 190 122 Frequency (MIDI);
#X obj 90 15 r \$1-enabled;
#X obj 90 38 select \$2;
#X obj 485 299 r \$1-refresh;
#X obj 577 374 r \$1-width;
#X obj 514 406 symbol \$1-array;
#X obj 196 459 throw~ \$1-left;
#X obj 306 462 throw~ \$1-right;
#X obj 196 307 synth.additive~;
#X obj 586 121 f 0;
#X obj 622 121 + 1;
#X obj 586 97 until;
#X obj 622 147 % 17;
#X obj 697 134 select 0;
#X obj 586 232 pack f f;
#X obj 586 168 t f f;
#X msg 586 254 \$2 \$1;
#X obj 586 202 tabread \$0-harmonics;
#X obj 196 284 mtof;
#X obj 587 48 tgl 15 0 empty empty empty 17 7 0 10 -258113 -1 -1 1
1;
#X obj 586 26 loadbang;
#X obj 586 72 metro 50;
#X obj 420 106 table \$0-harmonics 17;
#X obj 618 429 pack s 17 0 1;
#X obj 620 404 symbol \$0-harmonics;
#X msg 299 70 -6;
#X obj 691 375 r \$1-height;
#X obj 504 430 pack s 640 0 480;
#X connect 0 0 16 0;
#X connect 1 0 2 1;
#X connect 1 0 5 0;
#X connect 2 0 4 0;
#X connect 4 0 3 0;
#X connect 4 1 22 0;
#X connect 4 2 41 0;
#X connect 6 0 35 0;
#X connect 7 0 1 0;
#X connect 8 0 1 0;
#X connect 9 0 12 1;
#X connect 10 0 9 0;
#X connect 11 0 10 0;
#X connect 11 0 13 0;
#X connect 12 0 23 0;
#X connect 12 0 24 0;
#X connect 14 0 42 0;
#X connect 16 0 6 0;
#X connect 18 0 19 0;
#X connect 19 0 7 0;
#X connect 19 1 8 0;
#X connect 20 0 2 0;
#X connect 21 0 44 1;
#X connect 22 0 44 0;
#X connect 25 0 12 0;
#X connect 26 0 27 0;
#X connect 26 0 32 0;
#X connect 27 0 29 0;
#X connect 28 0 26 0;
#X connect 29 0 30 0;
#X connect 29 0 26 1;
#X connect 30 0 28 1;
#X connect 31 0 33 0;
#X connect 32 0 34 0;
#X connect 32 1 31 1;
#X connect 33 0 25 2;
#X connect 34 0 31 0;
#X connect 35 0 25 0;
#X connect 36 0 38 0;
#X connect 37 0 36 0;
#X connect 38 0 28 0;
#X connect 40 0 3 2;
#X connect 41 0 40 0;
#X connect 42 0 11 0;
#X connect 43 0 44 3;
#X connect 44 0 3 1;
#X coords 0 -1 1 1 300 60 1 100 100;
