#N canvas 489 190 693 639 10;
#X obj 173 232 metro;
#X obj 279 44 loadbang;
#X obj 173 261 f 0;
#X obj 210 244 + 1;
#X obj 167 330 mtof;
#X obj 110 113 tgl 15 0 empty empty enabled 17 7 0 10 -258113 -1 -1
0 1;
#X text 252 261 table length;
#X obj 343 273 spigot;
#X obj 346 405 vanilla.table.transfer;
#X obj 349 314 t b b b;
#X obj 101 180 switch~;
#X msg 92 62 1;
#X msg 124 63 0;
#X obj 350 436 table \$0-sweep 320;
#X obj 209 265 % 320;
#X obj 168 305 tabread \$0-sweep;
#X obj 81 365 noise~;
#X obj 83 419 vcf~ 10;
#X obj 129 393 line~;
#X msg 167 354 \$1 5;
#X floatatom 280 127 5 0 0 0 - - -;
#X text 318 126 Freq (Hz);
#X obj 236 209 /;
#X obj 301 167 * 320;
#X msg 238 184 1000 \$1;
#X floatatom 242 235 5 0 0 0 - - -;
#X msg 281 72 0.5;
#X obj 90 15 r \$1-enabled;
#X obj 90 38 select \$2;
#X obj 431 308 r \$1-width;
#X obj 476 343 symbol \$0-sweep;
#X obj 370 345 symbol \$1-array;
#X obj 351 236 r \$1-refresh;
#X obj 188 527 throw~ \$1-right;
#X obj 85 525 throw~ \$1-left;
#X obj 474 368 pack s 320 36 72;
#X obj 183 424 dbtorms;
#X obj 182 401 + 100;
#X obj 191 105 vsl 15 50 -100 0 0 0 empty empty empty 0 -9 0 10 -258113
-1 -1 4900 1;
#X obj 83 454 *~ 0;
#X obj 219 143 nbx 5 14 -1e+37 1e+37 0 0 empty empty empty 0 -8 0 10
-262144 -1 -1 0 256;
#X obj 200 49 loadbang;
#X text 216 123 gain (dB);
#X msg 201 70 0;
#X obj 519 309 r \$1-height;
#X obj 368 370 pack s 640 0 480;
#X connect 0 0 2 0;
#X connect 1 0 26 0;
#X connect 2 0 3 0;
#X connect 2 0 15 0;
#X connect 3 0 14 0;
#X connect 4 0 19 0;
#X connect 5 0 0 0;
#X connect 5 0 10 0;
#X connect 5 0 7 1;
#X connect 7 0 9 0;
#X connect 9 0 8 0;
#X connect 9 1 31 0;
#X connect 9 2 30 0;
#X connect 11 0 5 0;
#X connect 12 0 5 0;
#X connect 14 0 2 1;
#X connect 15 0 4 0;
#X connect 16 0 17 0;
#X connect 17 0 39 0;
#X connect 18 0 17 1;
#X connect 19 0 18 0;
#X connect 20 0 23 0;
#X connect 22 0 25 0;
#X connect 22 0 0 1;
#X connect 23 0 24 0;
#X connect 24 0 22 0;
#X connect 26 0 20 0;
#X connect 27 0 28 0;
#X connect 28 0 11 0;
#X connect 28 1 12 0;
#X connect 29 0 45 1;
#X connect 30 0 35 0;
#X connect 31 0 45 0;
#X connect 32 0 7 0;
#X connect 35 0 8 2;
#X connect 36 0 39 1;
#X connect 37 0 36 0;
#X connect 38 0 37 0;
#X connect 38 0 40 0;
#X connect 39 0 34 0;
#X connect 39 0 33 0;
#X connect 41 0 43 0;
#X connect 43 0 38 0;
#X connect 44 0 45 3;
#X connect 45 0 8 1;
#X coords 0 -1 1 1 300 60 1 100 100;
