#N canvas 83 148 1121 622 10;
#X obj 111 138 tgl 15 0 empty empty enabled 17 7 0 10 -258113 -1 -1
0 1;
#X obj 818 394 spigot;
#X obj 821 526 vanilla.table.transfer;
#X obj 824 435 t b b b;
#N canvas 66 141 458 641 GEM-output 0;
#X obj 219 389 f 0;
#X obj 257 394 + 1;
#X text 211 300 table length;
#X obj 152 201 t a b;
#X msg 252 367 0;
#X obj 139 325 t a b;
#X obj 85 539 translateXYZ;
#X obj 278 56 inlet;
#X obj 152 166 spigot;
#X obj 148 98 gemhead 100;
#X obj 136 288 separator;
#X text 328 52 enabled;
#X obj 84 588 rectangle 0.1 0.1;
#X obj 84 562 color 0.5 0.5 0.5;
#X obj 123 467 vanilla.scale.linear 0 320 -5.33333 5.33333;
#X obj 213 432 tabread \$0-amplitude;
#X obj 137 255 repeat 320;
#X obj 181 498 vanilla.scale.linear -100 0 -4 4;
#X connect 0 0 1 0;
#X connect 0 0 14 0;
#X connect 0 0 15 0;
#X connect 1 0 0 1;
#X connect 3 0 16 0;
#X connect 3 1 4 0;
#X connect 4 0 0 1;
#X connect 5 0 6 0;
#X connect 5 1 0 0;
#X connect 6 0 13 0;
#X connect 7 0 8 1;
#X connect 8 0 3 0;
#X connect 9 0 8 0;
#X connect 10 0 5 0;
#X connect 13 0 12 0;
#X connect 14 0 6 1;
#X connect 15 0 17 0;
#X connect 16 0 10 0;
#X connect 17 0 6 2;
#X restore 8 185 pd GEM-output;
#X obj 41 222 switch~;
#X text 110 112 wave shaping;
#X msg 92 62 1;
#X msg 124 63 0;
#X obj 379 413 env~;
#X floatatom 389 446 5 0 0 0 - - -;
#X obj 343 371 dbtorms;
#X obj 342 348 + 100;
#X obj 309 104 vsl 15 50 -100 0 0 0 empty empty empty 0 -9 0 10 -258113
-1 -1 4312 1;
#X obj 199 426 *~ 0;
#X obj 337 142 nbx 5 14 -1e+37 1e+37 0 0 empty empty empty 0 -8 0 10
-262144 -1 -1 -12 256;
#X obj 318 48 loadbang;
#X text 334 122 gain (dB);
#X obj 559 114 table \$0-amplitude 320;
#X obj 951 464 symbol \$0-amplitude;
#X obj 56 286 noise~;
#X floatatom 272 139 5 0 0 0 frequency_(Hz) - -;
#X obj 90 38 select 2;
#X obj 56 312 lop~ 2093;
#X obj 57 335 hip~ 20;
#X obj 949 489 pack s 320 -100 0;
#X obj 600 254 metro;
#X obj 600 283 f 0;
#X obj 637 266 + 1;
#X text 680 286 table length;
#X obj 636 287 % 320;
#X obj 610 415 line~;
#X obj 622 207 /;
#X obj 624 159 * 320;
#X msg 624 182 1000 \$1;
#X floatatom 628 233 5 0 0 0 - - -;
#X obj 595 327 tabread \$0-amplitude;
#X obj 561 473 noise~;
#X obj 622 499 dbtorms~;
#X obj 588 557 *~;
#X obj 561 499 lop~ 2093;
#X obj 562 522 hip~ 20;
#X obj 616 531 clip~ 0 1;
#X obj 621 476 +~ 100;
#X msg 612 381 \$1 5;
#X msg 319 69 -12;
#X msg 248 47 0.5;
#X obj 843 491 pack s 640 0 1;
#X obj 207 470 throw~ \$1-right;
#X obj 97 467 throw~ \$1-left;
#X obj 90 15 r \$1-enabled;
#X obj 826 358 r \$1-refresh;
#X obj 896 428 r \$1-width;
#X obj 845 466 symbol \$1-array;
#X connect 0 0 1 1;
#X connect 0 0 5 0;
#X connect 0 0 4 0;
#X connect 0 0 26 0;
#X connect 1 0 3 0;
#X connect 3 0 2 0;
#X connect 3 1 53 0;
#X connect 3 2 19 0;
#X connect 7 0 0 0;
#X connect 8 0 0 0;
#X connect 9 0 10 0;
#X connect 11 0 14 1;
#X connect 12 0 11 0;
#X connect 13 0 12 0;
#X connect 13 0 15 0;
#X connect 14 0 48 0;
#X connect 14 0 49 0;
#X connect 16 0 45 0;
#X connect 16 0 46 0;
#X connect 19 0 25 0;
#X connect 20 0 23 0;
#X connect 21 0 33 0;
#X connect 22 0 7 0;
#X connect 22 1 8 0;
#X connect 23 0 24 0;
#X connect 25 0 2 2;
#X connect 26 0 27 0;
#X connect 27 0 28 0;
#X connect 27 0 36 0;
#X connect 28 0 30 0;
#X connect 30 0 27 1;
#X connect 31 0 43 0;
#X connect 32 0 35 0;
#X connect 32 0 26 1;
#X connect 33 0 34 0;
#X connect 34 0 32 0;
#X connect 36 0 44 0;
#X connect 37 0 40 0;
#X connect 38 0 42 0;
#X connect 39 0 14 0;
#X connect 40 0 41 0;
#X connect 41 0 39 0;
#X connect 42 0 39 1;
#X connect 43 0 38 0;
#X connect 44 0 31 0;
#X connect 45 0 13 0;
#X connect 46 0 21 0;
#X connect 47 0 2 1;
#X connect 50 0 22 0;
#X connect 51 0 1 0;
#X connect 52 0 47 1;
#X connect 53 0 47 0;
#X coords 0 -1 1 1 300 60 1 100 100;
