#N canvas 66 87 926 749 10;
#X obj 159 240 metro;
#X obj 279 44 loadbang;
#X text 334 130 Tempo (BPM);
#X obj 173 261 f 0;
#X obj 210 244 + 1;
#X obj 168 368 t f b;
#X obj 150 459 mtof;
#X obj 130 341 int;
#X obj 110 113 tgl 15 0 empty empty enabled 17 7 0 10 -258113 -1 -1
0 1;
#X floatatom 235 284 5 0 0 0 - - -;
#X obj 151 433 musical.closest.note;
#X msg 543 94 0 2 4 7 9;
#X msg 527 65 0 2 4 5 7 9 11;
#X text 631 65 C scale;
#X obj 539 22 loadbang;
#X msg 465 45 0 1 2 3 4 5 6 7 8 9 10 11;
#X text 625 43 Chromatic;
#X text 611 93 Pentatonic in C;
#X obj 153 586 line~;
#X obj 119 616 *~;
#X obj 187 211 vanilla.bpm2ms;
#X obj 168 305 tabread \$0-melody;
#X text 244 264 table length;
#X obj 275 129 nbx 5 14 -1e+37 1e+37 0 0 empty empty empty 0 -8 0 10
-258113 -1 -1 800 256;
#X obj 531 382 spigot;
#X obj 534 514 vanilla.table.transfer;
#X obj 537 423 t b b b;
#X obj 664 452 symbol \$0-melody;
#N canvas 66 99 788 663 GEM-output 0;
#X obj 219 389 f 0;
#X obj 257 394 + 1;
#X obj 214 433 tabread \$0-melody;
#X text 211 300 table length;
#X obj 81 536 color 1 0 0;
#X obj 81 562 rectangle 0.25 0.125;
#X obj 152 201 t a b;
#X msg 252 367 0;
#X obj 139 325 t a b;
#X obj 81 504 translateXYZ;
#X obj 278 56 inlet;
#X obj 152 166 spigot;
#X obj 148 98 gemhead 100;
#X obj 181 498 vanilla.scale.linear 48 72 -4 4;
#X obj 305 600 print;
#X obj 308 544 pack f f;
#X obj 309 576 spigot;
#X obj 388 549 tgl 15 0 empty empty empty 17 7 0 10 -262144 -1 -1 0
1;
#X obj 136 288 separator;
#X text 328 52 enabled;
#X obj 458 89 inlet;
#X text 510 89 current index playing;
#X msg 479 339 1 0 0;
#X msg 538 343 0.5 0.5 0.5;
#X obj 480 299 select 0;
#X obj 123 467 vanilla.scale.linear 0 64 -5.33333 5.33333;
#X obj 137 255 repeat 64;
#X connect 0 0 1 0;
#X connect 0 0 2 0;
#X connect 0 0 24 0;
#X connect 0 0 25 0;
#X connect 1 0 0 1;
#X connect 2 0 13 0;
#X connect 4 0 5 0;
#X connect 6 0 26 0;
#X connect 6 1 7 0;
#X connect 7 0 0 1;
#X connect 8 0 9 0;
#X connect 8 1 0 0;
#X connect 9 0 4 0;
#X connect 10 0 11 1;
#X connect 11 0 6 0;
#X connect 12 0 11 0;
#X connect 13 0 9 2;
#X connect 13 0 15 1;
#X connect 15 0 16 0;
#X connect 16 0 14 0;
#X connect 17 0 16 1;
#X connect 18 0 8 0;
#X connect 20 0 24 1;
#X connect 22 0 4 1;
#X connect 23 0 4 1;
#X connect 24 0 22 0;
#X connect 24 1 23 0;
#X connect 25 0 9 1;
#X connect 25 0 15 0;
#X connect 26 0 18 0;
#X restore 8 185 pd GEM-output;
#X obj 68 224 switch~;
#X msg 549 116 0 2 3 4 5 7 8 9 11;
#X text 200 110 16-step melodic sequencer;
#X msg 92 62 1;
#X msg 124 63 0;
#X obj 138 141 hradio 15 1 0 9 empty empty scale 0 -8 0 10 -262144
-1 -1 0;
#X obj 446 171 s \$0-scale;
#X text 675 118 C with blue notes;
#X msg 548 140 0 2 4 5 7 9 10 11;
#X text 667 138 be-bop;
#X msg 550 163 0 2 3 5 7 8 11;
#X text 652 165 harmonic minor;
#X msg 551 184 0 2 3 5 6 8 9 11;
#X text 662 183 diminished;
#X msg 550 208 0 2 4 6 8 10;
#X text 640 208 whole-tone;
#X msg 549 236 0 0.5 1 1.5 2 2.5 3 3.5 4 4.5 5 5.5 6 6.5 7 7.5 8 8.5
9 9.5 10 10.5 11 11.5;
#X obj 477 -15 select 0 1 2 3 4 5 6 7 8;
#X text 922 239 microtonal;
#X obj 662 477 pack s 64 48 72;
#X obj 334 501 table \$0-melody 64;
#X obj 209 265 % 64;
#X floatatom 365 67 5 0 0 0 - - -;
#X obj 109 644 *~ 0.5;
#X obj 71 586 lop~ 440;
#X obj 174 484 t f b;
#X msg 281 72 800;
#X obj 231 350 t f;
#X obj 235 551 pack 0 f;
#X obj 240 498 t b b;
#X msg 269 524 1;
#X obj 70 561 phasor~;
#X obj 111 531 line~;
#X msg 114 499 \$1 5;
#X obj 556 479 pack s 640 0 1;
#X obj 342 413 print melody-scale;
#X obj 539 345 r \$1-refresh;
#X obj 620 417 r \$1-width;
#X obj 558 454 symbol \$1-array;
#X obj 298 335 r \$0-scale;
#X obj 119 692 throw~ \$1-left;
#X obj 229 695 throw~ \$1-right;
#X obj 90 38 select \$2;
#X obj 90 15 r \$1-enabled;
#X connect 0 0 3 0;
#X connect 1 0 55 0;
#X connect 3 0 4 0;
#X connect 3 0 21 0;
#X connect 3 0 28 1;
#X connect 4 0 50 0;
#X connect 5 0 10 0;
#X connect 6 0 54 0;
#X connect 8 0 0 0;
#X connect 8 0 24 1;
#X connect 8 0 29 0;
#X connect 8 0 28 0;
#X connect 9 0 21 0;
#X connect 10 0 6 0;
#X connect 11 0 35 0;
#X connect 12 0 35 0;
#X connect 14 0 15 0;
#X connect 15 0 35 0;
#X connect 18 0 19 1;
#X connect 19 0 52 0;
#X connect 20 0 0 1;
#X connect 20 0 56 0;
#X connect 21 0 7 0;
#X connect 21 0 5 0;
#X connect 23 0 20 0;
#X connect 24 0 26 0;
#X connect 26 0 25 0;
#X connect 26 1 67 0;
#X connect 26 2 27 0;
#X connect 27 0 48 0;
#X connect 30 0 35 0;
#X connect 32 0 8 0;
#X connect 33 0 8 0;
#X connect 34 0 46 0;
#X connect 37 0 35 0;
#X connect 39 0 35 0;
#X connect 41 0 35 0;
#X connect 43 0 35 0;
#X connect 45 0 35 0;
#X connect 46 0 15 0;
#X connect 46 1 12 0;
#X connect 46 2 11 0;
#X connect 46 3 30 0;
#X connect 46 4 37 0;
#X connect 46 5 39 0;
#X connect 46 6 41 0;
#X connect 46 7 43 0;
#X connect 46 8 45 0;
#X connect 48 0 25 2;
#X connect 50 0 3 1;
#X connect 51 0 23 0;
#X connect 52 0 69 0;
#X connect 52 0 70 0;
#X connect 53 0 19 0;
#X connect 54 0 62 0;
#X connect 54 1 58 0;
#X connect 55 0 23 0;
#X connect 56 0 57 1;
#X connect 57 0 18 0;
#X connect 58 0 57 0;
#X connect 58 1 59 0;
#X connect 59 0 18 0;
#X connect 60 0 53 0;
#X connect 61 0 60 0;
#X connect 62 0 61 0;
#X connect 63 0 25 1;
#X connect 65 0 24 0;
#X connect 66 0 63 1;
#X connect 67 0 63 0;
#X connect 68 0 10 1;
#X connect 68 0 64 0;
#X connect 71 0 32 0;
#X connect 71 1 33 0;
#X connect 72 0 71 0;
#X coords 0 -1 1 1 300 60 1 100 100;
