#N canvas 60 100 791 552 10;
#X obj 224 52 loadbang;
#X obj 111 138 tgl 15 0 empty empty enabled 17 7 0 10 -258113 -1 -1
0 1;
#X obj 446 319 spigot;
#X obj 449 451 vanilla.table.transfer;
#X obj 452 360 t b b b;
#X obj 104 183 switch~;
#X text 110 112 wave shaping;
#X obj 183 312 mtof;
#X obj 579 389 symbol \$0-wave;
#X floatatom 192 142 5 0 0 0 - - -;
#X msg 92 62 1;
#X msg 124 63 0;
#X obj 200 370 tabosc4~ \$0-wave;
#X obj 183 339 sig~ 440;
#X obj 445 487 table \$0-wave 515;
#X obj 343 371 dbtorms;
#X obj 342 348 + 100;
#X obj 289 104 vsl 15 50 -100 0 0 0 empty empty empty 0 -9 0 10 -258113
-1 -1 4018 1;
#X obj 199 426 *~ 0;
#X obj 317 142 nbx 5 14 -1e+37 1e+37 0 0 empty empty empty 0 -8 0 10
-262144 -1 -1 -18 256;
#X obj 577 414 pack s 515 -1 1;
#X obj 298 48 loadbang;
#X text 314 122 gain (dB);
#X msg 226 80 36;
#X msg 299 69 -18;
#X text 190 122 Frequency (MIDI);
#X obj 90 15 r \$1-enabled;
#X obj 90 38 select \$2;
#X obj 454 282 r \$1-refresh;
#X obj 548 338 r \$1-width;
#X obj 473 391 symbol \$1-array;
#X obj 203 482 throw~ \$1-left;
#X obj 313 485 throw~ \$1-right;
#X obj 471 416 pack s 640 0 480;
#X obj 606 363 r \$1-height;
#X connect 0 0 23 0;
#X connect 1 0 2 1;
#X connect 1 0 5 0;
#X connect 2 0 4 0;
#X connect 4 0 3 0;
#X connect 4 1 30 0;
#X connect 4 2 8 0;
#X connect 7 0 13 0;
#X connect 8 0 20 0;
#X connect 9 0 7 0;
#X connect 10 0 1 0;
#X connect 11 0 1 0;
#X connect 12 0 18 0;
#X connect 13 0 12 0;
#X connect 15 0 18 1;
#X connect 16 0 15 0;
#X connect 17 0 16 0;
#X connect 17 0 19 0;
#X connect 18 0 31 0;
#X connect 18 0 32 0;
#X connect 20 0 3 2;
#X connect 21 0 24 0;
#X connect 23 0 9 0;
#X connect 24 0 17 0;
#X connect 26 0 27 0;
#X connect 27 0 10 0;
#X connect 27 1 11 0;
#X connect 28 0 2 0;
#X connect 29 0 33 1;
#X connect 30 0 33 0;
#X connect 33 0 3 1;
#X connect 34 0 33 3;
#X coords 0 -1 1 1 300 60 1 100 100;
