#N canvas 286 357 791 558 10;
#X obj 111 138 tgl 15 0 empty empty enabled 17 7 0 10 -258113 -1 -1
1 1;
#X obj 487 334 spigot;
#X obj 490 466 vanilla.table.transfer;
#X obj 493 375 t b b b;
#X obj 116 191 switch~;
#X msg 92 62 1;
#X msg 124 63 0;
#X obj 343 371 dbtorms;
#X obj 342 348 + 100;
#X obj 289 104 vsl 15 50 -100 0 0 0 empty empty empty 0 -9 0 10 -258113
-1 -1 4606 1;
#X obj 197 410 *~ 0;
#X obj 317 142 nbx 5 14 -1e+37 1e+37 0 0 empty empty empty 0 -8 0 10
-262144 -1 -1 -6 256;
#X obj 298 48 loadbang;
#X text 314 122 gain (dB);
#X obj 90 15 r \$1-enabled;
#X obj 90 38 select \$2;
#X obj 485 299 r \$1-refresh;
#X obj 569 366 r \$1-width;
#X obj 514 406 symbol \$1-array;
#X obj 196 459 throw~ \$1-left;
#X obj 306 462 throw~ \$1-right;
#X msg 299 70 -6;
#X obj 504 430 pack s 640 0 480;
#X obj 420 106 table \$0-freqs 1024;
#X obj 660 117 loadbang;
#N canvas 419 319 723 534 hanning-window 0;
#X obj 122 273 phasor~;
#X obj 122 311 cos~;
#X obj 40 336 -~;
#X obj 37 290 sig~ 1;
#X msg 50 240 0;
#X text 188 18 CALCULATE HANNING;
#X text 188 36 WINDOW TABLE;
#N canvas 0 0 450 300 (subpatch) 0;
#X array \$0-hanning 1024 float 0;
#X coords 0 1 1023 -1 400 300 1;
#X restore 342 235 graph;
#X obj 123 227 sig~;
#X text 156 173 sample rate / window size;
#X msg 31 191 bang;
#X obj 88 357 sig~ 0.5;
#X obj 66 399 *~;
#X obj 124 106 samplerate~;
#X obj 123 175 /;
#X obj 31 70 t b f f;
#X obj 263 82 pack f \$0-hanning;
#X msg 262 106 \; \$2 resize \$1;
#X obj 15 436 tabwrite~ \$0-hanning;
#X obj 31 38 inlet window-size;
#X connect 0 0 1 0;
#X connect 1 0 2 1;
#X connect 2 0 12 0;
#X connect 3 0 2 0;
#X connect 4 0 0 1;
#X connect 8 0 0 0;
#X connect 10 0 4 0;
#X connect 10 0 18 0;
#X connect 11 0 12 1;
#X connect 12 0 18 0;
#X connect 13 0 14 0;
#X connect 14 0 8 0;
#X connect 15 0 13 0;
#X connect 15 0 10 0;
#X connect 15 1 14 1;
#X connect 15 2 16 0;
#X connect 16 0 17 0;
#X connect 19 0 15 0;
#X restore 630 240 pd hanning-window;
#X obj 114 370 hip~ 7;
#X obj 219 281 vsl 10 60 0 1 0 0 empty empty squelch 0 -9 0 10 -4034
-1 -1 5900 1;
#X obj 109 306 noise~;
#X obj 219 227 loadbang;
#X obj 219 248 f 1;
#X obj 660 177 f 1024;
#X obj 660 206 s \$0-window-size;
#X obj 675 144 bng 15 250 50 0 empty empty empty 17 7 0 10 -262144
-1 -1;
#N canvas 110 215 690 470 my-fft-vocoder 0;
#X obj 275 314 *~;
#X obj 257 348 *~;
#X obj 218 348 *~;
#X obj 216 104 *~;
#X obj 216 130 rfft~;
#X obj 44 419 *~;
#X floatatom 458 208 0 0 0 0 - - -;
#X obj 334 177 *~;
#X obj 218 374 rifft~;
#X obj 44 445 outlet~;
#X obj 297 177 *~;
#X obj 297 203 +~;
#X obj 275 288 *~;
#X obj 329 418 block~ 1024 4;
#X obj 297 229 rsqrt~;
#X obj 327 203 sig~ 1e-20;
#X obj 297 255 clip~;
#X obj 458 130 t f f;
#X obj 458 156 *;
#X obj 458 182 * 0.01;
#X obj 456 94 max 1;
#X obj 469 56 loadbang;
#X obj 458 234 max 0;
#X obj 450 35 inlet squelch;
#X obj 251 36 inlet~ live-input;
#X obj 42 63 tabreceive~ \$0-hanning;
#X obj 305 289 sig~ 0.01;
#X obj 304 124 clip~ 0 1;
#X obj 278 99 tabreceive~ \$0-freqs;
#X connect 0 0 1 1;
#X connect 0 0 2 1;
#X connect 1 0 8 1;
#X connect 2 0 8 0;
#X connect 3 0 4 0;
#X connect 4 0 10 0;
#X connect 4 0 10 1;
#X connect 4 0 2 0;
#X connect 4 1 7 0;
#X connect 4 1 7 1;
#X connect 4 1 1 0;
#X connect 5 0 9 0;
#X connect 6 0 22 0;
#X connect 7 0 11 1;
#X connect 8 0 5 1;
#X connect 10 0 11 0;
#X connect 11 0 14 0;
#X connect 12 0 0 0;
#X connect 14 0 16 0;
#X connect 15 0 14 0;
#X connect 16 0 12 1;
#X connect 17 0 18 0;
#X connect 17 0 18 1;
#X connect 18 0 19 0;
#X connect 19 0 6 0;
#X connect 20 0 17 0;
#X connect 21 0 20 0;
#X connect 22 0 16 2;
#X connect 23 0 20 0;
#X connect 24 0 3 1;
#X connect 25 0 3 0;
#X connect 25 0 5 0;
#X connect 26 0 0 1;
#X connect 27 0 12 0;
#X connect 28 0 27 0;
#X restore 115 346 pd my-fft-vocoder;
#X obj 692 375 r \$1-height;
#X obj 620 404 symbol \$0-freqs;
#X obj 618 429 pack s 512 0 1;
#X text 379 498 We just use the first half of the table. The 2nd half
is too high anyways.;
#X connect 0 0 1 1;
#X connect 0 0 4 0;
#X connect 1 0 3 0;
#X connect 3 0 2 0;
#X connect 3 1 18 0;
#X connect 3 2 36 0;
#X connect 5 0 0 0;
#X connect 6 0 0 0;
#X connect 7 0 10 1;
#X connect 8 0 7 0;
#X connect 9 0 8 0;
#X connect 9 0 11 0;
#X connect 10 0 19 0;
#X connect 10 0 20 0;
#X connect 12 0 21 0;
#X connect 14 0 15 0;
#X connect 15 0 5 0;
#X connect 15 1 6 0;
#X connect 16 0 1 0;
#X connect 17 0 22 1;
#X connect 18 0 22 0;
#X connect 21 0 9 0;
#X connect 22 0 2 1;
#X connect 24 0 31 0;
#X connect 26 0 10 0;
#X connect 27 0 34 1;
#X connect 28 0 34 0;
#X connect 29 0 30 0;
#X connect 30 0 27 0;
#X connect 31 0 32 0;
#X connect 31 0 25 0;
#X connect 33 0 31 0;
#X connect 34 0 26 0;
#X connect 35 0 22 3;
#X connect 36 0 37 0;
#X connect 37 0 2 2;
#X coords 0 -1 1 1 300 60 1 100 100;
