#N canvas 66 87 926 551 10;
#X obj 224 52 loadbang;
#X obj 111 138 tgl 15 0 empty empty enabled 17 7 0 10 -258113 -1 -1
0 1;
#X obj 534 329 spigot;
#X obj 537 461 vanilla.table.transfer;
#X obj 540 370 t b b b;
#N canvas 66 127 458 641 GEM-output 0;
#X obj 219 389 f 0;
#X obj 257 394 + 1;
#X text 211 300 table length;
#X obj 152 201 t a b;
#X msg 252 367 0;
#X obj 139 325 t a b;
#X obj 85 539 translateXYZ;
#X obj 278 56 inlet;
#X obj 152 166 spigot;
#X obj 148 98 gemhead 100;
#X obj 136 288 separator;
#X text 328 52 enabled;
#X obj 84 588 rectangle 0.1 0.1;
#X obj 84 562 color 0.5 0.5 0.5;
#X obj 137 255 repeat 17;
#X obj 213 432 tabread \$0-harmonics;
#X obj 123 467 vanilla.scale.linear 0 17 -5.33333 5.33333;
#X obj 181 498 vanilla.scale.linear 0 1 -4 4;
#X connect 0 0 1 0;
#X connect 0 0 15 0;
#X connect 0 0 16 0;
#X connect 1 0 0 1;
#X connect 3 0 14 0;
#X connect 3 1 4 0;
#X connect 4 0 0 1;
#X connect 5 0 6 0;
#X connect 5 1 0 0;
#X connect 6 0 13 0;
#X connect 7 0 8 1;
#X connect 8 0 3 0;
#X connect 9 0 8 0;
#X connect 10 0 5 0;
#X connect 13 0 12 0;
#X connect 14 0 10 0;
#X connect 15 0 17 0;
#X connect 16 0 6 1;
#X connect 17 0 6 2;
#X restore 8 185 pd GEM-output;
#X obj 41 222 switch~;
#X floatatom 192 142 5 0 0 0 - - -;
#X msg 92 62 1;
#X msg 124 63 0;
#X obj 379 413 env~;
#X floatatom 389 446 5 0 0 0 - - -;
#X obj 343 371 dbtorms;
#X obj 342 348 + 100;
#X obj 289 104 vsl 15 50 -100 0 0 0 empty empty empty 0 -9 0 10 -258113
-1 -1 4018 1;
#X obj 199 426 *~ 0;
#X obj 317 142 nbx 5 14 -1e+37 1e+37 0 0 empty empty empty 0 -8 0 10
-262144 -1 -1 -18 256;
#X obj 298 48 loadbang;
#X text 314 122 gain (dB);
#X msg 226 80 36;
#X msg 299 69 -18;
#X text 190 122 Frequency (MIDI);
#X obj 559 426 pack s 640 0 1;
#X obj 90 15 r \$1-enabled;
#X obj 90 38 select \$2;
#X obj 542 292 r \$1-refresh;
#X obj 636 348 r \$1-width;
#X obj 561 401 symbol \$1-array;
#X obj 97 467 throw~ \$1-left;
#X obj 207 470 throw~ \$1-right;
#X obj 196 307 synth.additive~;
#X obj 645 183 f 0;
#X obj 681 183 + 1;
#X obj 645 159 until;
#X obj 681 209 % 17;
#X obj 756 196 select 0;
#X obj 645 294 pack f f;
#X obj 645 230 t f f;
#X msg 645 316 \$2 \$1;
#X obj 645 264 tabread \$0-harmonics;
#X obj 196 284 mtof;
#X obj 646 110 tgl 15 0 empty empty empty 17 7 0 10 -258113 -1 -1 0
1;
#X obj 645 88 loadbang;
#X obj 645 134 metro 50;
#X obj 420 106 table \$0-harmonics 17;
#X obj 665 424 pack s 17 0 1;
#X obj 667 399 symbol \$0-harmonics;
#X connect 0 0 19 0;
#X connect 1 0 2 1;
#X connect 1 0 6 0;
#X connect 1 0 5 0;
#X connect 2 0 4 0;
#X connect 4 0 3 0;
#X connect 4 1 27 0;
#X connect 4 2 46 0;
#X connect 7 0 40 0;
#X connect 8 0 1 0;
#X connect 9 0 1 0;
#X connect 10 0 11 0;
#X connect 12 0 15 1;
#X connect 13 0 12 0;
#X connect 14 0 13 0;
#X connect 14 0 16 0;
#X connect 15 0 28 0;
#X connect 15 0 29 0;
#X connect 17 0 20 0;
#X connect 19 0 7 0;
#X connect 20 0 14 0;
#X connect 22 0 3 1;
#X connect 23 0 24 0;
#X connect 24 0 8 0;
#X connect 24 1 9 0;
#X connect 25 0 2 0;
#X connect 26 0 22 1;
#X connect 27 0 22 0;
#X connect 30 0 15 0;
#X connect 31 0 32 0;
#X connect 31 0 37 0;
#X connect 32 0 34 0;
#X connect 33 0 31 0;
#X connect 34 0 35 0;
#X connect 34 0 31 1;
#X connect 35 0 33 1;
#X connect 36 0 38 0;
#X connect 37 0 39 0;
#X connect 37 1 36 1;
#X connect 38 0 30 2;
#X connect 39 0 36 0;
#X connect 40 0 30 0;
#X connect 41 0 43 0;
#X connect 42 0 41 0;
#X connect 43 0 33 0;
#X connect 45 0 3 2;
#X connect 46 0 45 0;
#X coords 0 -1 1 1 300 60 1 100 100;
