#N canvas 60 105 926 749 10;
#X obj 159 240 metro;
#X obj 279 44 loadbang;
#X text 334 130 Tempo (BPM);
#X obj 173 261 f 0;
#X obj 210 244 + 1;
#X obj 168 368 t f b;
#X obj 150 459 mtof;
#X obj 110 113 tgl 15 0 empty empty enabled 17 7 0 10 -258113 -1 -1
1 1;
#X floatatom 235 284 5 0 0 0 - - -;
#X obj 151 433 musical.closest.note;
#X msg 543 94 0 2 4 7 9;
#X msg 527 65 0 2 4 5 7 9 11;
#X text 631 65 C scale;
#X obj 539 22 loadbang;
#X msg 465 45 0 1 2 3 4 5 6 7 8 9 10 11;
#X text 625 43 Chromatic;
#X text 611 93 Pentatonic in C;
#X obj 153 586 line~;
#X obj 119 616 *~;
#X obj 187 211 vanilla.bpm2ms;
#X obj 168 305 tabread \$0-melody;
#X text 244 264 table length;
#X obj 275 129 nbx 5 14 -1e+37 1e+37 0 0 empty empty empty 0 -8 0 10
-258113 -1 -1 400 256;
#X obj 531 382 spigot;
#X obj 534 514 vanilla.table.transfer;
#X obj 537 423 t b b b;
#X obj 735 448 symbol \$0-melody;
#X obj 68 224 switch~;
#X msg 549 116 0 2 3 4 5 7 8 9 11;
#X text 200 110 16-step melodic sequencer;
#X msg 92 62 1;
#X msg 124 63 0;
#X obj 138 141 hradio 15 1 0 9 empty empty scale 0 -8 0 10 -262144
-1 -1 0;
#X obj 446 171 s \$0-scale;
#X text 675 118 C with blue notes;
#X msg 548 140 0 2 4 5 7 9 10 11;
#X text 667 138 be-bop;
#X msg 550 163 0 2 3 5 7 8 11;
#X text 652 165 harmonic minor;
#X msg 551 184 0 2 3 5 6 8 9 11;
#X text 662 183 diminished;
#X msg 550 208 0 2 4 6 8 10;
#X text 640 208 whole-tone;
#X msg 549 236 0 0.5 1 1.5 2 2.5 3 3.5 4 4.5 5 5.5 6 6.5 7 7.5 8 8.5
9 9.5 10 10.5 11 11.5;
#X obj 477 -15 select 0 1 2 3 4 5 6 7 8;
#X text 922 239 microtonal;
#X obj 733 473 pack s 64 48 72;
#X obj 334 501 table \$0-melody 64;
#X obj 209 265 % 64;
#X floatatom 365 67 5 0 0 0 - - -;
#X obj 109 644 *~ 0.5;
#X obj 71 586 lop~ 440;
#X obj 174 484 t f b;
#X msg 281 72 800;
#X obj 231 350 t f;
#X obj 237 555 pack 0 f;
#X obj 240 498 t b b;
#X msg 269 524 1;
#X obj 58 534 phasor~;
#X obj 99 504 line~;
#X msg 102 472 \$1 5;
#X obj 342 413 print melody-scale;
#X obj 539 345 r \$1-refresh;
#X obj 620 417 r \$1-width;
#X obj 558 454 symbol \$1-array;
#X obj 298 335 r \$0-scale;
#X obj 119 692 throw~ \$1-left;
#X obj 229 695 throw~ \$1-right;
#X obj 90 38 select \$2;
#X obj 90 15 r \$1-enabled;
#X obj 556 479 pack s 640 0 480;
#X obj 695 418 r \$1-height;
#X msg 173 521 0;
#X obj 63 561 expr~ $v1 - 1;
#X connect 0 0 3 0;
#X connect 1 0 53 0;
#X connect 3 0 4 0;
#X connect 3 0 20 0;
#X connect 4 0 48 0;
#X connect 5 0 9 0;
#X connect 6 0 52 0;
#X connect 7 0 0 0;
#X connect 7 0 23 1;
#X connect 7 0 27 0;
#X connect 8 0 20 0;
#X connect 9 0 6 0;
#X connect 10 0 33 0;
#X connect 11 0 33 0;
#X connect 13 0 14 0;
#X connect 14 0 33 0;
#X connect 17 0 18 1;
#X connect 18 0 50 0;
#X connect 19 0 0 1;
#X connect 19 0 54 0;
#X connect 20 0 5 0;
#X connect 22 0 19 0;
#X connect 23 0 25 0;
#X connect 25 0 24 0;
#X connect 25 1 64 0;
#X connect 25 2 26 0;
#X connect 26 0 46 0;
#X connect 28 0 33 0;
#X connect 30 0 7 0;
#X connect 31 0 7 0;
#X connect 32 0 44 0;
#X connect 35 0 33 0;
#X connect 37 0 33 0;
#X connect 39 0 33 0;
#X connect 41 0 33 0;
#X connect 43 0 33 0;
#X connect 44 0 14 0;
#X connect 44 1 11 0;
#X connect 44 2 10 0;
#X connect 44 3 28 0;
#X connect 44 4 35 0;
#X connect 44 5 37 0;
#X connect 44 6 39 0;
#X connect 44 7 41 0;
#X connect 44 8 43 0;
#X connect 46 0 24 2;
#X connect 48 0 3 1;
#X connect 49 0 22 0;
#X connect 50 0 66 0;
#X connect 50 0 67 0;
#X connect 51 0 18 0;
#X connect 52 0 60 0;
#X connect 52 1 56 0;
#X connect 52 1 72 0;
#X connect 53 0 22 0;
#X connect 54 0 55 1;
#X connect 55 0 17 0;
#X connect 56 0 55 0;
#X connect 56 1 57 0;
#X connect 57 0 17 0;
#X connect 58 0 73 0;
#X connect 59 0 58 0;
#X connect 60 0 59 0;
#X connect 62 0 23 0;
#X connect 63 0 70 1;
#X connect 64 0 70 0;
#X connect 65 0 9 1;
#X connect 65 0 61 0;
#X connect 68 0 30 0;
#X connect 68 1 31 0;
#X connect 69 0 68 0;
#X connect 70 0 24 1;
#X connect 71 0 70 3;
#X connect 72 0 58 1;
#X connect 73 0 51 0;
#X coords 0 -1 1 1 300 60 1 100 100;
