#N canvas 493 178 693 639 10;
#X obj 173 232 metro;
#X obj 279 44 loadbang;
#X obj 173 261 f 0;
#X obj 210 244 + 1;
#X obj 167 330 mtof;
#X obj 110 113 tgl 15 0 empty empty enabled 17 7 0 10 -258113 -1 -1
1 1;
#X text 252 261 table length;
#X obj 343 273 spigot;
#X obj 346 405 vanilla.table.transfer;
#X obj 349 314 t b b b;
#N canvas 66 122 788 663 GEM-output 0;
#X obj 219 389 f 0;
#X obj 257 394 + 1;
#X text 211 300 table length;
#X obj 81 536 color 1 0 0;
#X obj 152 201 t a b;
#X msg 252 367 0;
#X obj 139 325 t a b;
#X obj 81 504 translateXYZ;
#X obj 278 56 inlet;
#X obj 152 166 spigot;
#X obj 148 98 gemhead 100;
#X obj 136 288 separator;
#X text 328 52 enabled;
#X obj 458 89 inlet;
#X text 510 89 current index playing;
#X msg 479 339 1 0 0;
#X msg 538 343 0.5 0.5 0.5;
#X obj 480 299 select 0;
#X obj 137 255 repeat 320;
#X obj 123 467 vanilla.scale.linear 0 320 -5.33333 5.33333;
#X obj 214 433 tabread \$0-sweep;
#X obj 181 498 vanilla.scale.linear 36 72 -4 4;
#X obj 80 562 rectangle 0.1 0.1;
#X connect 0 0 1 0;
#X connect 0 0 17 0;
#X connect 0 0 19 0;
#X connect 0 0 20 0;
#X connect 1 0 0 1;
#X connect 3 0 22 0;
#X connect 4 0 18 0;
#X connect 4 1 5 0;
#X connect 5 0 0 1;
#X connect 6 0 7 0;
#X connect 6 1 0 0;
#X connect 7 0 3 0;
#X connect 8 0 9 1;
#X connect 9 0 4 0;
#X connect 10 0 9 0;
#X connect 11 0 6 0;
#X connect 13 0 17 1;
#X connect 15 0 3 1;
#X connect 16 0 3 1;
#X connect 17 0 15 0;
#X connect 17 1 16 0;
#X connect 18 0 11 0;
#X connect 19 0 7 1;
#X connect 20 0 21 0;
#X connect 21 0 7 2;
#X restore 8 185 pd GEM-output;
#X obj 101 180 switch~;
#X msg 92 62 1;
#X msg 124 63 0;
#X obj 351 520 table \$0-sweep 320;
#X obj 209 265 % 320;
#X obj 168 305 tabread \$0-sweep;
#X obj 64 382 noise~;
#X obj 83 419 vcf~ 10;
#X obj 129 393 line~;
#X msg 167 354 \$1 5;
#X floatatom 280 127 5 0 0 0 - - -;
#X text 318 126 Freq (Hz);
#X floatatom 110 296 5 0 0 0 - - -;
#X obj 513 186 /;
#X obj 301 167 * 320;
#X msg 515 161 1000 \$1;
#X floatatom 519 212 5 0 0 0 - - -;
#X msg 281 72 0.5;
#X obj 368 370 pack s 640 0 1;
#X obj 90 15 r \$1-enabled;
#X obj 90 38 select \$2;
#X obj 431 308 r \$1-width;
#X obj 476 343 symbol \$0-sweep;
#X obj 370 345 symbol \$1-array;
#X obj 351 236 r \$1-refresh;
#X obj 188 527 throw~ \$1-right;
#X obj 85 525 throw~ \$1-left;
#X obj 474 368 pack s 320 36 72;
#X obj 210 424 dbtorms;
#X obj 209 401 + 100;
#X obj 191 105 vsl 15 50 -100 0 0 0 empty empty empty 0 -9 0 10 -258113
-1 -1 4900 1;
#X obj 83 454 *~ 0;
#X obj 219 143 nbx 5 14 -1e+37 1e+37 0 0 empty empty empty 0 -8 0 10
-262144 -1 -1 0 256;
#X obj 200 49 loadbang;
#X text 216 123 gain (dB);
#X msg 201 70 0;
#X connect 0 0 2 0;
#X connect 1 0 28 0;
#X connect 2 0 3 0;
#X connect 2 0 10 1;
#X connect 2 0 16 0;
#X connect 2 0 23 0;
#X connect 3 0 15 0;
#X connect 4 0 20 0;
#X connect 5 0 0 0;
#X connect 5 0 11 0;
#X connect 5 0 10 0;
#X connect 5 0 7 1;
#X connect 7 0 9 0;
#X connect 9 0 8 0;
#X connect 9 1 34 0;
#X connect 9 2 33 0;
#X connect 12 0 5 0;
#X connect 13 0 5 0;
#X connect 15 0 2 1;
#X connect 16 0 4 0;
#X connect 17 0 18 0;
#X connect 18 0 42 0;
#X connect 19 0 18 1;
#X connect 20 0 19 0;
#X connect 21 0 25 0;
#X connect 24 0 27 0;
#X connect 24 0 0 1;
#X connect 25 0 26 0;
#X connect 26 0 24 0;
#X connect 28 0 21 0;
#X connect 29 0 8 1;
#X connect 30 0 31 0;
#X connect 31 0 12 0;
#X connect 31 1 13 0;
#X connect 32 0 29 1;
#X connect 33 0 38 0;
#X connect 34 0 29 0;
#X connect 35 0 7 0;
#X connect 38 0 8 2;
#X connect 39 0 42 1;
#X connect 40 0 39 0;
#X connect 41 0 40 0;
#X connect 41 0 43 0;
#X connect 42 0 37 0;
#X connect 42 0 36 0;
#X connect 44 0 46 0;
#X connect 46 0 41 0;
#X coords 0 -1 1 1 300 60 1 100 100;
