#N canvas 496 479 395 414 10;
#X obj 309 317 timer;
#X obj 131 96 t b b;
#X obj 137 187 f;
#X obj 102 238 > \$1;
#X text 151 238 milliseconds;
#X obj 89 268 select 1;
#X obj 77 310 t b b;
#X obj 89 367 outlet;
#X obj 108 60 inlet tick;
#X obj 309 292 loadbang;
#X obj 126 337 t b b;
#X obj 265 81 inlet interval;
#X connect 0 0 2 1;
#X connect 1 0 2 0;
#X connect 1 1 0 1;
#X connect 2 0 3 0;
#X connect 3 0 5 0;
#X connect 5 0 6 0;
#X connect 6 0 7 0;
#X connect 6 1 10 0;
#X connect 8 0 1 0;
#X connect 9 0 0 0;
#X connect 10 1 0 0;
#X connect 11 0 3 1;
