#N canvas 572 211 566 385 10;
#N canvas 0 0 450 300 (subpatch) 0;
#X array \$0-array2 10 float 2;
#X coords 0 60 10 84 200 140 1;
#X restore 274 -221 graph;
#N canvas 0 0 450 300 (subpatch) 0;
#X array \$0-array1 100 float 2;
#X coords 0 1 99 -1 200 140 1;
#X restore 32 -220 graph;
#X obj 140 -13 symbol \$0-array1;
#X obj 359 -14 symbol \$0-array2;
#X obj 140 8 pack s 100 -1 1;
#X obj 359 7 pack s 10 60 84;
#X obj 92 -70 bng 15 250 50 0 empty empty empty 17 7 0 10 -262144 -1
-1;
#X obj 92 -50 t b b;
#X obj 57 59 vanilla.table.transfer;
#X connect 2 0 4 0;
#X connect 3 0 5 0;
#X connect 4 0 8 1;
#X connect 5 0 8 2;
#X connect 6 0 7 0;
#X connect 7 0 8 0;
#X connect 7 1 2 0;
#X connect 7 1 3 0;
