#N canvas 80 305 920 570 10;
#N canvas 0 22 450 300 (subpatch) 0;
#X array \$0-array 8 float 2;
#X coords 0 96 8 48 320 48 1;
#X restore 274 93 graph;
#X obj 98 160 tabread \$0-array;
#X obj 69 409 osc~;
#X msg 656 193 \; pd dsp \$1;
#X obj 659 138 tgl 50 0 empty empty compute_audio 17 7 0 10 -258113
-1 -1 1 1;
#X obj 660 113 loadbang;
#X obj 73 472 dac~;
#X obj 182 445 dbtorms;
#X obj 181 422 + 100;
#X obj 385 379 vsl 15 128 -100 0 0 0 empty empty empty 0 -9 0 10 -258113
-1 -1 10160 1;
#X msg 384 351 -20;
#X obj 386 328 loadbang;
#X obj 75 446 *~ 0;
#X text 407 384 volume (dB);
#X obj 107 93 metro;
#X obj 139 20 loadbang;
#X msg 139 44 120;
#X floatatom 139 68 5 0 0 0 - - -;
#X text 174 67 Tempo (BPM);
#X obj 103 116 f 0;
#X obj 134 116 + 1;
#X obj 133 137 % 8;
#X text 301 20 Eight-step melodic sequencer;
#X obj 98 223 t f b;
#X floatatom 139 262 5 0 0 0 - - -;
#X obj 70 336 mtof;
#X obj 95 196 int;
#X floatatom 57 140 5 0 0 0 - - -;
#X obj 32 45 tgl 15 0 empty empty empty 17 7 0 10 -258113 -1 -1 1 1
;
#X obj 28 21 loadbang;
#X floatatom 186 130 5 0 0 0 - - -;
#X floatatom 99 369 5 0 0 0 - - -;
#X obj 95 307 musical.closest.note;
#X msg 244 289 0 2 4 7 9;
#X msg 241 245 0 2 4 5 7 9 11;
#X text 341 243 C scale;
#X obj 240 217 loadbang;
#X msg 241 268 0 1 2 3 4 5 6 7 8 9 10 11;
#X text 403 270 Chromatic;
#X text 312 288 Pentatonic in C;
#X obj 645 437 t f b;
#X obj 628 379 t a b;
#X msg 704 429 0;
#X obj 667 468 f 0;
#X obj 697 470 + 1;
#X obj 624 511 tabwrite \$0-array;
#X obj 626 322 loadbang;
#X msg 625 349 60 62 64 65 67 68 69 71 72 74 76 77 79;
#X obj 626 407 vanilla.drip;
#X connect 1 0 26 0;
#X connect 2 0 12 0;
#X connect 4 0 3 0;
#X connect 5 0 4 0;
#X connect 7 0 12 1;
#X connect 8 0 7 0;
#X connect 9 0 8 0;
#X connect 10 0 9 0;
#X connect 11 0 10 0;
#X connect 12 0 6 0;
#X connect 12 0 6 1;
#X connect 14 0 19 0;
#X connect 15 0 16 0;
#X connect 16 0 17 0;
#X connect 17 0 14 1;
#X connect 19 0 20 0;
#X connect 19 0 1 0;
#X connect 19 0 27 0;
#X connect 20 0 21 0;
#X connect 21 0 19 1;
#X connect 23 0 24 0;
#X connect 23 0 32 0;
#X connect 25 0 2 0;
#X connect 25 0 31 0;
#X connect 26 0 23 0;
#X connect 28 0 14 0;
#X connect 29 0 28 0;
#X connect 30 0 1 0;
#X connect 32 0 25 0;
#X connect 33 0 32 1;
#X connect 34 0 32 1;
#X connect 36 0 34 0;
#X connect 37 0 32 1;
#X connect 40 0 45 0;
#X connect 40 1 43 0;
#X connect 41 0 48 0;
#X connect 41 1 42 0;
#X connect 42 0 43 1;
#X connect 43 0 44 0;
#X connect 43 0 45 1;
#X connect 44 0 43 1;
#X connect 46 0 47 0;
#X connect 47 0 41 0;
#X connect 48 0 40 0;
