#N canvas 939 82 920 570 10;
#N canvas 0 22 450 300 (subpatch) 0;
#X array \$0-array 16 float 2;
#X coords 0 96 16 48 320 48 1;
#X restore 288 92 graph;
#X obj 98 160 tabread \$0-array;
#X obj 53 448 osc~;
#X msg 656 193 \; pd dsp \$1;
#X obj 659 138 tgl 50 0 empty empty compute_audio 17 7 0 10 -258113
-1 -1 1 1;
#X obj 660 113 loadbang;
#X obj 47 520 dac~;
#X obj 182 445 dbtorms;
#X obj 181 422 + 100;
#X obj 385 379 vsl 15 128 -100 0 0 0 empty empty empty 0 -9 0 10 -258113
-1 -1 7060 1;
#X msg 384 351 -20;
#X obj 386 328 loadbang;
#X obj 49 494 *~ 0;
#X text 407 384 volume (dB);
#X obj 35 79 metro;
#X obj 92 10 loadbang;
#X floatatom 92 58 5 0 0 0 - - -;
#X text 130 55 Tempo (BPM);
#X obj 103 116 f 0;
#X obj 134 116 + 1;
#X obj 133 137 % 8;
#X text 301 20 Eight-step melodic sequencer;
#X obj 98 223 t f b;
#X floatatom 139 262 5 0 0 0 - - -;
#X obj 80 314 mtof;
#X obj 95 196 int;
#X floatatom 57 140 5 0 0 0 - - -;
#X obj 32 45 tgl 15 0 empty empty empty 17 7 0 10 -258113 -1 -1 1 1
;
#X obj 28 21 loadbang;
#X floatatom 186 130 5 0 0 0 - - -;
#X floatatom 20 365 5 0 0 0 - - -;
#X obj 81 288 musical.closest.note;
#X msg 244 289 0 2 4 7 9;
#X msg 241 245 0 2 4 5 7 9 11;
#X text 341 243 C scale;
#X obj 240 217 loadbang;
#X msg 241 268 0 1 2 3 4 5 6 7 8 9 10 11;
#X text 403 270 Chromatic;
#X text 312 288 Pentatonic in C;
#X obj 645 437 t f b;
#X obj 628 379 t a b;
#X msg 704 429 0;
#X obj 667 468 f 0;
#X obj 697 470 + 1;
#X obj 624 511 tabwrite \$0-array;
#X obj 626 322 loadbang;
#X obj 626 407 vanilla.drip;
#X obj 138 488 vanilla.write.wav~;
#X msg 490 200 16;
#X obj 484 177 loadbang;
#X obj 489 242 value \$0-length;
#X obj 187 104 value \$0-length;
#X obj 191 85 loadbang;
#X obj 253 83 bng 15 250 50 0 empty empty empty 17 7 0 10 -262144 -1
-1;
#X obj 83 441 line~;
#X obj 49 471 *~;
#X obj 55 395 t f b;
#X obj 104 339 t b b f;
#X obj 81 374 f;
#X msg 82 415 1 5;
#X msg 195 391 0 50;
#X obj 106 360 del 50;
#X msg 625 349 60 62 64 65 67 68 69 71 72 74 76 77 79 80 81 60 59 57
55 54 53;
#X obj 91 75 vanilla.bpm2ms;
#X msg 92 34 480;
#X connect 1 0 25 0;
#X connect 2 0 55 0;
#X connect 4 0 3 0;
#X connect 5 0 4 0;
#X connect 7 0 12 1;
#X connect 8 0 7 0;
#X connect 9 0 8 0;
#X connect 10 0 9 0;
#X connect 11 0 10 0;
#X connect 12 0 6 0;
#X connect 12 0 6 1;
#X connect 12 0 47 0;
#X connect 12 0 47 1;
#X connect 14 0 18 0;
#X connect 15 0 64 0;
#X connect 16 0 63 0;
#X connect 18 0 19 0;
#X connect 18 0 1 0;
#X connect 18 0 26 0;
#X connect 19 0 20 0;
#X connect 20 0 18 1;
#X connect 22 0 23 0;
#X connect 22 0 31 0;
#X connect 24 0 30 0;
#X connect 24 0 57 0;
#X connect 25 0 22 0;
#X connect 27 0 14 0;
#X connect 28 0 27 0;
#X connect 29 0 1 0;
#X connect 31 0 24 0;
#X connect 32 0 31 1;
#X connect 33 0 31 1;
#X connect 35 0 33 0;
#X connect 36 0 31 1;
#X connect 39 0 44 0;
#X connect 39 1 42 0;
#X connect 40 0 46 0;
#X connect 40 1 41 0;
#X connect 41 0 42 1;
#X connect 42 0 43 0;
#X connect 42 0 44 1;
#X connect 43 0 42 1;
#X connect 45 0 62 0;
#X connect 46 0 39 0;
#X connect 48 0 50 0;
#X connect 49 0 48 0;
#X connect 51 0 20 1;
#X connect 52 0 51 0;
#X connect 53 0 51 0;
#X connect 54 0 55 1;
#X connect 55 0 12 0;
#X connect 56 0 2 0;
#X connect 56 1 59 0;
#X connect 57 0 61 0;
#X connect 57 1 60 0;
#X connect 57 2 58 1;
#X connect 58 0 56 0;
#X connect 59 0 54 0;
#X connect 60 0 54 0;
#X connect 61 0 58 0;
#X connect 62 0 40 0;
#X connect 63 0 14 1;
#X connect 64 0 16 0;
