#N canvas 0 22 454 304 10;
#X obj 87 87 GEMglLineWidth;
#X obj 113 41 inlet;
#X obj 117 161 outlet;
#X obj 223 52 inlet;
#X obj 308 150 loadbang;
#X obj 313 176 f \$1;
#X connect 0 0 2 0;
#X connect 1 0 0 0;
#X connect 3 0 0 1;
#X connect 4 0 5 0;
#X connect 5 0 0 1;
