#N canvas 100 120 1024 672 10;
#N canvas 0 1 770 479 video 0;
#X obj 101 261 gemwin;
#X msg 156 229 0 \, destroy;
#X obj 261 203 gemhead;
#X obj 261 239 pix_video;
#X obj 219 334 pix_texture;
#X msg 108 211 dimen 320 240 \, create \, 1;
#X obj 110 133 tgl 50 0 empty empty GEM_Window 17 7 0 10 -258113 -1
-1 1 1;
#X obj 109 185 select 1 0;
#X obj 104 42 loadbang;
#X msg 315 221 device 1;
#N canvas 162 133 570 420 serin 0;
#X obj 205 60 cnv 20 20 20 empty \$0-open-canvas 1 4 10 0 16 -233017
-1 0;
#X obj 60 61 hradio 18 1 1 8 empty empty empty 0 -6 0 8 -258113 -1
-1 1;
#X obj 60 13 inlet;
#X msg 200 202 label \$1;
#X obj 200 180 makefilename %d;
#X obj 59 108 int;
#X obj 59 337 outlet;
#X msg 201 306 set \$1 \$2;
#X obj 59 266 trigger bang anything;
#X obj 201 286 list;
#X obj 200 225 send \$0-open-canvas;
#X msg 60 210 device \$1;
#X connect 1 0 5 0;
#X connect 2 0 1 0;
#X connect 3 0 10 0;
#X connect 4 0 3 0;
#X connect 5 0 4 0;
#X connect 5 0 11 0;
#X connect 7 0 6 0;
#X connect 8 0 6 0;
#X connect 8 1 9 0;
#X connect 9 0 7 0;
#X connect 11 0 8 0;
#X coords 0 -1 1 1 165 20 1 60 60;
#X restore 217 162 pd serin;
#X msg 463 46 dimen 320 240;
#X obj 463 24 loadbang;
#X obj 497 225 loadbang;
#X obj 103 64 delay 1000;
#X obj 125 607 pix_data;
#X obj 261 262 pix_invert;
#X obj 219 358 rectangle 5.33333 4;
#X obj 31 292 metro 250;
#X obj 176 109 tgl 15 0 empty empty read_pixels 17 7 0 10 -258113 -1
-1 1 1;
#X obj 178 77 loadbang;
#X obj 97 440 until;
#X obj 205 383 pix_info -----------------;
#X obj 97 374 f 320;
#X obj 97 464 f 0;
#X obj 97 397 t f b;
#X msg 123 419 0;
#X obj 125 466 + 1;
#X obj 241 484 until;
#X obj 241 508 f 0;
#X obj 241 440 t f b;
#X msg 267 462 0;
#X obj 269 510 + 1;
#X obj 241 415 f 240;
#X obj 182 655 > 0;
#X floatatom 217 624 5 0 0 0 - - -;
#X msg 220 602 0;
#X obj 218 580 loadbang;
#X text 257 623 threshold;
#X obj 237 662 select 1;
#N canvas 0 22 450 300 (subpatch) 0;
#X array \$0-array 320 float 2;
#X coords 0 1 319 0 320 240 1;
#X restore 389 345 graph;
#X obj 90 701 tabwrite \$0-array;
#X obj 73 665 f;
#X obj 347 258 tgl 15 0 empty empty enable 17 7 0 10 -258113 -1 -1
0 1;
#X obj 348 238 loadbang;
#X obj 306 301 tgl 15 0 empty empty enable 17 7 0 10 -258113 -1 -1
0 1;
#X obj 306 280 loadbang;
#X obj 101 491 t b f b;
#X obj 169 569 t b f f;
#X text 232 687 If > thresh stop looping on Y and write to table at
X position;
#X obj 597 675 pack f f;
#X obj 596 722 print tabwrite;
#X obj 597 631 spigot;
#X obj 631 609 tgl 15 0 empty empty print 17 7 0 10 -258113 -1 -1 0
1;
#X obj 150 670 f;
#X obj 83 631 t b b;
#X obj 597 652 t f;
#X msg 597 697 \$2 \$1;
#N canvas 0 22 450 300 grey 0;
#X obj 216 114 inlet;
#X obj 214 177 +;
#X obj 211 226 +;
#X obj 213 261 outlet;
#X obj 218 139 unpack f f f;
#X connect 0 0 4 0;
#X connect 1 0 2 0;
#X connect 2 0 3 0;
#X connect 4 0 1 0;
#X connect 4 1 1 1;
#X connect 4 2 2 1;
#X restore 141 631 pd grey;
#X obj 117 555 / 320;
#X obj 182 597 / 240;
#X msg 362 312 \$1 \$1 \$1;
#X msg 465 294 1 1 1;
#X msg 519 289 0 0 0;
#X obj 213 286 pix_duotone;
#X obj 578 21 loadbang;
#X obj 271 127 hsl 100 15 0 1 0 0 empty empty threshold -2 -8 0 10
-258113 -1 -1 6300 1;
#X obj 269 52 loadbang;
#X msg 269 77 0.8;
#X text 218 144 Video camera;
#X msg 580 44 1;
#X obj -1 361 s \$0-refresh;
#X obj -1 387 r \$0-refresh;
#X obj 26 324 t b b;
#X obj -6 460 value \$0-width;
#X obj 293 436 value \$0-height;
#X connect 1 0 0 0;
#X connect 2 0 3 0;
#X connect 3 0 16 0;
#X connect 4 0 17 0;
#X connect 5 0 0 0;
#X connect 6 0 7 0;
#X connect 7 0 5 0;
#X connect 7 1 1 0;
#X connect 8 0 14 0;
#X connect 9 0 3 0;
#X connect 10 0 9 0;
#X connect 11 0 3 0;
#X connect 12 0 11 0;
#X connect 13 0 62 0;
#X connect 13 0 63 0;
#X connect 14 0 6 0;
#X connect 15 1 58 0;
#X connect 16 0 64 0;
#X connect 18 0 73 0;
#X connect 19 0 18 0;
#X connect 20 0 19 0;
#X connect 21 0 24 0;
#X connect 22 1 23 1;
#X connect 22 2 33 1;
#X connect 23 0 25 0;
#X connect 23 0 59 1;
#X connect 23 0 74 0;
#X connect 24 0 27 0;
#X connect 24 0 47 0;
#X connect 25 0 21 0;
#X connect 25 1 26 0;
#X connect 26 0 24 1;
#X connect 27 0 24 1;
#X connect 28 0 29 0;
#X connect 29 0 32 0;
#X connect 29 0 48 0;
#X connect 30 0 28 0;
#X connect 30 1 31 0;
#X connect 31 0 29 1;
#X connect 32 0 29 1;
#X connect 33 0 30 0;
#X connect 33 0 60 1;
#X connect 33 0 75 0;
#X connect 34 0 39 0;
#X connect 35 0 34 1;
#X connect 36 0 35 0;
#X connect 37 0 36 0;
#X connect 39 0 28 1;
#X connect 42 0 41 0;
#X connect 42 0 52 0;
#X connect 43 0 16 0;
#X connect 44 0 43 0;
#X connect 45 0 64 0;
#X connect 46 0 45 0;
#X connect 47 0 55 0;
#X connect 47 1 54 1;
#X connect 47 1 59 0;
#X connect 47 2 33 0;
#X connect 48 0 15 0;
#X connect 48 1 60 0;
#X connect 50 0 57 0;
#X connect 52 0 56 0;
#X connect 53 0 52 1;
#X connect 54 0 41 1;
#X connect 54 0 50 1;
#X connect 55 0 42 0;
#X connect 55 1 54 0;
#X connect 56 0 50 0;
#X connect 57 0 51 0;
#X connect 58 0 34 0;
#X connect 59 0 15 2;
#X connect 60 0 15 3;
#X connect 60 0 42 1;
#X connect 61 0 64 1;
#X connect 62 0 64 2;
#X connect 63 0 64 3;
#X connect 64 0 15 1;
#X connect 64 0 4 0;
#X connect 64 0 22 0;
#X connect 65 0 70 0;
#X connect 66 0 61 0;
#X connect 67 0 68 0;
#X connect 68 0 66 0;
#X connect 70 0 10 0;
#X connect 73 0 71 0;
#X connect 73 1 23 0;
#X coords 0 -1 1 1 300 100 1 100 100;
#X restore 27 5 pd video;
