#N canvas 155 457 744 422 10;
#N canvas 194 579 745 336 game-selector 0;
#X obj 239 117 hradio 30 1 0 5 empty empty Choose_game 0 -8 0 10 -258113
-1 -1 0;
#X obj 220 46 loadbang;
#X msg 215 70 0;
#X obj 467 76 gemkeyboard;
#X obj 461 105 select 10 11 12 13 14 15 16 17 18 19 20;
#X obj 469 186 f;
#X obj 275 302 s \$0-enabled;
#X msg 532 289 -1;
#X msg 462 132 1;
#X msg 495 136 2;
#X msg 531 138 3;
#X msg 571 136 4;
#X msg 605 138 5;
#X obj 282 242 + 1;
#X obj 439 211 - 1;
#X text 248 145 1;
#X text 279 146 2;
#X text 309 146 3;
#X text 340 146 4;
#X text 371 145 5;
#X obj 67 193 gemhead 200;
#X obj 72 274 text2d;
#X msg 217 270 text \$1;
#X obj 142 148 loadbang;
#X msg 165 169 36;
#X msg 142 189 font DejaVuSerif-Bold.ttf;
#X obj 69 242 color 1 0 0;
#X floatatom 568 85 5 0 0 0 - - -;
#X obj 524 259 t b b;
#X msg 424 273 symbol MUTE;
#X obj 70 219 translateXYZ -4.1 -3.1 0;
#X connect 0 0 13 0;
#X connect 1 0 2 0;
#X connect 2 0 0 0;
#X connect 3 0 4 0;
#X connect 3 0 27 0;
#X connect 4 0 8 0;
#X connect 4 1 9 0;
#X connect 4 2 10 0;
#X connect 4 3 11 0;
#X connect 4 4 12 0;
#X connect 4 9 28 0;
#X connect 5 0 14 0;
#X connect 7 0 6 0;
#X connect 8 0 5 0;
#X connect 9 0 5 0;
#X connect 10 0 5 0;
#X connect 11 0 5 0;
#X connect 12 0 5 0;
#X connect 13 0 6 0;
#X connect 13 0 22 0;
#X connect 14 0 0 0;
#X connect 20 0 30 0;
#X connect 22 0 21 0;
#X connect 23 0 24 0;
#X connect 23 0 25 0;
#X connect 24 0 21 1;
#X connect 25 0 21 0;
#X connect 26 0 21 0;
#X connect 28 0 29 0;
#X connect 28 1 7 0;
#X connect 29 0 22 0;
#X connect 30 0 26 0;
#X coords 0 -1 1 1 300 60 1 100 100;
#X restore 28 324 pd game-selector;
#X obj 341 5 toy.melodic.sequencer \$0 1;
#X obj 347 152 toy.sweep \$0 3;
#X obj 348 232 toy.wave.shape \$0 4;
#X obj 27 117 syn.audio.output \$0;
#X obj 342 77 toy.amplitude \$0 2;
#X obj 27 5 syn.video.input \$0;
#X obj 350 323 toy.additive \$0 5;
