#N canvas 67 107 361 478 10;
#N canvas 681 100 816 771 video 0;
#X obj 124 299 gemwin;
#X msg 156 229 0 \, destroy;
#X obj 261 239 pix_video;
#X obj 219 334 pix_texture;
#X msg 108 211 dimen 320 240 \, create \, 1;
#X obj 110 133 tgl 50 0 empty empty GEM_Window 17 7 0 10 -258113 -1
-1 1 1;
#X obj 109 185 select 1 0;
#X obj 104 42 loadbang;
#X msg 315 221 device 1;
#N canvas 162 133 570 420 serin 0;
#X obj 205 60 cnv 20 20 20 empty \$0-open-canvas 1 4 10 0 16 -233017
-1 0;
#X obj 60 61 hradio 18 1 1 8 empty empty empty 0 -6 0 8 -258113 -1
-1 1;
#X obj 60 13 inlet;
#X msg 200 202 label \$1;
#X obj 200 180 makefilename %d;
#X obj 59 108 int;
#X obj 59 337 outlet;
#X msg 201 306 set \$1 \$2;
#X obj 59 266 trigger bang anything;
#X obj 201 286 list;
#X obj 200 225 send \$0-open-canvas;
#X msg 60 210 device \$1;
#X connect 1 0 5 0;
#X connect 2 0 1 0;
#X connect 3 0 10 0;
#X connect 4 0 3 0;
#X connect 5 0 4 0;
#X connect 5 0 11 0;
#X connect 7 0 6 0;
#X connect 8 0 6 0;
#X connect 8 1 9 0;
#X connect 9 0 7 0;
#X connect 11 0 8 0;
#X coords 0 -1 1 1 165 20 1 60 60;
#X restore 217 162 pd serin;
#X msg 463 46 dimen 320 240;
#X obj 463 24 loadbang;
#X obj 497 225 loadbang;
#X obj 103 64 delay 1000;
#X obj 119 602 pix_data;
#X obj 261 262 pix_invert;
#X obj 219 358 rectangle 5.33333 4;
#X obj 31 292 metro 250;
#X obj 176 109 tgl 15 0 empty empty read_pixels 17 7 0 10 -258113 -1
-1 1 1;
#X obj 178 77 loadbang;
#X obj 97 440 until;
#X obj 205 383 pix_info -----------------;
#X obj 97 374 f 320;
#X obj 97 464 f 0;
#X obj 97 397 t f b;
#X msg 123 419 0;
#X obj 125 466 + 1;
#X obj 241 484 until;
#X obj 241 508 f 0;
#X obj 241 440 t f b;
#X obj 241 415 f 240;
#X floatatom 217 624 5 0 0 0 - - -;
#X msg 220 602 0;
#X obj 218 580 loadbang;
#X text 257 623 threshold;
#X obj 224 677 select 1;
#X obj 83 737 tabwrite \$0-array;
#X obj 73 665 f;
#X obj 348 242 tgl 15 0 empty empty enable_invert 17 7 0 10 -258113
-1 -1 0 1;
#X obj 383 204 loadbang;
#X obj 306 301 tgl 15 0 empty empty enable 17 7 0 10 -258113 -1 -1
1 1;
#X obj 306 280 loadbang;
#X obj 101 491 t b f b;
#X obj 169 569 t b f f;
#X obj 597 675 pack f f;
#X obj 596 722 print tabwrite;
#X obj 597 631 spigot;
#X obj 631 609 tgl 15 0 empty empty print 17 7 0 10 -258113 -1 -1 0
1;
#X obj 148 701 f;
#X obj 83 631 t b b;
#X obj 597 652 t f;
#X msg 597 697 \$2 \$1;
#N canvas 67 83 450 300 grey 0;
#X obj 216 114 inlet;
#X obj 214 177 +;
#X obj 211 226 +;
#X obj 213 261 outlet;
#X obj 218 139 unpack f f f;
#X connect 0 0 4 0;
#X connect 1 0 2 0;
#X connect 2 0 3 0;
#X connect 4 0 1 0;
#X connect 4 1 1 1;
#X connect 4 2 2 1;
#X restore 141 631 pd grey;
#X obj 117 555 / 320;
#X obj 182 597 / 240;
#X msg 362 312 \$1 \$1 \$1;
#X msg 465 294 1 1 1;
#X msg 519 289 0 0 0;
#X obj 213 286 pix_duotone;
#X obj 578 21 loadbang;
#X obj 271 127 hsl 100 15 0 1 0 0 empty empty threshold -2 -8 0 10
-258113 -1 -1 7920 1;
#X obj 269 52 loadbang;
#X msg 269 77 0.8;
#X text 218 144 Video camera;
#X msg 580 44 1;
#X obj -1 361 s \$0-refresh;
#X obj -1 387 r \$0-refresh;
#X obj 26 324 t b b;
#X obj -6 460 value \$0-width;
#X obj 293 436 value \$0-height;
#X obj 306 481 f 240;
#X obj 269 510 - 1;
#X obj 261 203 gemhead 50;
#X msg 43 246 dimen 640 480 \, create \, 1;
#X obj 194 136 hradio 15 1 0 2 empty empty window_size 0 -8 0 10 -258113
-1 -1 0;
#X obj 29 167 sel 0 1;
#X obj 48 122 t f b;
#X msg 383 223 0;
#X obj 464 381 table \$0-array 320;
#X obj 188 653 > 0;
#X text 221 696 If > thresh stop looping on Y and write to table at
X position;
#X connect 1 0 0 0;
#X connect 2 0 15 0;
#X connect 3 0 16 0;
#X connect 4 0 0 0;
#X connect 5 0 6 0;
#X connect 6 0 4 0;
#X connect 6 1 1 0;
#X connect 7 0 13 0;
#X connect 8 0 2 0;
#X connect 9 0 8 0;
#X connect 10 0 2 0;
#X connect 11 0 10 0;
#X connect 12 0 56 0;
#X connect 12 0 57 0;
#X connect 13 0 5 0;
#X connect 14 1 52 0;
#X connect 15 0 58 0;
#X connect 17 0 67 0;
#X connect 18 0 17 0;
#X connect 19 0 18 0;
#X connect 20 0 23 0;
#X connect 21 1 22 1;
#X connect 21 2 30 1;
#X connect 22 0 24 0;
#X connect 22 0 53 1;
#X connect 22 0 68 0;
#X connect 23 0 26 0;
#X connect 23 0 42 0;
#X connect 24 0 20 0;
#X connect 24 1 25 0;
#X connect 25 0 23 1;
#X connect 26 0 23 1;
#X connect 27 0 28 0;
#X connect 28 0 43 0;
#X connect 28 0 71 0;
#X connect 29 0 27 0;
#X connect 29 1 70 0;
#X connect 30 0 29 0;
#X connect 30 0 54 1;
#X connect 30 0 69 0;
#X connect 30 0 70 1;
#X connect 31 0 79 1;
#X connect 32 0 31 0;
#X connect 33 0 32 0;
#X connect 35 0 27 1;
#X connect 37 0 36 0;
#X connect 37 0 46 0;
#X connect 38 0 15 0;
#X connect 39 0 77 0;
#X connect 40 0 58 0;
#X connect 41 0 40 0;
#X connect 42 0 49 0;
#X connect 42 1 48 1;
#X connect 42 1 53 0;
#X connect 42 2 30 0;
#X connect 43 0 14 0;
#X connect 43 1 54 0;
#X connect 44 0 51 0;
#X connect 46 0 50 0;
#X connect 47 0 46 1;
#X connect 48 0 36 1;
#X connect 48 0 44 1;
#X connect 49 0 37 0;
#X connect 49 1 48 0;
#X connect 50 0 44 0;
#X connect 51 0 45 0;
#X connect 52 0 79 0;
#X connect 53 0 14 2;
#X connect 54 0 14 3;
#X connect 54 0 37 1;
#X connect 55 0 58 1;
#X connect 56 0 58 2;
#X connect 57 0 58 3;
#X connect 58 0 14 1;
#X connect 58 0 3 0;
#X connect 58 0 21 0;
#X connect 59 0 64 0;
#X connect 60 0 55 0;
#X connect 61 0 62 0;
#X connect 62 0 60 0;
#X connect 64 0 9 0;
#X connect 67 0 65 0;
#X connect 67 1 22 0;
#X connect 70 0 28 1;
#X connect 71 0 28 1;
#X connect 72 0 2 0;
#X connect 73 0 0 0;
#X connect 74 0 76 0;
#X connect 75 0 4 0;
#X connect 75 1 73 0;
#X connect 76 0 75 0;
#X connect 76 1 1 0;
#X connect 77 0 38 0;
#X connect 79 0 35 0;
#X coords 0 -1 1 1 300 100 1 100 100;
#X restore 27 5 pd video;
#N canvas 67 95 578 616 audio-output 0;
#X obj 278 239 vanilla.write.wav~;
#X obj 54 40 catch~ \$0-left;
#X obj 236 36 catch~ \$0-right;
#X msg 77 449 \; pd dsp \$1;
#X obj 105 225 tgl 50 0 empty empty compute_audio 17 7 0 10 -258113
-1 -1 1 1;
#X obj 240 167 loadbang;
#X obj 134 102 dbtorms;
#X obj 133 79 + 100;
#X obj 212 233 vsl 15 50 -100 0 0 0 empty empty Volume 0 -9 0 10 -258113
-1 -1 4900 1;
#X msg 368 112 -20;
#X obj 367 83 loadbang;
#X obj 61 138 *~ 0;
#X text 140 292 volume (dB);
#X obj 184 141 *~ 0;
#X obj 13 341 dac~;
#X obj 212 293 nbx 5 14 -1e+37 1e+37 0 0 empty empty empty 0 -8 0 10
-262144 -1 -1 0 256;
#X text 280 221 save to file;
#X connect 1 0 11 0;
#X connect 2 0 13 0;
#X connect 4 0 3 0;
#X connect 5 0 4 0;
#X connect 6 0 11 1;
#X connect 7 0 6 0;
#X connect 8 0 7 0;
#X connect 8 0 15 0;
#X connect 9 0 8 0;
#X connect 10 0 9 0;
#X connect 11 0 0 0;
#X connect 11 0 14 0;
#X connect 13 0 0 1;
#X connect 13 0 14 1;
#X coords 0 -1 1 1 300 110 1 100 200;
#X restore 30 270 pd audio-output;
#N canvas 308 362 839 663 audio-melodic-step-sequencer 0;
#X obj 159 240 metro;
#X obj 279 44 loadbang;
#X text 334 130 Tempo (BPM);
#X obj 173 261 f 0;
#X obj 210 244 + 1;
#X obj 168 368 t f b;
#X floatatom 209 407 5 0 0 0 - - -;
#X obj 150 459 mtof;
#X obj 165 341 int;
#X floatatom 127 285 5 0 0 0 - - -;
#X obj 110 113 tgl 15 0 empty empty enabled 17 7 0 10 -258113 -1 -1
1 1;
#X floatatom 235 284 5 0 0 0 - - -;
#X floatatom 90 510 5 0 0 0 - - -;
#X obj 151 433 musical.closest.note;
#X msg 314 434 0 2 4 7 9;
#X msg 311 390 0 2 4 5 7 9 11;
#X text 411 388 C scale;
#X obj 310 362 loadbang;
#X msg 311 413 0 1 2 3 4 5 6 7 8 9 10 11;
#X text 473 415 Chromatic;
#X text 382 433 Pentatonic in C;
#X obj 153 586 line~;
#X obj 119 616 *~;
#X obj 125 540 t f b;
#X obj 174 484 t b b f;
#X obj 151 519 f;
#X msg 152 560 1 5;
#X msg 265 536 0 50;
#X obj 176 505 del 50;
#X obj 346 285 vanilla.bpm2ms;
#X msg 281 72 480;
#X obj 209 265 % 16;
#X obj 168 305 tabread \$0-melody;
#X text 230 262 table length;
#X obj 119 692 throw~ \$0-left;
#X obj 229 695 throw~ \$0-right;
#X obj 275 129 nbx 5 14 -1e+37 1e+37 0 0 empty empty empty 0 -8 0 10
-258113 -1 -1 480 256;
#X obj 545 273 spigot;
#X obj 553 236 r \$0-refresh;
#X obj 548 405 vanilla.table.transfer;
#X obj 551 314 t b b b;
#X obj 572 345 symbol \$0-array;
#X obj 570 370 pack s 320 0 1;
#X obj 678 343 symbol \$0-melody;
#X obj 676 368 pack s 16 48 72;
#N canvas 67 83 788 663 GEM-output 0;
#X obj 219 389 f 0;
#X obj 257 394 + 1;
#X obj 214 433 tabread \$0-melody;
#X text 211 300 table length;
#X obj 81 536 color 1 0 0;
#X obj 81 562 rectangle 0.25 0.125;
#X obj 137 255 repeat 16;
#X obj 152 201 t a b;
#X msg 252 367 0;
#X obj 139 325 t a b;
#X obj 81 504 translateXYZ;
#X obj 278 56 inlet;
#X obj 152 166 spigot;
#X obj 123 467 vanilla.scale.linear 0 16 -5.33333 5.33333;
#X obj 148 98 gemhead 100;
#X obj 181 498 vanilla.scale.linear 48 72 -4 4;
#X obj 305 600 print;
#X obj 308 544 pack f f;
#X obj 309 576 spigot;
#X obj 388 549 tgl 15 0 empty empty empty 17 7 0 10 -262144 -1 -1 0
1;
#X obj 136 288 separator;
#X text 328 52 enabled;
#X obj 458 89 inlet;
#X text 510 89 current index playing;
#X msg 479 339 1 0 0;
#X msg 538 343 0.5 0.5 0.5;
#X obj 480 299 select 0;
#X connect 0 0 1 0;
#X connect 0 0 2 0;
#X connect 0 0 13 0;
#X connect 0 0 26 0;
#X connect 1 0 0 1;
#X connect 2 0 15 0;
#X connect 4 0 5 0;
#X connect 6 0 20 0;
#X connect 7 0 6 0;
#X connect 7 1 8 0;
#X connect 8 0 0 1;
#X connect 9 0 10 0;
#X connect 9 1 0 0;
#X connect 10 0 4 0;
#X connect 11 0 12 1;
#X connect 12 0 7 0;
#X connect 13 0 10 1;
#X connect 13 0 17 0;
#X connect 14 0 12 0;
#X connect 15 0 10 2;
#X connect 15 0 17 1;
#X connect 17 0 18 0;
#X connect 18 0 16 0;
#X connect 19 0 18 1;
#X connect 20 0 9 0;
#X connect 22 0 26 1;
#X connect 24 0 4 1;
#X connect 25 0 4 1;
#X connect 26 0 24 0;
#X connect 26 1 25 0;
#X restore 8 185 pd GEM-output;
#X obj 68 224 switch~;
#X obj 70 561 phasor~;
#X obj 71 586 lop~ 880;
#X msg 378 343 0 2 3 4 5 7 8 9 11;
#X obj 334 501 table \$0-melody 16;
#X text 200 110 16-step melodic sequencer;
#X obj 90 15 r \$0-enabled;
#X msg 92 62 1;
#X msg 124 63 0;
#X obj 90 38 select 0;
#X connect 0 0 3 0;
#X connect 1 0 30 0;
#X connect 3 0 4 0;
#X connect 3 0 9 0;
#X connect 3 0 32 0;
#X connect 3 0 45 1;
#X connect 4 0 31 0;
#X connect 5 0 6 0;
#X connect 5 0 13 0;
#X connect 7 0 12 0;
#X connect 7 0 24 0;
#X connect 8 0 5 0;
#X connect 10 0 0 0;
#X connect 10 0 37 1;
#X connect 10 0 46 0;
#X connect 10 0 45 0;
#X connect 11 0 32 0;
#X connect 13 0 7 0;
#X connect 14 0 13 1;
#X connect 15 0 13 1;
#X connect 17 0 15 0;
#X connect 18 0 13 1;
#X connect 21 0 22 1;
#X connect 22 0 34 0;
#X connect 22 0 35 0;
#X connect 23 0 47 0;
#X connect 23 1 26 0;
#X connect 24 0 28 0;
#X connect 24 1 27 0;
#X connect 24 2 25 1;
#X connect 25 0 23 0;
#X connect 26 0 21 0;
#X connect 27 0 21 0;
#X connect 28 0 25 0;
#X connect 29 0 0 1;
#X connect 30 0 36 0;
#X connect 31 0 3 1;
#X connect 32 0 8 0;
#X connect 36 0 29 0;
#X connect 37 0 40 0;
#X connect 38 0 37 0;
#X connect 40 0 39 0;
#X connect 40 1 41 0;
#X connect 40 2 43 0;
#X connect 41 0 42 0;
#X connect 42 0 39 1;
#X connect 43 0 44 0;
#X connect 44 0 39 2;
#X connect 47 0 48 0;
#X connect 48 0 22 0;
#X connect 49 0 13 1;
#X connect 52 0 55 0;
#X connect 53 0 10 0;
#X connect 54 0 10 0;
#X connect 55 0 53 0;
#X connect 55 1 54 0;
#X coords 0 -1 1 1 300 60 1 100 100;
#X restore 28 122 pd audio-melodic-step-sequencer;
#N canvas 408 380 834 510 audio-wave-shaping 0;
#X obj 224 52 loadbang;
#X obj 111 138 tgl 15 0 empty empty enabled 17 7 0 10 -258113 -1 -1
0 1;
#X obj 97 467 throw~ \$0-left;
#X obj 207 470 throw~ \$0-right;
#X obj 545 273 spigot;
#X obj 553 236 r \$0-refresh;
#X obj 548 405 vanilla.table.transfer;
#X obj 551 314 t b b b;
#X obj 572 345 symbol \$0-array;
#X obj 570 370 pack s 320 0 1;
#N canvas 67 107 458 641 GEM-output 0;
#X obj 219 389 f 0;
#X obj 257 394 + 1;
#X text 211 300 table length;
#X obj 152 201 t a b;
#X msg 252 367 0;
#X obj 139 325 t a b;
#X obj 85 539 translateXYZ;
#X obj 278 56 inlet;
#X obj 152 166 spigot;
#X obj 148 98 gemhead 100;
#X obj 136 288 separator;
#X text 328 52 enabled;
#X obj 181 498 vanilla.scale.linear -1 1 -4 4;
#X obj 84 588 rectangle 0.1 0.1;
#X obj 213 432 tabread \$0-wave;
#X obj 84 562 color 0.5 0.5 0.5;
#X obj 123 467 vanilla.scale.linear 0 515 -5.33333 5.33333;
#X obj 137 255 repeat 515;
#X connect 0 0 1 0;
#X connect 0 0 14 0;
#X connect 0 0 16 0;
#X connect 1 0 0 1;
#X connect 3 0 17 0;
#X connect 3 1 4 0;
#X connect 4 0 0 1;
#X connect 5 0 6 0;
#X connect 5 1 0 0;
#X connect 6 0 15 0;
#X connect 7 0 8 1;
#X connect 8 0 3 0;
#X connect 9 0 8 0;
#X connect 10 0 5 0;
#X connect 12 0 6 2;
#X connect 14 0 12 0;
#X connect 15 0 13 0;
#X connect 16 0 6 1;
#X connect 17 0 10 0;
#X restore 8 185 pd GEM-output;
#X obj 41 222 switch~;
#X text 110 112 wave shaping;
#X msg 226 80 60;
#X obj 183 312 mtof;
#X text 190 122 Frequency (Hz);
#X obj 678 343 symbol \$0-wave;
#X floatatom 192 142 5 0 0 0 - - -;
#X obj 90 15 r \$0-enabled;
#X obj 90 38 select 1;
#X msg 92 62 1;
#X msg 124 63 0;
#X obj 182 367 tabosc4~ \$0-wave;
#X obj 379 413 env~;
#X floatatom 389 446 5 0 0 0 - - -;
#X obj 183 339 sig~ 440;
#X obj 420 106 table \$0-wave 515;
#X obj 105 324 vsl 15 50 -100 0 0 0 empty empty empty 0 -9 0 10 -262144
-1 -1 0 1;
#X obj 381 201 dbtorms;
#X obj 380 178 + 100;
#X obj 289 104 vsl 15 50 -100 0 0 0 empty empty empty 0 -9 0 10 -258113
-1 -1 0 1;
#X obj 308 237 *~ 0;
#X text 314 122 volume (dB);
#X obj 317 142 nbx 5 14 -1e+37 1e+37 0 0 empty empty empty 0 -8 0 10
-262144 -1 -1 0 256;
#X obj 676 368 pack s 515 -1 1;
#X connect 0 0 13 0;
#X connect 1 0 4 1;
#X connect 1 0 11 0;
#X connect 1 0 10 0;
#X connect 4 0 7 0;
#X connect 5 0 4 0;
#X connect 7 0 6 0;
#X connect 7 1 8 0;
#X connect 7 2 16 0;
#X connect 8 0 9 0;
#X connect 9 0 6 1;
#X connect 13 0 17 0;
#X connect 14 0 25 0;
#X connect 16 0 34 0;
#X connect 17 0 14 0;
#X connect 18 0 19 0;
#X connect 19 0 20 0;
#X connect 19 1 21 0;
#X connect 20 0 1 0;
#X connect 21 0 1 0;
#X connect 22 0 2 0;
#X connect 22 0 3 0;
#X connect 22 0 23 0;
#X connect 23 0 24 0;
#X connect 25 0 22 0;
#X connect 28 0 31 1;
#X connect 29 0 28 0;
#X connect 30 0 29 0;
#X connect 30 0 33 0;
#X connect 34 0 6 2;
#X coords 0 -1 1 1 300 60 1 100 100;
#X restore 29 191 pd audio-wave-shaping;
#X obj 29 407 hradio 50 1 0 2 \$0-enabled empty Choose_game 0 -8 0
10 -258113 -1 -1 0;
