#N canvas 570 112 360 621 10;
#N canvas 665 143 816 771 video 0;
#X obj 124 299 gemwin;
#X msg 144 269 0 \, destroy;
#X obj 261 239 pix_video;
#X obj 219 334 pix_texture;
#X msg 96 224 dimen 320 240 \, create \, 1;
#X obj 110 133 tgl 50 0 empty empty GEM_Window 17 7 0 10 -258113 -1
-1 1 1;
#X obj 109 185 select 1 0;
#X obj 144 15 loadbang;
#X msg 333 201 device 0;
#N canvas 154 153 570 420 serin 0;
#X obj 205 60 cnv 20 20 20 empty \$0-open-canvas 0 4 10 0 16 -233017
-1 0;
#X obj 60 61 hradio 18 1 1 8 empty empty empty 0 -6 0 8 -258113 -1
-1 0;
#X obj 60 13 inlet;
#X msg 200 202 label \$1;
#X obj 200 180 makefilename %d;
#X obj 59 108 int;
#X obj 59 337 outlet;
#X msg 201 306 set \$1 \$2;
#X obj 59 266 trigger bang anything;
#X obj 201 286 list;
#X obj 200 225 send \$0-open-canvas;
#X msg 60 210 device \$1;
#X connect 1 0 5 0;
#X connect 2 0 1 0;
#X connect 3 0 10 0;
#X connect 4 0 3 0;
#X connect 5 0 4 0;
#X connect 5 0 11 0;
#X connect 7 0 6 0;
#X connect 8 0 6 0;
#X connect 8 1 9 0;
#X connect 9 0 7 0;
#X connect 11 0 8 0;
#X coords 0 -1 1 1 165 20 1 60 60;
#X restore 217 162 pd serin;
#X obj 463 24 loadbang;
#X obj 531 198 loadbang;
#X obj 143 37 delay 1000;
#X obj 119 602 pix_data;
#X obj 261 262 pix_invert;
#X obj 219 358 rectangle 5.33333 4;
#X obj 31 292 metro 250;
#X obj 176 109 tgl 15 0 empty empty read_pixels 17 7 0 10 -258113 -1
-1 1 1;
#X obj 178 77 loadbang;
#X obj 97 440 until;
#X obj 205 383 pix_info -----------------;
#X obj 97 464 f 0;
#X obj 97 397 t f b;
#X msg 123 419 0;
#X obj 125 466 + 1;
#X obj 241 484 until;
#X obj 241 508 f 0;
#X obj 241 440 t f b;
#X floatatom 217 624 5 0 0 0 - - -;
#X msg 220 602 0;
#X obj 218 580 loadbang;
#X text 257 623 threshold;
#X obj 224 677 select 1;
#X obj 83 737 tabwrite \$0-array;
#X obj 73 665 f;
#X obj 348 242 tgl 15 0 empty empty enable_invert 17 7 0 10 -258113
-1 -1 0 1;
#X obj 392 201 loadbang;
#X obj 478 257 tgl 15 0 empty empty enable 17 7 0 10 -258113 -1 -1
1 1;
#X obj 478 236 loadbang;
#X obj 101 491 t b f b;
#X obj 169 569 t b f f;
#X obj 597 675 pack f f;
#X obj 596 722 print tabwrite;
#X obj 597 631 spigot;
#X obj 631 609 tgl 15 0 empty empty print 17 7 0 10 -258113 -1 -1 0
1;
#X obj 148 701 f;
#X obj 83 631 t b b;
#X obj 597 652 t f;
#X msg 597 697 \$2 \$1;
#N canvas 67 83 450 300 grey 0;
#X obj 216 114 inlet;
#X obj 214 177 +;
#X obj 211 226 +;
#X obj 213 261 outlet;
#X obj 218 139 unpack f f f;
#X connect 0 0 4 0;
#X connect 1 0 2 0;
#X connect 2 0 3 0;
#X connect 4 0 1 0;
#X connect 4 1 1 1;
#X connect 4 2 2 1;
#X restore 141 631 pd grey;
#X msg 303 300 \$1 \$1 \$1;
#X msg 499 267 1 1 1;
#X msg 553 262 0 0 0;
#X obj 213 286 pix_duotone;
#X obj 271 127 hsl 100 15 0 1 0 0 empty empty threshold -2 -8 0 10
-258113 -1 -1 4455 1;
#X obj 269 52 loadbang;
#X text 225 143 Video camera;
#X obj -1 361 s \$0-refresh;
#X obj -1 387 r \$0-refresh;
#X obj 26 324 t b b;
#X obj 269 510 - 1;
#X obj 261 203 gemhead 50;
#X msg 23 248 dimen 640 480 \, create \, 1;
#X obj 194 136 hradio 15 1 0 3 empty empty window_size 0 -8 0 10 -258113
-1 -1 1;
#X obj 48 122 t f b;
#X msg 392 220 0;
#X obj 188 653 > 0;
#X text 221 696 If > thresh stop looping on Y and write to table at
X position;
#X obj 57 93 f;
#X msg 146 62 1;
#X msg 91 65 set 1;
#X msg 486 97 0;
#X obj 29 168 sel 0 1 2;
#X msg -49 206 dimen 1024 768 \, create \, 1;
#X msg 463 46 dimen 640 480;
#X text 512 98 device /dev/video0;
#X msg 269 77 0.45;
#X obj 97 374 f 640;
#X obj 241 415 f 480;
#X obj 306 481 f 480;
#X obj 117 555 / 640;
#X obj 182 597 / 480;
#X obj 464 381 table \$0-array 640;
#X obj -25 497 s \$0-width;
#X obj -24 518 r \$0-width;
#X obj 421 505 s \$0-height;
#X obj 421 526 r \$0-height;
#X obj 408 478 vanilla.change;
#X obj -24 470 vanilla.change;
#X text 469 359 FIXME: should we be able to resize this table?;
#X connect 1 0 0 0;
#X connect 2 0 14 0;
#X connect 3 0 15 0;
#X connect 4 0 0 0;
#X connect 5 0 6 0;
#X connect 6 0 68 0;
#X connect 6 1 1 0;
#X connect 7 0 12 0;
#X connect 8 0 2 0;
#X connect 9 0 8 0;
#X connect 10 0 74 0;
#X connect 10 0 71 0;
#X connect 11 0 51 0;
#X connect 11 0 52 0;
#X connect 12 0 69 0;
#X connect 12 0 70 0;
#X connect 13 1 49 0;
#X connect 14 0 53 0;
#X connect 16 0 59 0;
#X connect 17 0 16 0;
#X connect 18 0 17 0;
#X connect 19 0 21 0;
#X connect 20 1 77 1;
#X connect 20 2 78 1;
#X connect 21 0 24 0;
#X connect 21 0 39 0;
#X connect 22 0 19 0;
#X connect 22 1 23 0;
#X connect 23 0 21 1;
#X connect 24 0 21 1;
#X connect 25 0 26 0;
#X connect 26 0 40 0;
#X connect 26 0 60 0;
#X connect 27 0 25 0;
#X connect 27 1 79 0;
#X connect 28 0 66 1;
#X connect 29 0 28 0;
#X connect 30 0 29 0;
#X connect 32 0 25 1;
#X connect 34 0 33 0;
#X connect 34 0 43 0;
#X connect 35 0 14 0;
#X connect 36 0 65 0;
#X connect 37 0 53 0;
#X connect 38 0 37 0;
#X connect 39 0 46 0;
#X connect 39 1 45 1;
#X connect 39 1 80 0;
#X connect 39 2 78 0;
#X connect 40 0 13 0;
#X connect 40 1 81 0;
#X connect 41 0 48 0;
#X connect 43 0 47 0;
#X connect 44 0 43 1;
#X connect 45 0 33 1;
#X connect 45 0 41 1;
#X connect 46 0 34 0;
#X connect 46 1 45 0;
#X connect 47 0 41 0;
#X connect 48 0 42 0;
#X connect 49 0 66 0;
#X connect 50 0 53 1;
#X connect 51 0 53 2;
#X connect 52 0 53 3;
#X connect 53 0 13 1;
#X connect 53 0 3 0;
#X connect 53 0 20 0;
#X connect 54 0 50 0;
#X connect 55 0 76 0;
#X connect 59 0 57 0;
#X connect 59 1 77 0;
#X connect 60 0 26 1;
#X connect 61 0 2 0;
#X connect 62 0 0 0;
#X connect 63 0 68 0;
#X connect 64 0 72 0;
#X connect 64 1 1 0;
#X connect 65 0 35 0;
#X connect 66 0 32 0;
#X connect 68 0 64 0;
#X connect 69 0 63 0;
#X connect 70 0 5 0;
#X connect 71 0 9 0;
#X connect 72 0 4 0;
#X connect 72 1 62 0;
#X connect 72 2 73 0;
#X connect 73 0 0 0;
#X connect 74 0 2 0;
#X connect 76 0 54 0;
#X connect 77 0 22 0;
#X connect 77 0 80 1;
#X connect 77 0 88 0;
#X connect 78 0 27 0;
#X connect 78 0 79 1;
#X connect 78 0 81 1;
#X connect 78 0 87 0;
#X connect 79 0 26 1;
#X connect 80 0 13 2;
#X connect 81 0 13 3;
#X connect 81 0 34 1;
#X connect 87 0 85 0;
#X connect 88 0 83 0;
#X coords 0 -1 1 1 300 100 1 100 100;
#X restore 27 5 pd video;
#N canvas 67 101 578 616 audio-output 0;
#X obj 278 239 vanilla.write.wav~;
#X obj 54 40 catch~ \$0-left;
#X obj 236 36 catch~ \$0-right;
#X msg 77 449 \; pd dsp \$1;
#X obj 105 225 tgl 50 0 empty empty compute_audio 17 7 0 10 -258113
-1 -1 1 1;
#X obj 240 167 loadbang;
#X obj 134 102 dbtorms;
#X obj 133 79 + 100;
#X obj 212 233 vsl 15 50 -100 0 0 0 empty empty Master_volume 0 -9
0 10 -258113 -1 -1 3600 1;
#X msg 368 112 -20;
#X obj 367 83 loadbang;
#X obj 61 138 *~ 0;
#X text 140 292 volume (dB);
#X obj 184 141 *~ 0;
#X obj 13 341 dac~;
#X obj 212 293 nbx 5 14 -1e+37 1e+37 0 0 empty empty empty 0 -8 0 10
-262144 -1 -1 -26.5306 256;
#X text 280 221 save to file;
#X connect 1 0 11 0;
#X connect 2 0 13 0;
#X connect 4 0 3 0;
#X connect 5 0 4 0;
#X connect 6 0 11 1;
#X connect 7 0 6 0;
#X connect 8 0 7 0;
#X connect 8 0 15 0;
#X connect 9 0 8 0;
#X connect 10 0 9 0;
#X connect 11 0 0 0;
#X connect 11 0 14 0;
#X connect 13 0 0 1;
#X connect 13 0 14 1;
#X coords 0 -1 1 1 300 110 1 100 200;
#X restore 34 424 pd audio-output;
#N canvas 398 410 834 510 game-selector 0;
#X obj 232 124 hradio 30 1 0 4 empty empty Choose_game 0 -8 0 10 -258113
-1 -1 0;
#X obj 220 46 loadbang;
#X msg 215 70 0;
#X obj 467 76 gemkeyboard;
#X obj 461 105 select 10 11 12 13 14 15 16 17 18 19 20;
#X msg 462 132 0;
#X msg 499 134 1;
#X msg 531 138 2;
#X obj 469 186 f;
#X msg 571 136 3;
#X obj 275 302 s \$0-enabled;
#X msg 665 170 -1;
#X connect 0 0 10 0;
#X connect 1 0 2 0;
#X connect 2 0 0 0;
#X connect 3 0 4 0;
#X connect 4 0 5 0;
#X connect 4 1 6 0;
#X connect 4 2 7 0;
#X connect 4 3 9 0;
#X connect 4 9 11 0;
#X connect 5 0 8 0;
#X connect 6 0 8 0;
#X connect 7 0 8 0;
#X connect 8 0 0 0;
#X connect 9 0 8 0;
#X connect 11 0 10 0;
#X coords 0 -1 1 1 300 60 1 100 100;
#X restore 25 543 pd game-selector;
#N canvas 336 452 834 510 audio-wave-shaping 0;
#X obj 224 52 loadbang;
#X obj 111 138 tgl 15 0 empty empty enabled 17 7 0 10 -258113 -1 -1
0 1;
#X obj 97 467 throw~ \$0-left;
#X obj 207 470 throw~ \$0-right;
#X obj 545 273 spigot;
#X obj 553 236 r \$0-refresh;
#X obj 548 405 vanilla.table.transfer;
#X obj 551 314 t b b b;
#X obj 572 345 symbol \$0-array;
#N canvas 66 117 458 641 GEM-output 0;
#X obj 219 389 f 0;
#X obj 257 394 + 1;
#X text 211 300 table length;
#X obj 152 201 t a b;
#X msg 252 367 0;
#X obj 139 325 t a b;
#X obj 85 539 translateXYZ;
#X obj 278 56 inlet;
#X obj 152 166 spigot;
#X obj 148 98 gemhead 100;
#X obj 136 288 separator;
#X text 328 52 enabled;
#X obj 181 498 vanilla.scale.linear -1 1 -4 4;
#X obj 84 588 rectangle 0.1 0.1;
#X obj 213 432 tabread \$0-wave;
#X obj 84 562 color 0.5 0.5 0.5;
#X obj 123 467 vanilla.scale.linear 0 515 -5.33333 5.33333;
#X obj 137 255 repeat 515;
#X connect 0 0 1 0;
#X connect 0 0 14 0;
#X connect 0 0 16 0;
#X connect 1 0 0 1;
#X connect 3 0 17 0;
#X connect 3 1 4 0;
#X connect 4 0 0 1;
#X connect 5 0 6 0;
#X connect 5 1 0 0;
#X connect 6 0 15 0;
#X connect 7 0 8 1;
#X connect 8 0 3 0;
#X connect 9 0 8 0;
#X connect 10 0 5 0;
#X connect 12 0 6 2;
#X connect 14 0 12 0;
#X connect 15 0 13 0;
#X connect 16 0 6 1;
#X connect 17 0 10 0;
#X restore 8 185 pd GEM-output;
#X obj 41 222 switch~;
#X text 110 112 wave shaping;
#X obj 183 312 mtof;
#X obj 678 343 symbol \$0-wave;
#X floatatom 192 142 5 0 0 0 - - -;
#X obj 90 15 r \$0-enabled;
#X obj 90 38 select 1;
#X msg 92 62 1;
#X msg 124 63 0;
#X obj 200 370 tabosc4~ \$0-wave;
#X obj 379 413 env~;
#X floatatom 389 446 5 0 0 0 - - -;
#X obj 183 339 sig~ 440;
#X obj 420 106 table \$0-wave 515;
#X obj 105 324 vsl 15 50 -100 0 0 0 empty empty empty 0 -9 0 10 -262144
-1 -1 0 1;
#X obj 343 371 dbtorms;
#X obj 342 348 + 100;
#X obj 289 104 vsl 15 50 -100 0 0 0 empty empty empty 0 -9 0 10 -258113
-1 -1 4400 1;
#X obj 199 426 *~ 0;
#X obj 317 142 nbx 5 14 -1e+37 1e+37 0 0 empty empty empty 0 -8 0 10
-262144 -1 -1 -10.2041 256;
#X obj 676 368 pack s 515 -1 1;
#X obj 298 48 loadbang;
#X text 314 122 gain (dB);
#X msg 226 80 36;
#X msg 299 69 -18;
#X text 190 122 Frequency (MIDI);
#X floatatom 249 315 5 0 0 0 - - -;
#X obj 647 292 r \$0-width;
#X obj 570 370 pack s 640 0 1;
#X connect 0 0 33 0;
#X connect 1 0 4 1;
#X connect 1 0 10 0;
#X connect 1 0 9 0;
#X connect 4 0 7 0;
#X connect 5 0 4 0;
#X connect 7 0 6 0;
#X connect 7 1 8 0;
#X connect 7 2 13 0;
#X connect 8 0 38 0;
#X connect 12 0 22 0;
#X connect 12 0 36 0;
#X connect 13 0 30 0;
#X connect 14 0 12 0;
#X connect 15 0 16 0;
#X connect 16 0 17 0;
#X connect 16 1 18 0;
#X connect 17 0 1 0;
#X connect 18 0 1 0;
#X connect 19 0 20 0;
#X connect 19 0 28 0;
#X connect 20 0 21 0;
#X connect 22 0 19 0;
#X connect 25 0 28 1;
#X connect 26 0 25 0;
#X connect 27 0 26 0;
#X connect 27 0 29 0;
#X connect 28 0 3 0;
#X connect 28 0 2 0;
#X connect 30 0 6 2;
#X connect 31 0 34 0;
#X connect 33 0 14 0;
#X connect 34 0 27 0;
#X connect 37 0 38 1;
#X connect 38 0 6 1;
#X coords 0 -1 1 1 300 60 1 100 100;
#X restore 29 191 pd audio-wave-shaping;
#N canvas 228 370 1114 619 audio-amplitude 0;
#X obj 111 138 tgl 15 0 empty empty enabled 17 7 0 10 -258113 -1 -1
0 1;
#X obj 97 467 throw~ \$0-left;
#X obj 207 470 throw~ \$0-right;
#X obj 818 394 spigot;
#X obj 826 357 r \$0-refresh;
#X obj 821 526 vanilla.table.transfer;
#X obj 824 435 t b b b;
#X obj 845 466 symbol \$0-array;
#N canvas 66 136 458 641 GEM-output 0;
#X obj 219 389 f 0;
#X obj 257 394 + 1;
#X text 211 300 table length;
#X obj 152 201 t a b;
#X msg 252 367 0;
#X obj 139 325 t a b;
#X obj 85 539 translateXYZ;
#X obj 278 56 inlet;
#X obj 152 166 spigot;
#X obj 148 98 gemhead 100;
#X obj 136 288 separator;
#X text 328 52 enabled;
#X obj 84 588 rectangle 0.1 0.1;
#X obj 84 562 color 0.5 0.5 0.5;
#X obj 123 467 vanilla.scale.linear 0 320 -5.33333 5.33333;
#X obj 213 432 tabread \$0-amplitude;
#X obj 137 255 repeat 320;
#X obj 181 498 vanilla.scale.linear -100 0 -4 4;
#X connect 0 0 1 0;
#X connect 0 0 14 0;
#X connect 0 0 15 0;
#X connect 1 0 0 1;
#X connect 3 0 16 0;
#X connect 3 1 4 0;
#X connect 4 0 0 1;
#X connect 5 0 6 0;
#X connect 5 1 0 0;
#X connect 6 0 13 0;
#X connect 7 0 8 1;
#X connect 8 0 3 0;
#X connect 9 0 8 0;
#X connect 10 0 5 0;
#X connect 13 0 12 0;
#X connect 14 0 6 1;
#X connect 15 0 17 0;
#X connect 16 0 10 0;
#X connect 17 0 6 2;
#X restore 8 185 pd GEM-output;
#X obj 41 222 switch~;
#X text 110 112 wave shaping;
#X obj 90 15 r \$0-enabled;
#X msg 92 62 1;
#X msg 124 63 0;
#X obj 379 413 env~;
#X floatatom 389 446 5 0 0 0 - - -;
#X obj 343 371 dbtorms;
#X obj 342 348 + 100;
#X obj 309 104 vsl 15 50 -100 0 0 0 empty empty empty 0 -9 0 10 -258113
-1 -1 4312 1;
#X obj 199 426 *~ 0;
#X obj 337 142 nbx 5 14 -1e+37 1e+37 0 0 empty empty empty 0 -8 0 10
-262144 -1 -1 -12 256;
#X obj 318 48 loadbang;
#X text 334 122 gain (dB);
#X obj 559 114 table \$0-amplitude 320;
#X obj 951 464 symbol \$0-amplitude;
#X obj 56 286 noise~;
#X floatatom 272 139 5 0 0 0 frequency_(Hz) - -;
#X obj 90 38 select 2;
#X obj 56 312 lop~ 2093;
#X obj 57 335 hip~ 20;
#X obj 949 489 pack s 320 -100 0;
#X obj 600 254 metro;
#X obj 600 283 f 0;
#X obj 637 266 + 1;
#X text 680 286 table length;
#X obj 636 287 % 320;
#X obj 610 415 line~;
#X obj 622 207 /;
#X obj 624 159 * 320;
#X msg 624 182 1000 \$1;
#X floatatom 628 233 5 0 0 0 - - -;
#X obj 595 327 tabread \$0-amplitude;
#X obj 561 473 noise~;
#X obj 622 499 dbtorms~;
#X obj 588 557 *~;
#X obj 561 499 lop~ 2093;
#X obj 562 522 hip~ 20;
#X obj 616 531 clip~ 0 1;
#X obj 621 476 +~ 100;
#X msg 612 381 \$1 5;
#X msg 319 69 -12;
#X msg 248 47 0.5;
#X obj 896 428 r \$0-width;
#X obj 843 491 pack s 640 0 1;
#X connect 0 0 3 1;
#X connect 0 0 9 0;
#X connect 0 0 8 0;
#X connect 0 0 31 0;
#X connect 3 0 6 0;
#X connect 4 0 3 0;
#X connect 6 0 5 0;
#X connect 6 1 7 0;
#X connect 6 2 24 0;
#X connect 7 0 53 0;
#X connect 11 0 27 0;
#X connect 12 0 0 0;
#X connect 13 0 0 0;
#X connect 14 0 15 0;
#X connect 16 0 19 1;
#X connect 17 0 16 0;
#X connect 18 0 17 0;
#X connect 18 0 20 0;
#X connect 19 0 2 0;
#X connect 19 0 1 0;
#X connect 21 0 50 0;
#X connect 21 0 51 0;
#X connect 24 0 30 0;
#X connect 25 0 28 0;
#X connect 26 0 38 0;
#X connect 27 0 12 0;
#X connect 27 1 13 0;
#X connect 28 0 29 0;
#X connect 30 0 5 2;
#X connect 31 0 32 0;
#X connect 32 0 33 0;
#X connect 32 0 41 0;
#X connect 33 0 35 0;
#X connect 35 0 32 1;
#X connect 36 0 48 0;
#X connect 37 0 40 0;
#X connect 37 0 31 1;
#X connect 38 0 39 0;
#X connect 39 0 37 0;
#X connect 41 0 49 0;
#X connect 42 0 45 0;
#X connect 43 0 47 0;
#X connect 44 0 19 0;
#X connect 45 0 46 0;
#X connect 46 0 44 0;
#X connect 47 0 44 1;
#X connect 48 0 43 0;
#X connect 49 0 36 0;
#X connect 50 0 18 0;
#X connect 51 0 26 0;
#X connect 52 0 53 1;
#X connect 53 0 5 1;
#X coords 0 -1 1 1 300 60 1 100 100;
#X restore 27 275 pd audio-amplitude;
#N canvas 320 236 1132 724 audio-melodic-step-sequencer 0;
#X obj 159 240 metro;
#X obj 279 44 loadbang;
#X text 334 130 Tempo (BPM);
#X obj 173 261 f 0;
#X obj 210 244 + 1;
#X obj 168 368 t f b;
#X obj 150 459 mtof;
#X obj 130 341 int;
#X obj 110 113 tgl 15 0 empty empty enabled 17 7 0 10 -258113 -1 -1
1 1;
#X floatatom 235 284 5 0 0 0 - - -;
#X obj 151 433 musical.closest.note;
#X msg 543 94 0 2 4 7 9;
#X msg 527 65 0 2 4 5 7 9 11;
#X text 631 65 C scale;
#X obj 539 22 loadbang;
#X msg 465 45 0 1 2 3 4 5 6 7 8 9 10 11;
#X text 625 43 Chromatic;
#X text 611 93 Pentatonic in C;
#X obj 153 586 line~;
#X obj 119 616 *~;
#X obj 187 211 vanilla.bpm2ms;
#X obj 168 305 tabread \$0-melody;
#X text 244 264 table length;
#X obj 119 692 throw~ \$0-left;
#X obj 229 695 throw~ \$0-right;
#X obj 275 129 nbx 5 14 -1e+37 1e+37 0 0 empty empty empty 0 -8 0 10
-258113 -1 -1 800 256;
#X obj 531 382 spigot;
#X obj 539 345 r \$0-refresh;
#X obj 534 514 vanilla.table.transfer;
#X obj 537 423 t b b b;
#X obj 558 454 symbol \$0-array;
#X obj 664 452 symbol \$0-melody;
#N canvas 67 89 788 663 GEM-output 0;
#X obj 219 389 f 0;
#X obj 257 394 + 1;
#X obj 214 433 tabread \$0-melody;
#X text 211 300 table length;
#X obj 81 536 color 1 0 0;
#X obj 81 562 rectangle 0.25 0.125;
#X obj 152 201 t a b;
#X msg 252 367 0;
#X obj 139 325 t a b;
#X obj 81 504 translateXYZ;
#X obj 278 56 inlet;
#X obj 152 166 spigot;
#X obj 148 98 gemhead 100;
#X obj 181 498 vanilla.scale.linear 48 72 -4 4;
#X obj 305 600 print;
#X obj 308 544 pack f f;
#X obj 309 576 spigot;
#X obj 388 549 tgl 15 0 empty empty empty 17 7 0 10 -262144 -1 -1 0
1;
#X obj 136 288 separator;
#X text 328 52 enabled;
#X obj 458 89 inlet;
#X text 510 89 current index playing;
#X msg 479 339 1 0 0;
#X msg 538 343 0.5 0.5 0.5;
#X obj 480 299 select 0;
#X obj 123 467 vanilla.scale.linear 0 64 -5.33333 5.33333;
#X obj 137 255 repeat 64;
#X connect 0 0 1 0;
#X connect 0 0 2 0;
#X connect 0 0 24 0;
#X connect 0 0 25 0;
#X connect 1 0 0 1;
#X connect 2 0 13 0;
#X connect 4 0 5 0;
#X connect 6 0 26 0;
#X connect 6 1 7 0;
#X connect 7 0 0 1;
#X connect 8 0 9 0;
#X connect 8 1 0 0;
#X connect 9 0 4 0;
#X connect 10 0 11 1;
#X connect 11 0 6 0;
#X connect 12 0 11 0;
#X connect 13 0 9 2;
#X connect 13 0 15 1;
#X connect 15 0 16 0;
#X connect 16 0 14 0;
#X connect 17 0 16 1;
#X connect 18 0 8 0;
#X connect 20 0 24 1;
#X connect 22 0 4 1;
#X connect 23 0 4 1;
#X connect 24 0 22 0;
#X connect 24 1 23 0;
#X connect 25 0 9 1;
#X connect 25 0 15 0;
#X connect 26 0 18 0;
#X restore 8 185 pd GEM-output;
#X obj 68 224 switch~;
#X msg 549 116 0 2 3 4 5 7 8 9 11;
#X text 200 110 16-step melodic sequencer;
#X obj 90 15 r \$0-enabled;
#X msg 92 62 1;
#X msg 124 63 0;
#X obj 90 38 select 0;
#X obj 138 141 hradio 15 1 0 9 empty empty scale 0 -8 0 10 -262144
-1 -1 0;
#X obj 446 171 s \$0-scale;
#X obj 298 335 r \$0-scale;
#X text 675 118 C with blue notes;
#X msg 548 140 0 2 4 5 7 9 10 11;
#X text 667 138 be-bop;
#X msg 550 163 0 2 3 5 7 8 11;
#X text 652 165 harmonic minor;
#X msg 551 184 0 2 3 5 6 8 9 11;
#X text 662 183 diminished;
#X msg 550 208 0 2 4 6 8 10;
#X text 640 208 whole-tone;
#X msg 549 236 0 0.5 1 1.5 2 2.5 3 3.5 4 4.5 5 5.5 6 6.5 7 7.5 8 8.5
9 9.5 10 10.5 11 11.5;
#X obj 477 -15 select 0 1 2 3 4 5 6 7 8;
#X text 922 239 microtonal;
#X obj 662 477 pack s 64 48 72;
#X obj 334 501 table \$0-melody 64;
#X obj 209 265 % 64;
#X floatatom 365 67 5 0 0 0 - - -;
#X obj 109 644 *~ 0.5;
#X obj 71 586 lop~ 440;
#X obj 174 484 t f b;
#X msg 281 72 800;
#X obj 231 350 t f;
#X obj 235 551 pack 0 f;
#X obj 240 498 t b b;
#X msg 269 524 1;
#X obj 70 561 phasor~;
#X obj 111 531 line~;
#X msg 114 499 \$1 5;
#X obj 556 479 pack s 640 0 1;
#X obj 620 417 r \$0-width;
#X obj 342 413 print melody-scale;
#X connect 0 0 3 0;
#X connect 1 0 62 0;
#X connect 3 0 4 0;
#X connect 3 0 21 0;
#X connect 3 0 32 1;
#X connect 4 0 57 0;
#X connect 5 0 10 0;
#X connect 6 0 61 0;
#X connect 8 0 0 0;
#X connect 8 0 26 1;
#X connect 8 0 33 0;
#X connect 8 0 32 0;
#X connect 9 0 21 0;
#X connect 10 0 6 0;
#X connect 11 0 41 0;
#X connect 12 0 41 0;
#X connect 14 0 15 0;
#X connect 15 0 41 0;
#X connect 18 0 19 1;
#X connect 19 0 59 0;
#X connect 20 0 0 1;
#X connect 20 0 63 0;
#X connect 21 0 7 0;
#X connect 21 0 5 0;
#X connect 25 0 20 0;
#X connect 26 0 29 0;
#X connect 27 0 26 0;
#X connect 29 0 28 0;
#X connect 29 1 30 0;
#X connect 29 2 31 0;
#X connect 30 0 70 0;
#X connect 31 0 55 0;
#X connect 34 0 41 0;
#X connect 36 0 39 0;
#X connect 37 0 8 0;
#X connect 38 0 8 0;
#X connect 39 0 37 0;
#X connect 39 1 38 0;
#X connect 40 0 53 0;
#X connect 42 0 10 1;
#X connect 42 0 72 0;
#X connect 44 0 41 0;
#X connect 46 0 41 0;
#X connect 48 0 41 0;
#X connect 50 0 41 0;
#X connect 52 0 41 0;
#X connect 53 0 15 0;
#X connect 53 1 12 0;
#X connect 53 2 11 0;
#X connect 53 3 34 0;
#X connect 53 4 44 0;
#X connect 53 5 46 0;
#X connect 53 6 48 0;
#X connect 53 7 50 0;
#X connect 53 8 52 0;
#X connect 55 0 28 2;
#X connect 57 0 3 1;
#X connect 58 0 25 0;
#X connect 59 0 23 0;
#X connect 59 0 24 0;
#X connect 60 0 19 0;
#X connect 61 0 69 0;
#X connect 61 1 65 0;
#X connect 62 0 25 0;
#X connect 63 0 64 1;
#X connect 64 0 18 0;
#X connect 65 0 64 0;
#X connect 65 1 66 0;
#X connect 66 0 18 0;
#X connect 67 0 60 0;
#X connect 68 0 67 0;
#X connect 69 0 68 0;
#X connect 70 0 28 1;
#X connect 71 0 70 1;
#X coords 0 -1 1 1 300 60 1 100 100;
#X restore 28 122 pd audio-melodic-step-sequencer;
#N canvas 166 342 616 580 audio-bandpass-sweep 0;
#X obj 173 232 metro;
#X obj 279 44 loadbang;
#X obj 173 261 f 0;
#X obj 210 244 + 1;
#X obj 167 330 mtof;
#X obj 110 113 tgl 15 0 empty empty enabled 17 7 0 10 -258113 -1 -1
0 1;
#X text 252 261 table length;
#X obj 85 525 throw~ \$0-left;
#X obj 187 527 throw~ \$0-right;
#X obj 343 273 spigot;
#X obj 351 236 r \$0-refresh;
#X obj 346 405 vanilla.table.transfer;
#X obj 349 314 t b b b;
#X obj 370 345 symbol \$0-array;
#N canvas 67 107 788 663 GEM-output 0;
#X obj 219 389 f 0;
#X obj 257 394 + 1;
#X text 211 300 table length;
#X obj 81 536 color 1 0 0;
#X obj 152 201 t a b;
#X msg 252 367 0;
#X obj 139 325 t a b;
#X obj 81 504 translateXYZ;
#X obj 278 56 inlet;
#X obj 152 166 spigot;
#X obj 148 98 gemhead 100;
#X obj 136 288 separator;
#X text 328 52 enabled;
#X obj 458 89 inlet;
#X text 510 89 current index playing;
#X msg 479 339 1 0 0;
#X msg 538 343 0.5 0.5 0.5;
#X obj 480 299 select 0;
#X obj 137 255 repeat 320;
#X obj 123 467 vanilla.scale.linear 0 320 -5.33333 5.33333;
#X obj 214 433 tabread \$0-sweep;
#X obj 80 562 rectangle 0.01 0.1;
#X obj 181 498 vanilla.scale.linear 0 72 -4 4;
#X connect 0 0 1 0;
#X connect 0 0 17 0;
#X connect 0 0 19 0;
#X connect 0 0 20 0;
#X connect 1 0 0 1;
#X connect 3 0 21 0;
#X connect 4 0 18 0;
#X connect 4 1 5 0;
#X connect 5 0 0 1;
#X connect 6 0 7 0;
#X connect 6 1 0 0;
#X connect 7 0 3 0;
#X connect 8 0 9 1;
#X connect 9 0 4 0;
#X connect 10 0 9 0;
#X connect 11 0 6 0;
#X connect 13 0 17 1;
#X connect 15 0 3 1;
#X connect 16 0 3 1;
#X connect 17 0 15 0;
#X connect 17 1 16 0;
#X connect 18 0 11 0;
#X connect 19 0 7 1;
#X connect 20 0 22 0;
#X connect 22 0 7 2;
#X restore 8 185 pd GEM-output;
#X obj 101 180 switch~;
#X obj 90 15 r \$0-enabled;
#X msg 92 62 1;
#X msg 124 63 0;
#X obj 90 38 select 3;
#X obj 476 343 symbol \$0-sweep;
#X obj 351 520 table \$0-sweep 320;
#X obj 209 265 % 320;
#X obj 168 305 tabread \$0-sweep;
#X obj 64 382 noise~;
#X obj 83 419 vcf~ 10;
#X obj 129 393 line~;
#X msg 167 354 \$1 5;
#X obj 85 449 *~ 1;
#X floatatom 280 127 5 0 0 0 - - -;
#X text 318 126 Freq (Hz);
#X floatatom 110 296 5 0 0 0 - - -;
#X obj 513 186 /;
#X obj 301 167 * 320;
#X msg 515 161 1000 \$1;
#X floatatom 519 212 5 0 0 0 - - -;
#X msg 281 72 0.5;
#X obj 474 368 pack s 320 0 72;
#X obj 431 308 r \$0-width;
#X obj 368 370 pack s 640 0 1;
#X connect 0 0 2 0;
#X connect 1 0 36 0;
#X connect 2 0 3 0;
#X connect 2 0 14 1;
#X connect 2 0 23 0;
#X connect 2 0 31 0;
#X connect 3 0 22 0;
#X connect 4 0 27 0;
#X connect 5 0 0 0;
#X connect 5 0 15 0;
#X connect 5 0 14 0;
#X connect 5 0 9 1;
#X connect 9 0 12 0;
#X connect 10 0 9 0;
#X connect 12 0 11 0;
#X connect 12 1 13 0;
#X connect 12 2 20 0;
#X connect 13 0 39 0;
#X connect 16 0 19 0;
#X connect 17 0 5 0;
#X connect 18 0 5 0;
#X connect 19 0 17 0;
#X connect 19 1 18 0;
#X connect 20 0 37 0;
#X connect 22 0 2 1;
#X connect 23 0 4 0;
#X connect 24 0 25 0;
#X connect 25 0 28 0;
#X connect 26 0 25 1;
#X connect 27 0 26 0;
#X connect 28 0 7 0;
#X connect 28 0 8 0;
#X connect 29 0 33 0;
#X connect 32 0 35 0;
#X connect 32 0 0 1;
#X connect 33 0 34 0;
#X connect 34 0 32 0;
#X connect 36 0 29 0;
#X connect 37 0 11 2;
#X connect 38 0 39 1;
#X connect 39 0 11 1;
#X coords 0 -1 1 1 300 60 1 100 100;
#X restore 26 352 pd audio-bandpass-sweep;
