#N canvas 689 254 503 309 10;
#X obj 27 5 syn.video.input \$0;
#N canvas 258 383 1105 367 toy_selector 1;
#X obj 220 116 hradio 30 1 0 9 empty empty Choose_game 0 -8 0 10 -258113
-1 -1 4;
#X obj 244 -15 loadbang;
#X obj 600 181 f;
#X obj 275 302 s \$0-enabled;
#X msg 532 289 -1;
#X msg 634 122 1;
#X msg 667 126 2;
#X msg 703 128 3;
#X msg 743 126 4;
#X msg 777 128 5;
#X obj 282 242 + 1;
#X obj 439 211 - 1;
#X text 228 142 1;
#X text 259 143 2;
#X text 289 143 3;
#X text 320 143 4;
#X text 351 142 5;
#X obj 67 193 gemhead 200;
#X obj 72 274 text2d;
#X msg 217 270 text \$1;
#X obj 113 146 loadbang;
#X msg 136 167 36;
#X obj 69 242 color 1 0 0;
#X obj 513 228 t b b;
#X obj 70 219 translateXYZ -4.1 -3.1 0;
#X obj 596 301 tgl 15 0 empty empty empty 17 7 0 10 -1 -258113 -1 1
1;
#X obj 647 249 tgl 15 0 empty empty empty 17 7 0 10 -258113 -1 -1 0
1;
#X obj 596 274 net.send localhost 31338;
#X obj 597 221 r \$0-enabled;
#X obj 687 254 print VIDEO-toy;
#X obj 247 65 - 1;
#X obj 243 9 delay 1000;
#X obj 476 37 syn.key;
#X obj 479 13 r __enable_key__;
#X obj 477 64 s __key__;
#X obj 608 28 r __key__;
#X msg 244 34 6;
#X msg 815 130 6;
#X text 378 142 6;
#X msg 856 131 7;
#X msg 892 133 8;
#X msg 932 131 9;
#X obj 607 50 select _0 _1 _2 _3 _4 _5 _6 _7 _8 _9;
#X text 409 144 7;
#X text 438 144 8;
#X text 468 145 9;
#X msg 144 188 font Akzidenz-grotesk-black.ttf;
#X msg 424 273 symbol Ø;
#X connect 0 0 10 0;
#X connect 1 0 31 0;
#X connect 2 0 11 0;
#X connect 4 0 3 0;
#X connect 5 0 2 0;
#X connect 6 0 2 0;
#X connect 7 0 2 0;
#X connect 8 0 2 0;
#X connect 9 0 2 0;
#X connect 10 0 3 0;
#X connect 10 0 19 0;
#X connect 11 0 0 0;
#X connect 17 0 24 0;
#X connect 19 0 18 0;
#X connect 20 0 21 0;
#X connect 20 0 46 0;
#X connect 21 0 18 1;
#X connect 22 0 18 0;
#X connect 23 0 47 0;
#X connect 23 1 4 0;
#X connect 24 0 22 0;
#X connect 26 0 27 1;
#X connect 27 0 25 0;
#X connect 28 0 27 0;
#X connect 28 0 29 0;
#X connect 30 0 0 0;
#X connect 31 0 36 0;
#X connect 32 0 34 0;
#X connect 33 0 32 0;
#X connect 35 0 42 0;
#X connect 36 0 30 0;
#X connect 37 0 2 0;
#X connect 39 0 2 0;
#X connect 40 0 2 0;
#X connect 41 0 2 0;
#X connect 42 0 23 0;
#X connect 42 1 5 0;
#X connect 42 2 6 0;
#X connect 42 3 7 0;
#X connect 42 4 8 0;
#X connect 42 5 9 0;
#X connect 42 6 37 0;
#X connect 42 7 39 0;
#X connect 42 8 40 0;
#X connect 42 9 41 0;
#X connect 46 0 18 0;
#X connect 47 0 19 0;
#X coords 0 -1 1 1 400 60 1 100 100;
#X restore 35 133 pd toy_selector;
#X obj 348 208 tgl 15 0 empty empty editing_mode 17 7 0 10 -258113
-1 -1 0 1;
#X obj 349 251 s __enable_key__;
#X obj 349 226 == 0;
#N canvas 141 427 879 343 note 0;
#X floatatom 166 129 5 0 0 0 - - -, f 5;
#X obj 209 18 select a w s e d f t g y h u j k o l;
#X obj 487 127 t float;
#X obj 210 -6 r __key__;
#X obj 481 267 s __note__;
#X obj 652 151 t float;
#X msg 616 90 0;
#X msg 646 92 12;
#X msg 674 94 24;
#X msg 704 96 36;
#X msg 736 96 48;
#X msg 766 98 60;
#X msg 793 100 72;
#X msg 151 61 0;
#X msg 181 63 1;
#X msg 209 65 2;
#X msg 239 67 3;
#X msg 270 67 4;
#X msg 300 69 5;
#X msg 328 71 6;
#X msg 358 73 7;
#X msg 392 72 8;
#X msg 422 74 9;
#X msg 450 76 10;
#X msg 480 78 11;
#X msg 515 78 12;
#X msg 545 80 13;
#X msg 574 79 14;
#X obj 494 221 + 36;
#X obj 488 152 f;
#X obj 644 178 t b f;
#X floatatom 667 224 5 0 0 0 - - -, f 5;
#X obj 674 47 select z x c v b n m;
#X connect 1 0 13 0;
#X connect 1 1 14 0;
#X connect 1 2 15 0;
#X connect 1 3 16 0;
#X connect 1 4 17 0;
#X connect 1 5 18 0;
#X connect 1 6 19 0;
#X connect 1 7 20 0;
#X connect 1 8 21 0;
#X connect 1 9 22 0;
#X connect 1 10 23 0;
#X connect 1 11 24 0;
#X connect 1 12 25 0;
#X connect 1 13 26 0;
#X connect 1 14 27 0;
#X connect 1 15 32 0;
#X connect 2 0 0 0;
#X connect 2 0 29 0;
#X connect 3 0 1 0;
#X connect 5 0 30 0;
#X connect 6 0 5 0;
#X connect 7 0 5 0;
#X connect 8 0 5 0;
#X connect 9 0 5 0;
#X connect 10 0 5 0;
#X connect 11 0 5 0;
#X connect 12 0 5 0;
#X connect 13 0 2 0;
#X connect 14 0 2 0;
#X connect 15 0 2 0;
#X connect 16 0 2 0;
#X connect 17 0 2 0;
#X connect 18 0 2 0;
#X connect 19 0 2 0;
#X connect 20 0 2 0;
#X connect 21 0 2 0;
#X connect 22 0 2 0;
#X connect 23 0 2 0;
#X connect 24 0 2 0;
#X connect 25 0 2 0;
#X connect 26 0 2 0;
#X connect 27 0 2 0;
#X connect 28 0 4 0;
#X connect 29 0 28 0;
#X connect 30 0 29 0;
#X connect 30 1 28 1;
#X connect 30 1 31 0;
#X connect 32 0 6 0;
#X connect 32 1 7 0;
#X connect 32 2 8 0;
#X connect 32 3 9 0;
#X connect 32 4 10 0;
#X connect 32 5 11 0;
#X connect 32 6 12 0;
#X coords 0 -1 1 1 300 60 1 100 100;
#X restore 35 209 pd note;
#X connect 2 0 4 0;
#X connect 4 0 3 0;
