#N canvas 145 748 402 248 10;
#X obj 27 5 syn.video.input \$0;
#N canvas 522 335 902 343 toy_selector 1;
#X obj 239 117 hradio 30 1 0 5 empty empty Choose_game 0 -8 0 10 -258113
-1 -1 4;
#X obj 244 -15 loadbang;
#X obj 467 76 gemkeyboard;
#X obj 461 105 select 10 11 12 13 14 15 16 17 18 19 20;
#X obj 469 186 f;
#X obj 275 302 s \$0-enabled;
#X msg 532 289 -1;
#X msg 462 132 1;
#X msg 495 136 2;
#X msg 531 138 3;
#X msg 571 136 4;
#X msg 605 138 5;
#X obj 282 242 + 1;
#X obj 439 211 - 1;
#X text 248 145 1;
#X text 279 146 2;
#X text 309 146 3;
#X text 340 146 4;
#X text 371 145 5;
#X obj 67 193 gemhead 200;
#X obj 72 274 text2d;
#X msg 217 270 text \$1;
#X obj 142 148 loadbang;
#X msg 165 169 36;
#X msg 142 189 font DejaVuSerif-Bold.ttf;
#X obj 69 242 color 1 0 0;
#X obj 513 228 t b b;
#X msg 424 273 symbol MUTE;
#X obj 70 219 translateXYZ -4.1 -3.1 0;
#X obj 596 301 tgl 15 0 empty empty empty 17 7 0 10 -1 -258113 -1 1
1;
#X obj 647 249 tgl 15 0 empty empty empty 17 7 0 10 -258113 -1 -1 0
1;
#X obj 596 274 net.send localhost 31338;
#X obj 597 221 r \$0-enabled;
#X obj 687 254 print VIDEO-toy;
#X obj 247 65 - 1;
#X msg 244 34 5;
#X obj 243 9 delay 1000;
#X obj 608 -6 key;
#X obj 607 50 select 48 49 50 51 52 53 54 55 56 57 27;
#X obj 608 23 spigot;
#X obj 106 131 tgl 15 0 empty empty editing_mode 17 7 0 10 -258113
-1 -1 0 1;
#X obj 671 0 == 0;
#X obj 714 -7 loadbang;
#X msg 715 16 0;
#X connect 0 0 12 0;
#X connect 1 0 36 0;
#X connect 2 0 3 0;
#X connect 3 0 7 0;
#X connect 3 1 8 0;
#X connect 3 2 9 0;
#X connect 3 3 10 0;
#X connect 3 4 11 0;
#X connect 3 9 26 0;
#X connect 4 0 13 0;
#X connect 6 0 5 0;
#X connect 7 0 4 0;
#X connect 8 0 4 0;
#X connect 9 0 4 0;
#X connect 10 0 4 0;
#X connect 11 0 4 0;
#X connect 12 0 5 0;
#X connect 12 0 21 0;
#X connect 13 0 0 0;
#X connect 19 0 28 0;
#X connect 21 0 20 0;
#X connect 22 0 23 0;
#X connect 22 0 24 0;
#X connect 23 0 20 1;
#X connect 24 0 20 0;
#X connect 25 0 20 0;
#X connect 26 0 27 0;
#X connect 26 1 6 0;
#X connect 27 0 21 0;
#X connect 28 0 25 0;
#X connect 30 0 31 1;
#X connect 31 0 29 0;
#X connect 32 0 31 0;
#X connect 32 0 33 0;
#X connect 34 0 0 0;
#X connect 35 0 34 0;
#X connect 36 0 35 0;
#X connect 37 0 39 0;
#X connect 38 0 26 0;
#X connect 38 1 7 0;
#X connect 38 2 8 0;
#X connect 38 3 9 0;
#X connect 38 4 10 0;
#X connect 38 5 11 0;
#X connect 39 0 38 0;
#X connect 40 0 41 0;
#X connect 41 0 39 1;
#X connect 42 0 43 0;
#X connect 43 0 41 0;
#X coords 0 -1 1 1 300 60 1 100 100;
#X restore 30 127 pd toy_selector;
