#N canvas 85 197 577 570 10;
#X obj 213 29 inlet;
#X obj 188 436 outlet;
#X obj 338 189 list length;
#X obj 190 334 list split;
#X obj 182 190 f 0;
#X obj 214 58 t a a b;
#X msg 269 163 0;
#X obj 227 194 + 1;
#X obj 190 394 list split 1;
#X obj 164 297 list;
#X obj 130 137 t b a;
#X obj 270 230 < 1;
#X obj 183 237 t f b f;
#X obj 275 257 select 1;
#X text 330 55 Like [drip];
#X connect 0 0 5 0;
#X connect 2 0 11 1;
#X connect 3 1 8 0;
#X connect 4 0 7 0;
#X connect 4 0 12 0;
#X connect 5 0 10 0;
#X connect 5 1 2 0;
#X connect 5 2 6 0;
#X connect 6 0 4 1;
#X connect 7 0 4 1;
#X connect 8 0 1 0;
#X connect 9 0 3 0;
#X connect 10 0 4 0;
#X connect 10 1 9 1;
#X connect 11 0 13 0;
#X connect 12 0 11 0;
#X connect 12 1 9 0;
#X connect 12 2 3 1;
#X connect 13 0 4 0;
