#N canvas 0 1 1137 633 10;
#X obj 85 78 tabread;
#X msg 439 -80 set \$1;
#X obj 359 -187 unpack s f f f;
#X obj 681 -143 unpack s f f f;
#X obj 358 -220 inlet;
#X text 707 -192 to <length> <min> <max>;
#X text 401 -225 from <length> <min> <max>;
#X obj 710 -241 inlet;
#X obj 68 210 tabwrite;
#X msg 669 -103 set \$1;
#X obj 90 -120 until;
#X obj 719 -103 value \$0-length;
#X obj 90 -156 value \$0-length;
#X obj 99 -234 inlet;
#X text 150 -233 bang;
#X obj 97 -87 f 0;
#X obj 96 -192 t b b;
#X msg 139 -117 0;
#X obj 138 -84 + 1;
#X obj 67 -5 vanilla.scale.linear 0 100 0 10;
#X obj 192 -104 value \$0-length;
#X obj 80 -50 t f f;
#X obj 68 135 vanilla.scale.linear -1 1 -1 1;
#X connect 0 0 22 0;
#X connect 1 0 0 0;
#X connect 2 0 1 0;
#X connect 2 1 19 4;
#X connect 2 2 22 1;
#X connect 2 3 22 2;
#X connect 3 0 9 0;
#X connect 3 1 11 0;
#X connect 3 2 22 3;
#X connect 3 3 22 4;
#X connect 4 0 2 0;
#X connect 7 0 3 0;
#X connect 9 0 8 0;
#X connect 10 0 15 0;
#X connect 12 0 10 0;
#X connect 13 0 16 0;
#X connect 15 0 18 0;
#X connect 15 0 21 0;
#X connect 16 0 12 0;
#X connect 16 1 17 0;
#X connect 16 1 20 0;
#X connect 17 0 15 1;
#X connect 18 0 15 1;
#X connect 19 0 0 0;
#X connect 20 0 19 2;
#X connect 21 0 19 0;
#X connect 21 1 8 1;
#X connect 22 0 8 0;
