#N canvas 606 20 641 633 10;
#N canvas 0 22 450 300 (subpatch) 0;
#X array \$0-array 515 float 0;
#X coords 0 -1 514 1 250 200 1;
#X restore 211 64 graph;
#X obj 19 448 dac~;
#X obj 128 421 dbtorms;
#X obj 127 398 + 100;
#X obj 234 330 vsl 15 128 -100 0 0 0 empty empty empty 0 -9 0 10 -258113
-1 -1 10160 1;
#X msg 232 303 -20;
#X obj 268 309 loadbang;
#X obj 21 422 *~ 0;
#X text 57 108 frequency;
#X obj 19 128 mtof;
#X floatatom 19 104 5 0 0 0 - - -;
#X obj 16 57 loadbang;
#X msg 17 81 60;
#X text 256 335 volume (dB);
#X msg 487 144 \; pd dsp \$1;
#X obj 490 89 tgl 50 0 empty empty compute_audio 17 7 0 10 -258113
-1 -1 1 1;
#X obj 491 64 loadbang;
#X floatatom 67 354 5 0 0 0 - - -;
#X obj 49 322 snapshot~;
#X obj 113 346 metro 50;
#X obj 120 323 tgl 15 0 empty empty snapshot 17 7 0 10 -258113 -1 -1
0 1;
#X floatatom 176 345 5 0 0 0 - - -;
#X obj 17 215 sig~ 100;
#X obj 16 243 tabosc4~ \$0-array;
#X obj 414 347 send \$0-array;
#X msg 412 323 sinesum 512 0.5 0.5 0.5 0.5;
#X obj 54 443 vanilla.write.wav~;
#X obj 410 425 until;
#X msg 411 380 515;
#X obj 453 468 random 1000;
#X obj 449 576 tabwrite \$0-array;
#X obj 428 447 t b b;
#X obj 564 512 f 0;
#X obj 411 402 t f b;
#X msg 468 408 0;
#X obj 595 518 + 1;
#X obj 397 610 print;
#X obj 376 575 pack f f;
#X obj 456 490 / 1000;
#X obj 456 516 * 2;
#X obj 456 540 - 1;
#X text 448 381 <-- noisy!!;
#X connect 2 0 7 1;
#X connect 3 0 2 0;
#X connect 4 0 3 0;
#X connect 5 0 4 0;
#X connect 6 0 5 0;
#X connect 7 0 1 0;
#X connect 7 0 1 1;
#X connect 7 0 26 0;
#X connect 7 0 26 1;
#X connect 9 0 22 0;
#X connect 10 0 9 0;
#X connect 11 0 12 0;
#X connect 12 0 10 0;
#X connect 15 0 14 0;
#X connect 16 0 15 0;
#X connect 18 0 17 0;
#X connect 19 0 18 0;
#X connect 20 0 19 0;
#X connect 21 0 19 1;
#X connect 22 0 23 0;
#X connect 23 0 7 0;
#X connect 25 0 24 0;
#X connect 27 0 31 0;
#X connect 28 0 33 0;
#X connect 29 0 38 0;
#X connect 31 0 29 0;
#X connect 31 1 32 0;
#X connect 32 0 35 0;
#X connect 32 0 30 1;
#X connect 32 0 37 1;
#X connect 33 0 27 0;
#X connect 33 1 34 0;
#X connect 34 0 32 1;
#X connect 35 0 32 1;
#X connect 37 0 36 0;
#X connect 38 0 39 0;
#X connect 39 0 40 0;
#X connect 40 0 30 0;
#X connect 40 0 37 0;
