#N canvas 948 402 378 160 10;
#X obj 15 89 outlet~;
#N canvas 66 87 597 425 gut~ 0;
#X obj 60 292 dynwav~;
#X obj 60 355 vol~;
#X floatatom 85 331 5 0 0 0 - - -;
#X text 120 287 left inlet's dsp block = wavetable;
#X text 188 300 right inlet = phase (0-1);
#X obj 423 234 block~ 512;
#X obj 424 213 table \$0-spectrum 512;
#X obj 61 200 tabread~ \$0-spectrum;
#X obj 63 81 phasor~ 86.1328;
#X obj 63 30 bang~;
#X msg 63 54 0;
#X obj 115 260 sig~ 1;
#X floatatom 117 234 5 0 0 0 - - -;
#X floatatom 125 120 5 0 0 0 - - -;
#X obj 61 159 *~ 1;
#X obj 62 389 outlet~;
#X connect 0 0 1 0;
#X connect 1 0 15 0;
#X connect 2 0 1 1;
#X connect 7 0 0 0;
#X connect 8 0 14 0;
#X connect 9 0 10 0;
#X connect 10 0 8 0;
#X connect 11 0 0 1;
#X connect 12 0 11 0;
#X connect 13 0 14 1;
#X connect 14 0 7 0;
#X restore 14 24 pd gut~;
#X connect 1 0 0 0;
